<?xml version="1.0" encoding="iso-8859-1"?>
<!-- Generator: Adobe Illustrator 19.0.0, SVG Export Plug-In . SVG Version: 6.00 Build 0)  -->
<svg xmlns="http://www.w3.org/2000/svg" xmlns:xlink="http://www.w3.org/1999/xlink" version="1.1" id="Layer_1" x="0px" y="0px" viewBox="0 0 512 512" style="enable-background:new 0 0 512 512;" xml:space="preserve">
<g>
	<g>
		<path d="M495.304,171.675H98.543c-9.22,0-16.696,7.475-16.696,16.696v38.712l-56.804-32.796C13.921,187.865,0,195.918,0,208.746    v94.509c0,12.831,13.932,20.873,25.044,14.46l56.804-32.796v38.712c0,9.22,7.475,16.696,16.696,16.696h396.761    c9.22,0,16.696-7.475,16.696-16.696V188.37C512,179.15,504.525,171.675,495.304,171.675z M33.391,274.337v-36.674L65.152,256    L33.391,274.337z M280.228,306.933H115.239V205.066h164.989V306.933z M478.609,306.934H313.62V205.067h164.989V306.934z"/>
	</g>
</g>
<g>
</g>
<g>
</g>
<g>
</g>
<g>
</g>
<g>
</g>
<g>
</g>
<g>
</g>
<g>
</g>
<g>
</g>
<g>
</g>
<g>
</g>
<g>
</g>
<g>
</g>
<g>
</g>
<g>
</g>
</svg>
