<?xml version="1.0" encoding="iso-8859-1"?>
<!-- Generator: Adobe Illustrator 19.0.0, SVG Export Plug-In . SVG Version: 6.00 Build 0)  -->
<svg xmlns="http://www.w3.org/2000/svg" xmlns:xlink="http://www.w3.org/1999/xlink" version="1.1" id="Layer_1" x="0px" y="0px" viewBox="0 0 512 512" style="enable-background:new 0 0 512 512;" xml:space="preserve">
<g>
	<g>
		<path d="M494.14,83.349H17.86C7.997,83.349,0,91.346,0,101.209v309.581c0,9.864,7.997,17.86,17.86,17.86H494.14    c9.864,0,17.86-7.997,17.86-17.86V101.209C512,91.346,504.003,83.349,494.14,83.349z M238.14,225.066l-76.4-44.109    c-11.901-6.869-26.791,1.766-26.791,15.467v119.153c0,13.76,14.937,22.309,26.791,15.467l76.4-44.109V392.93H35.721V119.07H238.14    V225.066z M476.279,392.93H273.86V286.934l76.4,44.109c11.781,6.804,26.791-1.61,26.791-15.467V196.423    c0-13.701-14.898-22.335-26.791-15.467l-76.4,44.109V119.07h202.419V392.93z"/>
	</g>
</g>
<g>
</g>
<g>
</g>
<g>
</g>
<g>
</g>
<g>
</g>
<g>
</g>
<g>
</g>
<g>
</g>
<g>
</g>
<g>
</g>
<g>
</g>
<g>
</g>
<g>
</g>
<g>
</g>
<g>
</g>
</svg>
