<?xml version="1.0" encoding="iso-8859-1"?>
<!-- Generator: Adobe Illustrator 19.0.0, SVG Export Plug-In . SVG Version: 6.00 Build 0)  -->
<svg xmlns="http://www.w3.org/2000/svg" xmlns:xlink="http://www.w3.org/1999/xlink" version="1.1" id="Layer_1" x="0px" y="0px" viewBox="0 0 512 512" style="enable-background:new 0 0 512 512;" xml:space="preserve">
<g>
	<g>
		<path d="M136.485,197.631l-74.308,42.902c-11.902,6.873-11.88,24.076,0,30.934l74.308,42.902    c11.875,6.857,26.791-1.711,26.791-15.467v-85.805C163.276,199.356,148.366,190.77,136.485,197.631z M127.555,267.968L106.828,256    l20.727-11.968V267.968z"/>
	</g>
</g>
<g>
	<g>
		<path d="M449.823,240.533l-74.308-42.902c-11.9-6.872-26.791,1.748-26.791,15.467v85.805c0,13.75,14.931,22.315,26.791,15.466    l74.308-42.902c5.526-3.191,8.93-9.086,8.93-15.467C458.753,249.619,455.349,243.723,449.823,240.533z M384.445,267.968v-23.935    L405.172,256L384.445,267.968z"/>
	</g>
</g>
<g>
	<g>
		<path d="M494.14,83.349H273.86v-0.027c0-9.864-7.997-17.86-17.86-17.86s-17.86,7.997-17.86,17.86v0.027H17.86    C7.997,83.349,0,91.346,0,101.209v309.581c0,9.864,7.997,17.86,17.86,17.86H238.14v0.027c0,9.864,7.997,17.86,17.86,17.86    s17.86-7.997,17.86-17.86v-0.027H494.14c9.864,0,17.86-7.997,17.86-17.86V101.209C512,91.346,504.003,83.349,494.14,83.349z     M476.279,392.93H273.86v-29.033c0-9.864-7.997-17.86-17.86-17.86s-17.86,7.997-17.86,17.86v29.033H35.721V119.07H238.14v29.033    c0,9.864,7.997,17.86,17.86,17.86s17.86-7.997,17.86-17.86V119.07h202.419V392.93z"/>
	</g>
</g>
<g>
	<g>
		<path d="M256,205.749c-9.864,0-17.86,7.997-17.86,17.86v64.781c0,9.864,7.997,17.86,17.86,17.86s17.86-7.997,17.86-17.86v-64.781    C273.86,213.746,265.864,205.749,256,205.749z"/>
	</g>
</g>
<g>
</g>
<g>
</g>
<g>
</g>
<g>
</g>
<g>
</g>
<g>
</g>
<g>
</g>
<g>
</g>
<g>
</g>
<g>
</g>
<g>
</g>
<g>
</g>
<g>
</g>
<g>
</g>
<g>
</g>
</svg>
