<?xml version="1.0" encoding="iso-8859-1"?>
<!-- Generator: Adobe Illustrator 19.0.0, SVG Export Plug-In . SVG Version: 6.00 Build 0)  -->
<svg xmlns="http://www.w3.org/2000/svg" xmlns:xlink="http://www.w3.org/1999/xlink" version="1.1" id="Layer_1" x="0px" y="0px" viewBox="0 0 512 512" style="enable-background:new 0 0 512 512;" xml:space="preserve">
<g>
	<g>
		<path d="M494.14,46.494H17.86C7.997,46.494,0,54.491,0,64.355v142.918c0,9.864,7.997,17.86,17.86,17.86h20.018v222.512    c0,9.864,7.997,17.86,17.86,17.86h400.523c9.864,0,17.86-7.997,17.86-17.86V225.134h20.017c9.864,0,17.86-7.997,17.86-17.86    V64.355C512,54.491,504.003,46.494,494.14,46.494z M238.291,429.786H73.599V345.32h164.691V429.786z M238.291,309.599H73.599    v-84.466h164.691V309.599z M438.402,429.785h-164.39v-84.466h164.39V429.785z M438.402,309.599h-0.001H274.012v-84.466h164.39    V309.599z M476.279,189.413c-5.781,0-433.972,0-440.558,0V82.215h440.558V189.413z"/>
	</g>
</g>
<g>
	<g>
		<path d="M288.781,135.37h-65.562c-9.864,0-17.86,7.997-17.86,17.86c0,9.864,7.997,17.86,17.86,17.86h65.562    c9.864,0,17.86-7.997,17.86-17.86C306.642,143.367,298.645,135.37,288.781,135.37z"/>
	</g>
</g>
<g>
	<g>
		<path d="M160.319,135.37H94.757c-9.864,0-17.86,7.997-17.86,17.86c0,9.864,7.997,17.86,17.86,17.86h65.562    c9.864,0,17.86-7.997,17.86-17.86C178.18,143.367,170.183,135.37,160.319,135.37z"/>
	</g>
</g>
<g>
	<g>
		<path d="M417.547,135.37h-65.562c-9.864,0-17.86,7.997-17.86,17.86c0,9.864,7.997,17.86,17.86,17.86h65.562    c9.864,0,17.86-7.997,17.86-17.86C435.407,143.367,427.41,135.37,417.547,135.37z"/>
	</g>
</g>
<g>
</g>
<g>
</g>
<g>
</g>
<g>
</g>
<g>
</g>
<g>
</g>
<g>
</g>
<g>
</g>
<g>
</g>
<g>
</g>
<g>
</g>
<g>
</g>
<g>
</g>
<g>
</g>
<g>
</g>
</svg>
