<?xml version="1.0" encoding="iso-8859-1"?>
<!-- Generator: Adobe Illustrator 19.0.0, SVG Export Plug-In . SVG Version: 6.00 Build 0)  -->
<svg xmlns="http://www.w3.org/2000/svg" xmlns:xlink="http://www.w3.org/1999/xlink" version="1.1" id="Layer_1" x="0px" y="0px" viewBox="0 0 512 512" style="enable-background:new 0 0 512 512;" xml:space="preserve">
<g>
	<g>
		<path d="M493.268,0H18.732C8.387,0,0,8.387,0,18.732v474.537C0,503.613,8.387,512,18.732,512h474.537    c10.345,0,18.732-8.387,18.732-18.732V18.732C512,8.387,503.613,0,493.268,0z M474.537,474.537H37.463V37.463h437.073V474.537z"/>
	</g>
</g>
<g>
	<g>
		<path d="M369.113,131.768c-33.672-33.673-88.461-33.673-122.135,0c-29.123,29.124-33.035,74.034-11.781,107.425L123.072,351.318    c-7.315,7.314-7.315,19.175,0,26.49l22.237,22.235c3.659,3.659,8.452,5.487,13.246,5.487c4.793,0,9.588-1.829,13.245-5.487    c7.315-7.314,7.315-19.174,0-26.49l-8.99-8.99l12.299-12.299l8.99,8.99c3.658,3.659,8.452,5.487,13.246,5.487    c4.793,0,9.588-1.829,13.245-5.487c7.315-7.314,7.315-19.174,0-26.49l-8.99-8.99l60.089-60.089    c33.662,21.43,78.498,17.144,107.425-11.782C402.865,220.152,402.869,165.523,369.113,131.768z M342.625,227.41    c-19.113,19.111-50.04,19.111-69.152,0c-19.065-19.066-19.065-50.089,0-69.154c19.111-19.11,50.041-19.111,69.152,0    C361.734,177.367,361.739,208.298,342.625,227.41z"/>
	</g>
</g>
<g>
</g>
<g>
</g>
<g>
</g>
<g>
</g>
<g>
</g>
<g>
</g>
<g>
</g>
<g>
</g>
<g>
</g>
<g>
</g>
<g>
</g>
<g>
</g>
<g>
</g>
<g>
</g>
<g>
</g>
</svg>
