<?xml version="1.0" encoding="iso-8859-1"?>
<!-- Generator: Adobe Illustrator 19.0.0, SVG Export Plug-In . SVG Version: 6.00 Build 0)  -->
<svg xmlns="http://www.w3.org/2000/svg" xmlns:xlink="http://www.w3.org/1999/xlink" version="1.1" id="Layer_1" x="0px" y="0px" viewBox="0 0 512 512" style="enable-background:new 0 0 512 512;" xml:space="preserve">
<g>
	<g>
		<path d="M459.25,126.725L337.412,4.887C334.261,1.736,329.93,0,325.604,0H64.555C55.335,0,47.86,7.475,47.86,16.696v478.609    c0,9.22,7.475,16.696,16.696,16.696h382.889c9.221,0,16.696-7.475,16.696-16.696V138.538    C464.14,134.24,462.423,129.896,459.25,126.725z M342.303,57.006l64.827,64.829h-64.827V57.006z M430.749,478.608H81.251V33.392    h227.66V138.53c0,9.221,7.475,16.696,16.696,16.696h105.142V478.608z"/>
	</g>
</g>
<g>
	<g>
		<path d="M383.862,342.423l-95.78-76.194c-4.654-3.703-10.732-4.536-16.021-2.645c13.187-29.004,7.88-64.428-15.943-88.25    c-30.739-30.741-80.498-30.746-111.242,0c-30.67,30.669-30.67,80.573,0,111.241c24.284,24.287,59.774,28.966,88.237,15.983    c-1.873,5.279-1.035,11.34,2.659,15.981l76.193,95.779c6.228,7.83,17.851,8.434,24.871,1.412l48.439-48.438    C392.314,360.254,391.663,348.629,383.862,342.423z M232.507,262.964c-17.65,17.651-46.371,17.65-64.02,0s-17.65-46.369,0-64.019    c17.648-17.649,46.37-17.651,64.02,0C250.157,216.594,250.157,245.313,232.507,262.964z M326.449,378.894l-55.271-69.479    l7.777-7.777l69.479,55.271L326.449,378.894z"/>
	</g>
</g>
<g>
</g>
<g>
</g>
<g>
</g>
<g>
</g>
<g>
</g>
<g>
</g>
<g>
</g>
<g>
</g>
<g>
</g>
<g>
</g>
<g>
</g>
<g>
</g>
<g>
</g>
<g>
</g>
<g>
</g>
</svg>
