<?xml version="1.0" encoding="iso-8859-1"?>
<!-- Generator: Adobe Illustrator 19.0.0, SVG Export Plug-In . SVG Version: 6.00 Build 0)  -->
<svg xmlns="http://www.w3.org/2000/svg" xmlns:xlink="http://www.w3.org/1999/xlink" version="1.1" id="Layer_1" x="0px" y="0px" viewBox="0 0 512 512" style="enable-background:new 0 0 512 512;" xml:space="preserve">
<g>
	<g>
		<path d="M494.933,238.933h-17.716c-8.313-108.761-95.389-195.838-204.15-204.15V17.067C273.067,7.641,265.425,0,256,0    s-17.067,7.641-17.067,17.067v17.716c-108.761,8.313-195.838,95.389-204.15,204.15H17.067C7.641,238.933,0,246.575,0,256    s7.641,17.067,17.067,17.067h17.716c8.313,108.761,95.389,195.838,204.15,204.15v17.716c0,9.425,7.641,17.067,17.067,17.067    s17.067-7.641,17.067-17.067v-17.716c108.761-8.313,195.838-95.389,204.15-204.15h17.716c9.425,0,17.067-7.641,17.067-17.067    S504.359,238.933,494.933,238.933z M238.933,442.949c-89.924-8.143-161.74-79.958-169.883-169.883h103.333    c6.804,33.387,33.163,59.746,66.55,66.55V442.949z M238.933,304.265c-14.523-5.151-26.047-16.675-31.198-31.198h31.198V304.265z     M238.933,238.933h-31.198c5.151-14.523,16.675-26.047,31.198-31.198V238.933z M238.933,172.384    c-33.387,6.804-59.745,33.163-66.55,66.55H69.051c8.143-89.924,79.958-161.74,169.883-169.883V172.384z M273.067,207.735    c14.523,5.151,26.047,16.675,31.198,31.198h-31.198V207.735z M273.067,273.067h31.198c-5.151,14.523-16.675,26.047-31.198,31.198    V273.067z M273.067,442.949V339.616c33.387-6.804,59.745-33.163,66.55-66.55h103.333    C434.806,362.991,362.991,434.806,273.067,442.949z M339.616,238.933c-6.804-33.387-33.163-59.746-66.55-66.55V69.051    c89.924,8.143,161.74,79.958,169.883,169.883H339.616z"/>
	</g>
</g>
<g>
</g>
<g>
</g>
<g>
</g>
<g>
</g>
<g>
</g>
<g>
</g>
<g>
</g>
<g>
</g>
<g>
</g>
<g>
</g>
<g>
</g>
<g>
</g>
<g>
</g>
<g>
</g>
<g>
</g>
</svg>
