<?xml version="1.0" encoding="iso-8859-1"?>
<!-- Generator: Adobe Illustrator 19.0.0, SVG Export Plug-In . SVG Version: 6.00 Build 0)  -->
<svg xmlns="http://www.w3.org/2000/svg" xmlns:xlink="http://www.w3.org/1999/xlink" version="1.1" id="Layer_1" x="0px" y="0px" viewBox="0 0 512.001 512.001" style="enable-background:new 0 0 512.001 512.001;" xml:space="preserve">
<g>
	<g>
		<path d="M315.027,393.817c-42.692-42.692-4.858-4.863-47.546-47.551l42.235-42.236c7.498-7.497,7.498-19.654,0-27.153    c-7.497-7.497-19.654-7.497-27.153,0l-42.235,42.236l-47.447-47.447l42.235-42.236c7.498-7.497,7.498-19.654,0-27.153    c-7.497-7.497-19.654-7.497-27.153,0l-42.235,42.236c-42.6-42.601-4.947-4.942-47.544-47.539c-7.497-7.497-19.654-7.497-27.153,0    c-7.498,7.497-7.498,19.654,0,27.153l10.456,10.456l-55.77,55.77c-2.264,2.264-3.926,5.057-4.835,8.128l-26.116,88.245    c-1.998,6.748-0.142,14.049,4.835,19.025l29.747,29.747L5.624,479.224c-7.498,7.497-7.498,19.654,0,27.153    c7.498,7.498,19.654,7.498,27.153,0l43.726-43.726l29.748,29.748c4.957,4.959,12.248,6.836,19.025,4.835l88.243-26.117    c3.069-0.908,5.864-2.57,8.128-4.833l55.771-55.77l10.456,10.456c7.498,7.498,19.654,7.498,27.153,0    C322.525,413.473,322.525,401.315,315.027,393.817z M197.944,435.681l-72.616,21.491l-70.499-70.499l21.491-72.617l52.32-52.32    c12.468,12.468,109.746,109.746,121.624,121.624L197.944,435.681z"/>
	</g>
</g>
<g>
	<g>
		<path d="M506.376,5.624c-7.497-7.497-19.654-7.497-27.153,0L435.498,49.35l-29.748-29.748c-4.975-4.978-12.274-6.828-19.025-4.835    L298.48,40.882c-3.069,0.909-5.864,2.572-8.128,4.835l-55.77,55.77L224.126,91.03c-7.497-7.497-19.654-7.497-27.153,0    c-7.498,7.497-7.498,19.654,0,27.153c15.944,15.944,189.876,189.876,196.842,196.842c7.498,7.498,19.654,7.498,27.153,0    c7.498-7.497,7.498-19.654,0-27.153l-10.456-10.456l55.77-55.77c2.264-2.264,3.926-5.057,4.835-8.128l26.116-88.244    c1.997-6.748,0.141-14.049-4.835-19.025l-29.748-29.748l43.726-43.726C513.876,25.279,513.876,13.122,506.376,5.624z     M435.681,197.945l-52.32,52.32L261.735,128.639l52.32-52.32l72.617-21.491l70.499,70.499L435.681,197.945z"/>
	</g>
</g>
<g>
	<g>
		<path d="M180.262,385.576l-53.837-53.837c-7.497-7.497-19.654-7.497-27.153,0c-7.498,7.497-7.498,19.654,0,27.153l53.837,53.837    c7.498,7.498,19.654,7.498,27.153,0C187.76,405.232,187.76,393.074,180.262,385.576z"/>
	</g>
</g>
<g>
	<g>
		<path d="M412.729,153.109l-53.837-53.837c-7.498-7.497-19.656-7.497-27.153,0c-7.498,7.497-7.498,19.654,0,27.153l53.837,53.837    c7.498,7.498,19.654,7.498,27.153,0C420.227,172.765,420.227,160.607,412.729,153.109z"/>
	</g>
</g>
<g>
</g>
<g>
</g>
<g>
</g>
<g>
</g>
<g>
</g>
<g>
</g>
<g>
</g>
<g>
</g>
<g>
</g>
<g>
</g>
<g>
</g>
<g>
</g>
<g>
</g>
<g>
</g>
<g>
</g>
</svg>
