<?xml version="1.0" encoding="iso-8859-1"?>
<!-- Generator: Adobe Illustrator 19.0.0, SVG Export Plug-In . SVG Version: 6.00 Build 0)  -->
<svg xmlns="http://www.w3.org/2000/svg" xmlns:xlink="http://www.w3.org/1999/xlink" version="1.1" id="Layer_1" x="0px" y="0px" viewBox="0 0 512 512" style="enable-background:new 0 0 512 512;" xml:space="preserve">
<g>
	<g>
		<path d="M256,0C114.508,0,0,114.497,0,256c0,141.492,114.497,256,256,256c141.18,0,256-114.199,256-256    C512,114.481,397.214,0,256,0z M238.933,477.216c-114.394-8.743-204.8-104.62-204.8-221.216s90.406-212.473,204.8-221.217V477.216    z M273.067,34.783c13.493,1.031,26.648,3.285,39.365,6.632L273.067,80.78V34.783z M273.067,129.051l74.927-74.927    c17.863,8.173,34.462,18.645,49.413,31.041l-124.34,124.34V129.051z M273.067,257.775l148.873-148.871    c12.809,14.433,23.767,30.54,32.502,47.951L273.067,338.229V257.775z M319.786,468.506l148.721-148.721    C447.116,390.918,390.918,447.116,319.786,468.506z M273.067,466.954v-80.453l195.176-195.177    c6.983,22.872,10.205,46.69,9.531,70.923L273.067,466.954z"/>
	</g>
</g>
<g>
</g>
<g>
</g>
<g>
</g>
<g>
</g>
<g>
</g>
<g>
</g>
<g>
</g>
<g>
</g>
<g>
</g>
<g>
</g>
<g>
</g>
<g>
</g>
<g>
</g>
<g>
</g>
<g>
</g>
</svg>
