<?xml version="1.0" encoding="iso-8859-1"?>
<!-- Generator: Adobe Illustrator 19.0.0, SVG Export Plug-In . SVG Version: 6.00 Build 0)  -->
<svg xmlns="http://www.w3.org/2000/svg" xmlns:xlink="http://www.w3.org/1999/xlink" version="1.1" id="Layer_1" x="0px" y="0px" viewBox="0 0 512 512" style="enable-background:new 0 0 512 512;" xml:space="preserve">
<g>
	<g>
		<path d="M459.25,126.725L337.412,4.887C334.273,1.747,329.95,0,325.604,0H64.555C55.335,0,47.86,7.475,47.86,16.696v478.609    c0,9.22,7.475,16.696,16.696,16.696h382.889c9.221,0,16.696-7.475,16.696-16.696V138.538    C464.14,134.248,462.423,129.899,459.25,126.725z M342.303,57.006l64.827,64.829h-64.827V57.006z M430.749,478.608H81.251V33.392    h227.66V138.53c0,9.221,7.475,16.696,16.696,16.696h105.142V478.608z"/>
	</g>
</g>
<g>
	<g>
		<path d="M355.063,211.523H156.937c-9.221,0-16.696,7.475-16.696,16.696s7.475,16.696,16.696,16.696h198.125    c9.221,0,16.696-7.475,16.696-16.696S364.283,211.523,355.063,211.523z"/>
	</g>
</g>
<g>
	<g>
		<path d="M355.063,300.222H156.937c-9.221,0-16.696,7.475-16.696,16.696c0,9.22,7.475,16.696,16.696,16.696h198.125    c9.221,0,16.696-7.475,16.696-16.696C371.758,307.697,364.283,300.222,355.063,300.222z"/>
	</g>
</g>
<g>
	<g>
		<path d="M355.063,388.92H156.937c-9.221,0-16.696,7.475-16.696,16.696s7.475,16.696,16.696,16.696h198.125    c9.221,0,16.696-7.475,16.696-16.696S364.283,388.92,355.063,388.92z"/>
	</g>
</g>
<g>
</g>
<g>
</g>
<g>
</g>
<g>
</g>
<g>
</g>
<g>
</g>
<g>
</g>
<g>
</g>
<g>
</g>
<g>
</g>
<g>
</g>
<g>
</g>
<g>
</g>
<g>
</g>
<g>
</g>
</svg>
