<?xml version="1.0" encoding="iso-8859-1"?>
<!-- Generator: Adobe Illustrator 19.0.0, SVG Export Plug-In . SVG Version: 6.00 Build 0)  -->
<svg xmlns="http://www.w3.org/2000/svg" xmlns:xlink="http://www.w3.org/1999/xlink" version="1.1" id="Layer_1" x="0px" y="0px" viewBox="0 0 512 512" style="enable-background:new 0 0 512 512;" xml:space="preserve">
<g>
	<g>
		<path d="M422.957,0H89.044c-9.22,0-16.696,7.475-16.696,16.696v478.609c0,9.22,7.475,16.696,16.696,16.696h333.913    c9.22,0,16.696-7.475,16.696-16.696V16.696C439.652,7.475,432.177,0,422.957,0z M406.261,478.609H105.739V33.391h300.522V478.609z    "/>
	</g>
</g>
<g>
	<g>
		<path d="M292.552,317.551c30.021,0,54.147-24.753,53.222-54.909c-0.699-22.786-16.226-42.387-37.215-49.105    c0.653-4.036,0.847-8.179,0.557-12.36c-1.831-26.393-23.118-47.618-49.514-49.371c-31.38-2.103-56.851,22.902-56.851,53.128    c0,2.904,0.237,5.786,0.701,8.618c-21.849,6.985-37.607,27.803-37.156,51.769c0.543,28.8,24.427,52.231,53.239,52.231    c6.896,0,13.584-1.313,19.768-3.778v13.154h-16.108c-9.22,0-16.696,7.475-16.696,16.696c0,9.22,7.475,16.696,16.696,16.696h65.607    c9.22,0,16.696-7.475,16.696-16.696c0-9.22-7.475-16.696-16.696-16.696h-16.108v-13.192    C278.904,316.223,285.623,317.551,292.552,317.551z M256.043,264.293c-0.014,0-0.029-0.002-0.043-0.002    c-0.061,0-0.12,0.009-0.183,0.009c-7.977,0.075-15.285,4.075-19.581,10.744c-10.616,16.485-36.188,9.063-36.553-10.352    c-0.203-10.785,8.38-19.862,19.133-20.233c5.036-0.184,16.572,4.759,23.738-6.898c8.96-14.582-6.411-18.639-6.411-32.628    c0-11.427,9.581-20.57,21.247-19.811c9.657,0.642,17.745,8.708,18.415,18.365c1.085,15.641-15.801,18.784-6.379,34.101    c7.235,11.764,18.854,6.535,24.474,6.901c16.526,1.063,24.785,21.386,12.908,33.633c-8.932,9.209-24.047,7.65-30.957-3.079    C271.516,268.312,264.111,264.293,256.043,264.293z"/>
	</g>
</g>
<g>
</g>
<g>
</g>
<g>
</g>
<g>
</g>
<g>
</g>
<g>
</g>
<g>
</g>
<g>
</g>
<g>
</g>
<g>
</g>
<g>
</g>
<g>
</g>
<g>
</g>
<g>
</g>
<g>
</g>
</svg>
