<?xml version="1.0" encoding="iso-8859-1"?>
<!-- Generator: Adobe Illustrator 19.0.0, SVG Export Plug-In . SVG Version: 6.00 Build 0)  -->
<svg xmlns="http://www.w3.org/2000/svg" xmlns:xlink="http://www.w3.org/1999/xlink" version="1.1" id="Layer_1" x="0px" y="0px" viewBox="0 0 512.001 512.001" style="enable-background:new 0 0 512.001 512.001;" xml:space="preserve">
<g>
	<g>
		<path d="M484.349,272.271c34.472-73.619,44.71-165.213-18.338-213.311c3.065-31.057-21.366-57.909-52.449-57.909    c-26.069,0-42.753,15.063-49.376,33.681c-29.171,2.888-60.035,12.021-90.892,26.497C154.548,5.638,56.296,37.348,37.841,129.883    C15.996,136.324,0,156.55,0,180.452c0,27.385,20.77,49.474,46.764,52.409c4.174,13.103,9.371,26.279,15.521,39.411    c-83.521,178.378,32.49,294.63,211.032,211.03C451.643,566.802,567.974,450.867,484.349,272.271z M413.561,35.175    c13.051,0,22.045,13.101,17.37,25.25c-0.002,0.005-0.003,0.01-0.006,0.015c-2.739,7.136-9.717,11.932-17.364,11.932    c-17.608,0-18.501-15.615-18.501-18.744C395.061,36.065,410.472,35.175,413.561,35.175z M363.107,69.21    c6.435,22.532,25.739,37.286,50.454,37.286c14.235,0,27.654-5.865,37.388-15.622c37.128,34.558,30.022,95.241,12.56,142.871    c-36.834-59.911-91.723-114.809-151.652-151.658C329.551,75.574,346.801,71.245,363.107,69.21z M234.791,82.078    c-60.842,37.439-115.344,92.588-151.667,151.666c-1.016-2.773-1.988-5.544-2.904-8.311c15.282-9.354,25.224-26.193,25.224-44.981    c0-22.08-13.672-41.036-33.02-48.871C89.914,61.953,164.237,56.211,234.791,82.078z M56.248,198.707    c-0.042,0.008-0.084,0.016-0.126,0.024c-11.028,2.175-21.998-6.355-21.998-18.279c0-10.255,8.343-18.599,18.617-18.599    c10.245,0.015,18.58,8.358,18.58,18.599C71.321,189.374,64.982,197.051,56.248,198.707z M93.743,451.845    c-34.895-34.896-27.886-93.949-10.619-141.047c36.764,59.794,91.614,114.742,151.667,151.665    C188.084,479.587,128.764,486.866,93.743,451.845z M100.354,272.271c36.285-68.736,101.269-134.993,173.041-172.92    c70.011,36.98,135.87,102.801,172.884,172.92c-36.988,70.068-102.843,135.947-172.962,172.962    C203.245,408.243,137.369,342.389,100.354,272.271z M311.842,462.462c59.798-36.765,114.744-91.613,151.667-151.666    C510.178,438.082,439.086,509.114,311.842,462.462z"/>
	</g>
</g>
<g>
	<g>
		<path d="M273.317,198.152c-40.869,0-74.119,33.249-74.119,74.119s33.25,74.119,74.119,74.119s74.118-33.249,74.118-74.119    S314.185,198.152,273.317,198.152z M273.317,312.266c-22.053,0-39.995-17.941-39.995-39.995s17.942-39.995,39.995-39.995    c22.053,0,39.994,17.941,39.994,39.995C313.311,294.325,295.37,312.266,273.317,312.266z"/>
	</g>
</g>
<g>
</g>
<g>
</g>
<g>
</g>
<g>
</g>
<g>
</g>
<g>
</g>
<g>
</g>
<g>
</g>
<g>
</g>
<g>
</g>
<g>
</g>
<g>
</g>
<g>
</g>
<g>
</g>
<g>
</g>
</svg>
