<?xml version="1.0" encoding="iso-8859-1"?>
<!-- Generator: Adobe Illustrator 19.0.0, SVG Export Plug-In . SVG Version: 6.00 Build 0)  -->
<svg xmlns="http://www.w3.org/2000/svg" xmlns:xlink="http://www.w3.org/1999/xlink" version="1.1" id="Layer_1" x="0px" y="0px" viewBox="0 0 511.999 511.999" style="enable-background:new 0 0 511.999 511.999;" xml:space="preserve">
<g>
	<g>
		<path d="M474.165,353.286V295.07c38.068-81.12-22.016-158.092-91.426-131.494c-30.082-32.885-75.846-32.573-110.74-10.465V86.39    c0-8.836-7.164-16-16-16c-8.836,0-16,7.164-16,16v66.72c-34.65-21.954-80.498-22.603-110.741,10.464    C59.908,136.999-0.263,213.887,37.835,295.069v58.217C16.831,354.124,0,371.464,0,392.668v9.519    c0,21.738,17.685,39.422,39.422,39.422h433.155c21.738,0,39.422-17.685,39.422-39.422v-9.519    C512,371.464,495.169,354.124,474.165,353.286z M447.823,275.428h-44.591c9.112-29.199,8.179-58.691-2.705-83.993    C438.259,182.344,467.082,226.495,447.823,275.428z M272,195.785c44.413-60.308,134.521-11.415,97.238,79.644H272V195.785z     M240,195.786v79.644h-97.238C105.057,183.337,196.344,136.502,240,195.786z M442.166,307.428v45.818H69.835v-45.818    C83.732,307.428,424.905,307.428,442.166,307.428z M111.472,191.437c-10.884,25.301-11.815,54.794-2.705,83.992h-44.59    C45.051,226.832,73.459,182.281,111.472,191.437z M472.578,409.61H39.422c-4.093,0-7.422-3.33-7.422-7.422v-9.519    c0-4.093,3.33-7.422,7.422-7.422c19.748,0,413.84,0,433.155,0c4.093,0,7.422,3.33,7.422,7.422v9.519H480    C480,406.281,476.67,409.61,472.578,409.61z"/>
	</g>
</g>
<g>
</g>
<g>
</g>
<g>
</g>
<g>
</g>
<g>
</g>
<g>
</g>
<g>
</g>
<g>
</g>
<g>
</g>
<g>
</g>
<g>
</g>
<g>
</g>
<g>
</g>
<g>
</g>
<g>
</g>
</svg>
