<?xml version="1.0" encoding="iso-8859-1"?>
<!-- Generator: Adobe Illustrator 19.0.0, SVG Export Plug-In . SVG Version: 6.00 Build 0)  -->
<svg xmlns="http://www.w3.org/2000/svg" xmlns:xlink="http://www.w3.org/1999/xlink" version="1.1" id="Layer_1" x="0px" y="0px" viewBox="0 0 512 512" style="enable-background:new 0 0 512 512;" xml:space="preserve">
<g>
	<g>
		<path d="M459.249,126.725L337.412,4.887c-2.953-2.955-7.129-4.834-11.64-4.878C324.414-0.004,67.207,0.001,64.556,0.001    c-9.221,0-16.696,7.475-16.696,16.696v478.607c0,9.22,7.475,16.696,16.696,16.696h382.889c9.22,0,16.696-7.475,16.696-16.696    V138.537C464.14,134.268,462.429,129.905,459.249,126.725z M342.302,57.007l64.828,64.828h-64.828V57.007z M430.748,478.608    H81.251V33.392h227.66v105.139c0,9.22,7.475,16.696,16.696,16.696h105.142V478.608z"/>
	</g>
</g>
<g>
</g>
<g>
</g>
<g>
</g>
<g>
</g>
<g>
</g>
<g>
</g>
<g>
</g>
<g>
</g>
<g>
</g>
<g>
</g>
<g>
</g>
<g>
</g>
<g>
</g>
<g>
</g>
<g>
</g>
</svg>
