<?xml version="1.0" encoding="iso-8859-1"?>
<!-- Generator: Adobe Illustrator 19.0.0, SVG Export Plug-In . SVG Version: 6.00 Build 0)  -->
<svg xmlns="http://www.w3.org/2000/svg" xmlns:xlink="http://www.w3.org/1999/xlink" version="1.1" id="Layer_1" x="0px" y="0px" viewBox="0 0 512 512" style="enable-background:new 0 0 512 512;" xml:space="preserve">
<g>
	<g>
		<path d="M433.933,389.424H414.61l17.785-44.779c2.291-5.768,3.452-11.838,3.452-18.043l0.002-125.28    c0-24.365-18.208-45.191-42.356-48.444c-0.055-0.007-0.109-0.015-0.164-0.022L263.504,136.65V51.955    C263.504,23.307,240.198,0,211.55,0c-28.648,0-51.955,23.307-51.955,51.955v176.478l-24.59-15.758    c-23.205-14.866-54.218-7.14-67.729,16.883c-11.12,19.77-7.085,44.148,9.812,59.281l99.01,88.678l4.729,11.908h-8.921    c-9.404,0-17.029,7.624-17.029,17.029v88.518c0,9.404,7.624,17.029,17.029,17.029h262.026c9.404,0,17.029-7.624,17.029-17.029    v-88.518C450.962,397.049,443.337,389.424,433.933,389.424z M99.809,263.468c-4.907-4.395-6.078-11.473-2.848-17.215    c3.926-6.981,12.903-9.241,19.669-4.902l50.806,32.557c11.316,7.253,26.216-0.895,26.216-14.337V51.955    c0-9.868,8.029-17.897,17.897-17.897s17.897,8.029,17.897,17.897v99.731c0,8.588,6.396,15.833,14.92,16.898l144.648,18.058    c7.289,1.015,12.777,7.313,12.777,14.681l-0.002,125.28c0,1.881-0.353,3.721-1.047,5.47l-22.778,57.352H217.475l-11.203-28.205    c-0.973-2.449-2.502-4.64-4.466-6.399L99.809,263.468z M416.904,477.942H188.936v-54.46c4.198,0,221.069,0,227.968,0V477.942z"/>
	</g>
</g>
<g>
</g>
<g>
</g>
<g>
</g>
<g>
</g>
<g>
</g>
<g>
</g>
<g>
</g>
<g>
</g>
<g>
</g>
<g>
</g>
<g>
</g>
<g>
</g>
<g>
</g>
<g>
</g>
<g>
</g>
</svg>
