<?xml version="1.0" encoding="iso-8859-1"?>
<!-- Generator: Adobe Illustrator 19.0.0, SVG Export Plug-In . SVG Version: 6.00 Build 0)  -->
<svg xmlns="http://www.w3.org/2000/svg" xmlns:xlink="http://www.w3.org/1999/xlink" version="1.1" id="Layer_1" x="0px" y="0px" viewBox="0 0 512 512" style="enable-background:new 0 0 512 512;" xml:space="preserve">
<g>
	<g>
		<path d="M356.174,55.652h-27.826V16.696c0-9.22-7.475-16.696-16.696-16.696H200.348c-9.22,0-16.696,7.475-16.696,16.696v38.956    h-27.826c-9.22,0-16.696,7.475-16.696,16.696v422.956c0,9.22,7.475,16.696,16.696,16.696h200.348    c9.22,0,16.696-7.475,16.696-16.696V72.348C372.87,63.127,365.394,55.652,356.174,55.652z M217.043,33.391h77.913v22.261h-77.913    V33.391z M339.478,478.609H172.522V89.044c14.468,0,147.456,0,166.957,0V478.609z"/>
	</g>
</g>
<g>
	<g>
		<path d="M256,228.174c-30.687,0-55.652,24.966-55.652,55.652c0,30.687,24.966,55.652,55.652,55.652    c30.687,0,55.652-24.966,55.652-55.652C311.652,253.139,286.687,228.174,256,228.174z M256,306.087    c-12.275,0-22.261-9.986-22.261-22.261s9.986-22.261,22.261-22.261c12.275,0,22.261,9.986,22.261,22.261    S268.275,306.087,256,306.087z"/>
	</g>
</g>
<g>
	<g>
		<path d="M256,102.957c-30.687,0-55.652,24.966-55.652,55.652c0,30.687,24.966,55.652,55.652,55.652    c30.687,0,55.652-24.966,55.652-55.652S286.687,102.957,256,102.957z M256,180.87c-12.275,0-22.261-9.986-22.261-22.261    s9.986-22.261,22.261-22.261c12.275,0,22.261,9.986,22.261,22.261S268.275,180.87,256,180.87z"/>
	</g>
</g>
<g>
	<g>
		<path d="M256,353.391c-30.687,0-55.652,24.966-55.652,55.652c0,30.687,24.966,55.652,55.652,55.652    c30.687,0,55.652-24.966,55.652-55.652C311.652,378.357,286.687,353.391,256,353.391z M256,431.304    c-12.275,0-22.261-9.986-22.261-22.261s9.986-22.261,22.261-22.261c12.275,0,22.261,9.986,22.261,22.261    S268.275,431.304,256,431.304z"/>
	</g>
</g>
<g>
</g>
<g>
</g>
<g>
</g>
<g>
</g>
<g>
</g>
<g>
</g>
<g>
</g>
<g>
</g>
<g>
</g>
<g>
</g>
<g>
</g>
<g>
</g>
<g>
</g>
<g>
</g>
<g>
</g>
</svg>
