<?xml version="1.0" encoding="iso-8859-1"?>
<!-- Generator: Adobe Illustrator 19.0.0, SVG Export Plug-In . SVG Version: 6.00 Build 0)  -->
<svg xmlns="http://www.w3.org/2000/svg" xmlns:xlink="http://www.w3.org/1999/xlink" version="1.1" id="Layer_1" x="0px" y="0px" viewBox="0 0 512 512" style="enable-background:new 0 0 512 512;" xml:space="preserve">
<g>
	<g>
		<path d="M495.301,88.625H99.35l-6.402-38.717c-1.332-8.06-8.302-13.972-16.472-13.972h-59.78C7.475,35.936,0,43.411,0,52.632    s7.475,16.696,16.696,16.696h45.618c11.129,67.291,41.048,248.222,42.014,254.066c1.332,8.06,8.302,13.972,16.472,13.972h338.892    c8.17,0,15.14-5.912,16.472-13.972l35.61-215.349C513.454,97.877,505.601,88.625,495.301,88.625z M445.528,303.974H134.961    l-30.089-181.958h370.746L445.528,303.974z"/>
	</g>
</g>
<g>
	<g>
		<path d="M212.391,359.626c-32.102,0-58.22,26.117-58.22,58.22c0,32.102,26.117,58.219,58.22,58.219    c32.102,0,58.22-26.116,58.22-58.219C270.61,385.743,244.493,359.626,212.391,359.626z M212.391,442.672    c-13.69,0-24.828-11.137-24.828-24.827c0-13.69,11.138-24.829,24.828-24.829c13.69,0,24.829,11.138,24.829,24.829    S226.081,442.672,212.391,442.672z"/>
	</g>
</g>
<g>
	<g>
		<path d="M370.042,359.626c-32.102,0-58.22,26.117-58.22,58.22c0,32.102,26.117,58.219,58.22,58.219    c32.102,0,58.218-26.116,58.218-58.219C428.261,385.743,402.144,359.626,370.042,359.626z M370.042,442.672    c-13.69,0-24.829-11.137-24.829-24.827c0-13.69,11.138-24.829,24.829-24.829s24.827,11.138,24.827,24.829    S383.733,442.672,370.042,442.672z"/>
	</g>
</g>
<g>
	<g>
		<path d="M290.245,158.926c-9.22,0-16.696,7.475-16.696,16.696v74.747c0,9.22,7.474,16.695,16.696,16.695    c9.22,0,16.696-7.475,16.696-16.696v-74.747C306.941,166.401,299.466,158.926,290.245,158.926z"/>
	</g>
</g>
<g>
	<g>
		<path d="M212.391,158.926c-9.22,0-16.696,7.475-16.696,16.696v74.747c0,9.22,7.475,16.695,16.696,16.695    s16.696-7.475,16.696-16.696v-74.747C229.086,166.401,221.611,158.926,212.391,158.926z"/>
	</g>
</g>
<g>
	<g>
		<path d="M368.099,158.926c-9.22,0-16.696,7.475-16.696,16.696v74.747c0,9.22,7.475,16.695,16.696,16.695    c9.22,0,16.695-7.475,16.695-16.696v-74.747C384.794,166.401,377.319,158.926,368.099,158.926z"/>
	</g>
</g>
<g>
</g>
<g>
</g>
<g>
</g>
<g>
</g>
<g>
</g>
<g>
</g>
<g>
</g>
<g>
</g>
<g>
</g>
<g>
</g>
<g>
</g>
<g>
</g>
<g>
</g>
<g>
</g>
<g>
</g>
</svg>
