<?xml version="1.0" encoding="iso-8859-1"?>
<!-- Generator: Adobe Illustrator 19.0.0, SVG Export Plug-In . SVG Version: 6.00 Build 0)  -->
<svg xmlns="http://www.w3.org/2000/svg" xmlns:xlink="http://www.w3.org/1999/xlink" version="1.1" id="Layer_1" x="0px" y="0px" viewBox="0 0 512 512" style="enable-background:new 0 0 512 512;" xml:space="preserve">
<g>
	<g>
		<path d="M504.518,379.464L311.853,226.198c-7.834-6.235-19.104-5.596-26.181,1.486l-15.095,15.095l-11.228-11.229    c42.9-56.524,38.583-137.689-12.969-189.241c-56.406-56.407-147.708-56.416-204.121,0c-56.276,56.276-56.276,147.843,0,204.119    c51.517,51.517,132.661,55.915,189.243,12.97l11.228,11.229l-15.095,15.095c-7.081,7.081-7.72,18.347-1.486,26.181    l153.267,192.665c7.33,9.218,21.035,9.962,29.333,1.666l97.435-97.435C514.487,400.495,513.721,386.784,504.518,379.464z     M218.532,218.58c-40.922,40.921-107.505,40.921-148.426,0c-40.921-40.921-40.921-107.505,0-148.425    c41.016-41.018,107.405-41.022,148.425,0C259.451,111.075,259.451,177.66,218.532,218.58z M396.501,462.785L267.911,301.14    l33.181-33.181l161.645,128.59L396.501,462.785z"/>
	</g>
</g>
<g>
	<g>
		<path d="M186.526,124.676h-84.416c-10.875,0-19.691,8.816-19.691,19.691s8.816,19.691,19.691,19.691h84.416    c10.875,0,19.691-8.816,19.691-19.691S197.401,124.676,186.526,124.676z"/>
	</g>
</g>
<g>
</g>
<g>
</g>
<g>
</g>
<g>
</g>
<g>
</g>
<g>
</g>
<g>
</g>
<g>
</g>
<g>
</g>
<g>
</g>
<g>
</g>
<g>
</g>
<g>
</g>
<g>
</g>
<g>
</g>
</svg>
