<?xml version="1.0" encoding="iso-8859-1"?>
<!-- Generator: Adobe Illustrator 19.0.0, SVG Export Plug-In . SVG Version: 6.00 Build 0)  -->
<svg xmlns="http://www.w3.org/2000/svg" xmlns:xlink="http://www.w3.org/1999/xlink" version="1.1" id="Layer_1" x="0px" y="0px" viewBox="0 0 512.001 512.001" style="enable-background:new 0 0 512.001 512.001;" xml:space="preserve">
<g>
	<g>
		<path d="M504.569,379.439L311.866,226.142c-7.837-6.235-19.105-5.595-26.188,1.486l-15.098,15.098l-11.23-11.23    c42.909-56.535,38.592-137.717-12.972-189.28c-56.287-56.288-147.874-56.288-204.16,0c-56.288,56.287-56.288,147.874,0,204.16    c51.513,51.514,132.673,55.937,189.28,12.972l11.23,11.23l-15.098,15.098c-7.082,7.082-7.722,18.35-1.486,26.188L379.44,504.568    c7.334,9.219,21.041,9.964,29.339,1.665l97.454-97.454C514.541,400.471,513.772,386.761,504.569,379.439z M218.525,218.524    c-40.929,40.929-107.525,40.929-148.455,0c-40.929-40.929-40.929-107.526,0-148.455c40.93-40.929,107.525-40.93,148.455,0    C259.454,110.997,259.454,177.595,218.525,218.524z M396.529,462.776L267.912,301.098l33.187-33.187l161.678,128.617    L396.529,462.776z"/>
	</g>
</g>
<g>
	<g>
		<path d="M186.514,124.601h-22.521v-22.522c0-10.877-8.818-19.695-19.695-19.695s-19.695,8.818-19.695,19.695V124.6h-22.522    c-10.877,0-19.695,8.818-19.695,19.695s8.818,19.695,19.695,19.695h22.521v22.521c0,10.877,8.818,19.695,19.695,19.695    c10.877,0,19.695-8.818,19.695-19.695V163.99h22.521c10.877,0,19.695-8.818,19.695-19.695S197.391,124.601,186.514,124.601z"/>
	</g>
</g>
<g>
</g>
<g>
</g>
<g>
</g>
<g>
</g>
<g>
</g>
<g>
</g>
<g>
</g>
<g>
</g>
<g>
</g>
<g>
</g>
<g>
</g>
<g>
</g>
<g>
</g>
<g>
</g>
<g>
</g>
</svg>
