<?xml version="1.0" encoding="iso-8859-1"?>
<!-- Generator: Adobe Illustrator 19.0.0, SVG Export Plug-In . SVG Version: 6.00 Build 0)  -->
<svg xmlns="http://www.w3.org/2000/svg" xmlns:xlink="http://www.w3.org/1999/xlink" version="1.1" id="Layer_1" x="0px" y="0px" viewBox="0 0 512 512" style="enable-background:new 0 0 512 512;" xml:space="preserve">
<g>
	<g>
		<path d="M256,0C114.509,0,0,114.497,0,256c0,141.491,114.497,256,256,256c141.491,0,256-114.497,256-256    C512,114.509,397.503,0,256,0z M141.675,65.924l56.499,112.602c-7.45,5.575-14.073,12.198-19.648,19.648L65.924,141.676    C84.629,110.692,110.692,84.629,141.675,65.924z M256,193.422c34.505,0,62.578,28.072,62.578,62.578S290.505,318.578,256,318.578    S193.422,290.505,193.422,256S221.495,193.422,256,193.422z M256,477.867c-122.337,0-221.867-99.529-221.867-221.867    c0-29.649,5.861-57.95,16.46-83.828l112.647,56.521c-2.555,8.665-3.952,17.824-3.952,27.307c0,53.326,43.385,96.711,96.711,96.711    c53.327,0,96.711-43.385,96.711-96.711S309.326,159.289,256,159.289c-9.482,0-18.641,1.396-27.307,3.952l-56.52-112.647    c25.876-10.6,54.179-16.46,83.827-16.46c122.337,0,221.867,99.529,221.867,221.867S378.337,477.867,256,477.867z"/>
	</g>
</g>
<g>
</g>
<g>
</g>
<g>
</g>
<g>
</g>
<g>
</g>
<g>
</g>
<g>
</g>
<g>
</g>
<g>
</g>
<g>
</g>
<g>
</g>
<g>
</g>
<g>
</g>
<g>
</g>
<g>
</g>
</svg>
