<?xml version="1.0" encoding="iso-8859-1"?>
<!-- Generator: Adobe Illustrator 19.0.0, SVG Export Plug-In . SVG Version: 6.00 Build 0)  -->
<svg xmlns="http://www.w3.org/2000/svg" xmlns:xlink="http://www.w3.org/1999/xlink" version="1.1" id="Layer_1" x="0px" y="0px" viewBox="0 0 512 512" style="enable-background:new 0 0 512 512;" xml:space="preserve">
<g>
	<g>
		<path d="M498.642,13.289C482.4-2.954,455.506-4.312,418.71,9.245c-27.981,10.31-62.119,29.449-99.134,55.538    c-70.081-23.191-150.462-6.971-206.123,48.687c-55.66,55.66-71.88,136.042-48.688,206.124    c-32.461,46.057-91.111,139.45-51.493,179.065c31.136,31.136,93.895,0.947,132.243-21.284    c15.036-8.717,30.727-18.855,46.834-30.206c70.66,23.379,150.855,6.565,206.112-48.691    c55.657-55.657,71.879-136.033,48.691-206.112c11.351-16.107,21.489-31.798,30.206-46.834    C514.744,81.045,521.904,36.552,498.642,13.289z M127.601,446.474c-53.874,31.233-82.786,33.215-89.071,26.929    c-3.837-3.837-5.036-17.225,4.215-42.326c7.659-20.785,21.079-45.808,39.242-73.346c17.412,29.784,42.411,54.794,72.237,72.228    C145.144,435.935,136.253,441.459,127.601,446.474z M187.179,406.848c-105.216-47.828-130.009-186.581-48.47-268.122    c81.546-81.545,220.299-56.738,268.123,48.47c-28.224,38.045-63.162,78.211-102.302,117.351    C265.391,343.686,225.224,378.623,187.179,406.848z M373.205,373.222c-39.111,39.109-93.057,54.55-143.892,46.341    c33.109-26.089,67.205-56.493,100.472-89.76c33.267-33.267,63.672-67.364,89.762-100.473    C427.757,280.165,412.316,334.111,373.205,373.222z M446.457,127.619c-5.016,8.652-10.539,17.543-16.516,26.62    c-17.411-29.788-42.404-54.8-72.228-72.236c27.539-18.162,52.561-31.583,73.346-39.243c25.099-9.25,38.487-8.052,42.326-4.215    C479.674,44.833,477.691,73.743,446.457,127.619z"/>
	</g>
</g>
<g>
</g>
<g>
</g>
<g>
</g>
<g>
</g>
<g>
</g>
<g>
</g>
<g>
</g>
<g>
</g>
<g>
</g>
<g>
</g>
<g>
</g>
<g>
</g>
<g>
</g>
<g>
</g>
<g>
</g>
</svg>
