<?xml version="1.0" encoding="iso-8859-1"?>
<!-- Generator: Adobe Illustrator 19.0.0, SVG Export Plug-In . SVG Version: 6.00 Build 0)  -->
<svg xmlns="http://www.w3.org/2000/svg" xmlns:xlink="http://www.w3.org/1999/xlink" version="1.1" id="Layer_1" x="0px" y="0px" viewBox="0 0 512 512" style="enable-background:new 0 0 512 512;" xml:space="preserve">
<g>
	<g>
		<path d="M422.957,0H89.044c-9.22,0-16.696,7.475-16.696,16.696v478.609c0,9.22,7.475,16.696,16.696,16.696h333.913    c9.22,0,16.696-7.475,16.696-16.696V16.696C439.652,7.475,432.177,0,422.957,0z M406.261,478.609H105.739V33.391h300.522V478.609z    "/>
	</g>
</g>
<g>
	<g>
		<path d="M345.71,256.699c0-38.134-29.056-74.725-81.817-103.033c-4.931-2.645-10.857-2.645-15.787,0    c-52.759,28.308-81.815,64.899-81.815,103.033c0,40.809,33.476,71.621,73.013,57.4v12.829h-16.108    c-9.22,0-16.696,7.475-16.696,16.696s7.475,16.696,16.696,16.696h65.608c9.22,0,16.696-7.475,16.696-16.696    s-7.475-16.696-16.696-16.696h-16.109v-12.829C312.248,328.327,345.71,297.493,345.71,256.699z M270.157,272.13    c-2.995-5.096-8.24-8.227-14.157-8.227s-11.16,3.131-14.157,8.227c-13.471,19.8-42.161,15.401-42.161-15.432    c0-23.234,20.399-48.161,56.318-69.187c35.919,21.025,56.319,45.953,56.319,69.187    C312.319,286.924,283.992,292.452,270.157,272.13z"/>
	</g>
</g>
<g>
</g>
<g>
</g>
<g>
</g>
<g>
</g>
<g>
</g>
<g>
</g>
<g>
</g>
<g>
</g>
<g>
</g>
<g>
</g>
<g>
</g>
<g>
</g>
<g>
</g>
<g>
</g>
<g>
</g>
</svg>
