<?xml version="1.0" encoding="iso-8859-1"?>
<!-- Generator: Adobe Illustrator 19.0.0, SVG Export Plug-In . SVG Version: 6.00 Build 0)  -->
<svg xmlns="http://www.w3.org/2000/svg" xmlns:xlink="http://www.w3.org/1999/xlink" version="1.1" id="Layer_1" x="0px" y="0px" viewBox="0 0 512 512" style="enable-background:new 0 0 512 512;" xml:space="preserve">
<g>
	<g>
		<path d="M494.14,83.349H17.86C7.997,83.349,0,91.346,0,101.209v309.581c0,9.864,7.997,17.86,17.86,17.86H494.14    c9.864,0,17.86-7.997,17.86-17.86V101.209C512,91.346,504.003,83.349,494.14,83.349z M238.14,225.066l-76.4-44.109    c-11.9-6.871-26.791,1.748-26.791,15.467v119.153c0,13.83,14.992,22.28,26.791,15.467l76.4-44.109V392.93H35.721V119.07H238.14    V225.066z M220.279,256l-49.609,28.642v-57.283L220.279,256z M476.279,392.93H273.86V286.934l76.4,44.109    c11.875,6.857,26.791-1.71,26.791-15.467V196.423c0-13.738-14.906-22.329-26.791-15.467l-76.4,44.109V119.07h202.419V392.93z     M291.721,256l49.609-28.642v57.283L291.721,256z"/>
	</g>
</g>
<g>
</g>
<g>
</g>
<g>
</g>
<g>
</g>
<g>
</g>
<g>
</g>
<g>
</g>
<g>
</g>
<g>
</g>
<g>
</g>
<g>
</g>
<g>
</g>
<g>
</g>
<g>
</g>
<g>
</g>
</svg>
