<?xml version="1.0" encoding="iso-8859-1"?>
<!-- Generator: Adobe Illustrator 19.0.0, SVG Export Plug-In . SVG Version: 6.00 Build 0)  -->
<svg xmlns="http://www.w3.org/2000/svg" xmlns:xlink="http://www.w3.org/1999/xlink" version="1.1" id="Layer_1" x="0px" y="0px" viewBox="0 0 511.999 511.999" style="enable-background:new 0 0 511.999 511.999;" xml:space="preserve">
<g>
	<g>
		<path d="M399.244,220.439L291.563,112.758c-6.974-6.975-18.283-6.975-25.258,0L112.756,266.306    c-6.975,6.975-6.975,18.283,0,25.258l107.681,107.681c6.974,6.975,18.283,6.976,25.258,0l153.548-153.548    C406.219,238.722,406.219,227.414,399.244,220.439z M233.067,361.356l-82.423-82.421l128.29-128.29l82.423,82.422L233.067,361.356    z"/>
	</g>
</g>
<g>
	<g>
		<path d="M506.77,184.699l-54.578-54.577c-7.113-7.112-18.754-6.964-25.669,0.424l-0.242,0.26c-0.16,0.171-0.317,0.344-0.482,0.511    c-12.468,12.467-32.644,12.468-45.113,0c-12.437-12.438-12.437-32.675,0.019-45.132c0.164-0.164,0.336-0.319,0.505-0.475    l0.238-0.223c7.372-6.891,7.575-18.533,0.432-25.677L327.302,5.232c-6.974-6.975-18.283-6.975-25.258,0L5.231,302.044    c-6.975,6.975-6.975,18.283,0,25.258L59.78,381.85c6.97,6.972,18.286,6.974,25.258,0c12.468-12.467,32.645-12.469,45.114,0    c12.468,12.468,12.467,32.645,0,45.112c-6.97,6.969-6.975,18.284,0,25.258l54.548,54.548c6.97,6.972,18.286,6.974,25.258,0    l296.812-296.812C513.739,202.989,513.745,191.674,506.77,184.699z M197.328,468.882l-30.965-30.965    c14.511-25.356,11.435-58.936-10.953-81.324c-22.313-22.313-55.88-25.517-81.325-10.953l-30.967-30.967L314.673,43.12    l30.665,30.664c-15.43,25.446-12.804,59.898,10.09,82.791c22.895,22.897,57.351,25.517,82.789,10.09l30.665,30.664    L197.328,468.882z"/>
	</g>
</g>
<g>
</g>
<g>
</g>
<g>
</g>
<g>
</g>
<g>
</g>
<g>
</g>
<g>
</g>
<g>
</g>
<g>
</g>
<g>
</g>
<g>
</g>
<g>
</g>
<g>
</g>
<g>
</g>
<g>
</g>
</svg>
