<?xml version="1.0" encoding="iso-8859-1"?>
<!-- Generator: Adobe Illustrator 19.0.0, SVG Export Plug-In . SVG Version: 6.00 Build 0)  -->
<svg xmlns="http://www.w3.org/2000/svg" xmlns:xlink="http://www.w3.org/1999/xlink" version="1.1" id="Layer_1" x="0px" y="0px" viewBox="0 0 512 512" style="enable-background:new 0 0 512 512;" xml:space="preserve">
<g>
	<g>
		<path d="M469.946,263.111c-7.221-7.203-16.203-11.588-25.569-13.185V138.541c0-4.305-1.723-8.645-4.892-11.813L317.649,4.891    C314.511,1.751,310.176,0,305.836,0H44.795C35.575,0,28.1,7.475,28.1,16.696v478.609c0,9.22,7.475,16.696,16.696,16.696h382.887    c9.22,0,16.696-7.475,16.696-16.696V355.977l25.584-25.584C488.577,311.778,488.521,281.652,469.946,263.111z M322.54,57.01    l64.828,64.828H322.54V57.01z M410.987,478.609H61.491V33.391h227.657v105.141c0,9.22,7.475,16.696,16.696,16.696h105.143v101.28    c-6.319,3.962-8.756,7.075-31.893,30.209c-0.012,0.012-0.027,0.023-0.039,0.036c-0.012,0.012-0.023,0.027-0.035,0.039    l-96.764,96.755c-2.542,2.542-4.197,5.839-4.715,9.397l-7.401,50.766c-1.355,9.288,5.134,19.078,17.74,19.132    c0.03,0,0.061,0.001,0.091,0.001c2.855,0,5.956-0.57,52.163-7.305c3.558-0.519,6.855-2.173,9.397-4.716l61.455-61.454V478.609z     M410.911,342.222l-81.075,81.074c-9.602,1.4-22.431,3.279-23.477,3.433l3.424-23.486l81.079-81.071L410.911,342.222z     M446.351,306.781l-11.829,11.829l-20.049-20.049l11.824-11.823c0.006-0.006,0.012-0.011,0.019-0.017    c5.475-5.447,14.46-5.544,20.047,0.027C451.841,292.22,451.923,301.206,446.351,306.781z"/>
	</g>
</g>
<g>
</g>
<g>
</g>
<g>
</g>
<g>
</g>
<g>
</g>
<g>
</g>
<g>
</g>
<g>
</g>
<g>
</g>
<g>
</g>
<g>
</g>
<g>
</g>
<g>
</g>
<g>
</g>
<g>
</g>
</svg>
