<?xml version="1.0" encoding="iso-8859-1"?>
<!-- Generator: Adobe Illustrator 19.0.0, SVG Export Plug-In . SVG Version: 6.00 Build 0)  -->
<svg xmlns="http://www.w3.org/2000/svg" xmlns:xlink="http://www.w3.org/1999/xlink" version="1.1" id="Layer_1" x="0px" y="0px" viewBox="0 0 512 512" style="enable-background:new 0 0 512 512;" xml:space="preserve">
<g>
	<g>
		<path d="M494.14,286.865h-20.016c0-14.553,0-213.379,0-222.509c0-9.864-7.997-17.86-17.86-17.86H55.737    c-9.864,0-17.86,7.997-17.86,17.86c0,9.177,0,208.035,0,222.509H17.86c-9.864,0-17.86,7.997-17.86,17.86v142.918    c0,9.864,7.997,17.86,17.86,17.86H494.14c9.864,0,17.86-7.997,17.86-17.86V304.726C512,294.862,504.003,286.865,494.14,286.865z     M73.597,82.216h364.806v84.468H73.597V82.216z M438.403,202.406v84.456H273.706v-84.456H438.403z M237.985,429.784H35.721    V322.586h202.264V429.784z M237.985,286.862H73.597v-84.456h164.388V286.862z M476.279,429.784H273.706V322.586h202.573V429.784z"/>
	</g>
</g>
<g>
</g>
<g>
</g>
<g>
</g>
<g>
</g>
<g>
</g>
<g>
</g>
<g>
</g>
<g>
</g>
<g>
</g>
<g>
</g>
<g>
</g>
<g>
</g>
<g>
</g>
<g>
</g>
<g>
</g>
</svg>
