<?xml version="1.0" encoding="iso-8859-1"?>
<!-- Generator: Adobe Illustrator 19.0.0, SVG Export Plug-In . SVG Version: 6.00 Build 0)  -->
<svg xmlns="http://www.w3.org/2000/svg" xmlns:xlink="http://www.w3.org/1999/xlink" version="1.1" id="Layer_1" x="0px" y="0px" viewBox="0 0 512 512" style="enable-background:new 0 0 512 512;" xml:space="preserve">
<g>
	<g>
		<path d="M404.687,105.808H107.313c-9.025,0-16.341,7.316-16.341,16.341c0,10.792,0,256.486,0,267.701    c0,9.025,7.316,16.341,16.341,16.341h297.375c9.025,0,16.341-7.316,16.341-16.341c0-11.308,0-256.949,0-267.701    C421.028,113.125,413.712,105.808,404.687,105.808z M239.772,373.509H123.654v-56.551h116.118V373.509z M239.772,284.277H123.654    v-56.552h116.118V284.277z M388.346,373.509H272.453v-56.551h115.892V373.509z M388.346,284.277H272.453v-56.552h115.892V284.277z     M388.347,195.042H123.654V138.49h264.692V195.042z"/>
	</g>
</g>
<g>
	<g>
		<path d="M54.093,259.946L8.16,286.466c-10.888,6.286-10.871,22.027,0,28.303l45.934,26.519    c10.804,6.239,24.512-1.496,24.512-14.151v-53.04C78.605,261.525,64.962,253.67,54.093,259.946z"/>
	</g>
</g>
<g>
	<g>
		<path d="M503.84,286.466l-45.934-26.519c-10.889-6.287-24.512,1.6-24.512,14.151v53.04c0,12.559,13.638,20.431,24.512,14.151    l45.934-26.519C514.728,308.484,514.711,292.742,503.84,286.466z"/>
	</g>
</g>
<g>
</g>
<g>
</g>
<g>
</g>
<g>
</g>
<g>
</g>
<g>
</g>
<g>
</g>
<g>
</g>
<g>
</g>
<g>
</g>
<g>
</g>
<g>
</g>
<g>
</g>
<g>
</g>
<g>
</g>
</svg>
