<?xml version="1.0" encoding="iso-8859-1"?>
<!-- Generator: Adobe Illustrator 19.0.0, SVG Export Plug-In . SVG Version: 6.00 Build 0)  -->
<svg xmlns="http://www.w3.org/2000/svg" xmlns:xlink="http://www.w3.org/1999/xlink" version="1.1" id="Layer_1" x="0px" y="0px" viewBox="0 0 511.999 511.999" style="enable-background:new 0 0 511.999 511.999;" xml:space="preserve">
<g>
	<g>
		<path d="M493.715,0.012H293.541c-10.098,0-18.285,8.187-18.285,18.285v81.797H18.285C8.187,100.093,0,108.28,0,118.378v375.324    c0,10.098,8.187,18.285,18.285,18.285h375.337c10.098,0,18.285-8.187,18.285-18.285V236.755h81.808    c10.098,0,18.285-8.187,18.285-18.285V18.296C512,8.198,503.813,0.012,493.715,0.012z M375.338,475.418h-0.001H36.57V136.662    h238.687v74.235l-57.038,57.039l-21.118-21.118c-9.948-9.948-26.957-5.368-30.591,8.196l-24.923,93.016    c-3.608,13.466,8.723,26.053,22.394,22.394l93.016-24.923c13.588-3.64,18.129-20.659,8.198-30.591l-21.118-21.117l57.038-57.038    h74.223V475.418z M475.43,200.186c-7.168,0-156.409,0-163.604,0v-81.809V36.581H475.43V200.186z"/>
	</g>
</g>
<g>
</g>
<g>
</g>
<g>
</g>
<g>
</g>
<g>
</g>
<g>
</g>
<g>
</g>
<g>
</g>
<g>
</g>
<g>
</g>
<g>
</g>
<g>
</g>
<g>
</g>
<g>
</g>
<g>
</g>
</svg>
