<?xml version="1.0" encoding="iso-8859-1"?>
<!-- Generator: Adobe Illustrator 19.0.0, SVG Export Plug-In . SVG Version: 6.00 Build 0)  -->
<svg xmlns="http://www.w3.org/2000/svg" xmlns:xlink="http://www.w3.org/1999/xlink" version="1.1" id="Layer_1" x="0px" y="0px" viewBox="0 0 512 512" style="enable-background:new 0 0 512 512;" xml:space="preserve">
<g>
	<g>
		<path d="M493.715,0.012h-200.17c-10.098,0-18.285,8.187-18.285,18.285v81.794H18.285C8.187,100.091,0,108.278,0,118.376v375.327    c0,10.098,8.187,18.285,18.285,18.285h375.339c10.098,0,18.285-8.187,18.285-18.285V336.832h81.806    c10.098,0,18.285-8.187,18.285-18.285V18.297C512,8.199,503.813,0.012,493.715,0.012z M36.57,475.418V136.661h238.69v74.232    l-94.57,94.572l-14.981-14.981c-9.951-9.949-26.957-5.37-30.591,8.198l-20.431,76.251c-3.663,13.669,8.907,26.008,22.394,22.394    l76.251-20.431c13.591-3.644,18.128-20.662,8.196-30.592l-14.981-14.981l68.712-68.712v55.939    c0,10.098,8.187,18.285,18.285,18.285h81.794v138.584H36.57z M475.43,300.263c-7.168,0-156.405,0-163.601,0    c0-11.451,0-252.103,0-263.681H475.43V300.263z"/>
	</g>
</g>
<g>
</g>
<g>
</g>
<g>
</g>
<g>
</g>
<g>
</g>
<g>
</g>
<g>
</g>
<g>
</g>
<g>
</g>
<g>
</g>
<g>
</g>
<g>
</g>
<g>
</g>
<g>
</g>
<g>
</g>
</svg>
