<?xml version="1.0" encoding="iso-8859-1"?>
<!-- Generator: Adobe Illustrator 19.0.0, SVG Export Plug-In . SVG Version: 6.00 Build 0)  -->
<svg xmlns="http://www.w3.org/2000/svg" xmlns:xlink="http://www.w3.org/1999/xlink" version="1.1" id="Layer_1" x="0px" y="0px" viewBox="0 0 512 512" style="enable-background:new 0 0 512 512;" xml:space="preserve">
<g>
	<g>
		<path d="M495.343,45.596c-7.07,0-263.151,0-273.519,0c-9.199,0-16.657,7.458-16.657,16.657V91.18H16.657    C7.458,91.18,0,98.638,0,107.837v341.911c0,9.199,7.458,16.657,16.657,16.657h341.922c9.199,0,16.657-7.458,16.657-16.657v-188.49    c13.237,0,106.421,0,120.107,0c9.199,0,16.657-7.458,16.657-16.657V62.252C512,53.053,504.542,45.596,495.343,45.596z     M238.482,78.909h57.856v149.035h-57.856C238.482,226.38,238.482,80.483,238.482,78.909z M341.923,433.091h-0.001H33.314V124.494    h171.855v113.207l-40.566,40.566l-13.648-13.648c-9.059-9.059-24.555-4.894-27.868,7.467l-18.612,69.463    c-3.286,12.263,7.941,23.739,20.4,20.4l69.463-18.612c12.379-3.316,16.516-18.821,7.468-27.867l-13.646-13.648l40.565-40.565    c12.383,0,100.556,0,113.199,0V433.091z M387.506,227.944c-16.738,0-41.116,0-57.855,0V78.909h57.855V227.944z M478.686,227.944    H420.82V78.909h57.866V227.944z"/>
	</g>
</g>
<g>
</g>
<g>
</g>
<g>
</g>
<g>
</g>
<g>
</g>
<g>
</g>
<g>
</g>
<g>
</g>
<g>
</g>
<g>
</g>
<g>
</g>
<g>
</g>
<g>
</g>
<g>
</g>
<g>
</g>
</svg>
