<?xml version="1.0" encoding="iso-8859-1"?>
<!-- Generator: Adobe Illustrator 19.0.0, SVG Export Plug-In . SVG Version: 6.00 Build 0)  -->
<svg xmlns="http://www.w3.org/2000/svg" xmlns:xlink="http://www.w3.org/1999/xlink" version="1.1" id="Layer_1" x="0px" y="0px" viewBox="0 0 512 512" style="enable-background:new 0 0 512 512;" xml:space="preserve">
<g>
	<g>
		<path d="M493.715,0.012H293.541c-10.098,0-18.285,8.187-18.285,18.285v81.794H18.285C8.187,100.091,0,108.278,0,118.376v375.327    c0,10.098,8.187,18.285,18.285,18.285h375.339c10.098,0,18.285-8.187,18.285-18.285V336.831h81.806    c10.098,0,18.285-8.187,18.285-18.285c0-10.42,0-287.532,0-300.249C512,8.199,503.813,0.012,493.715,0.012z M311.826,36.582    c0,0,163.604,0,163.604,0v63.509H311.826V36.582z M36.57,475.418V136.661h238.69v74.23l-94.572,94.572l-14.981-14.981    c-9.946-9.946-26.956-5.373-30.591,8.196l-20.431,76.251c-3.695,13.789,9.002,25.979,22.394,22.394l76.251-20.431    c13.589-3.641,18.128-20.661,8.196-30.591l-14.981-14.981l68.713-68.713v55.939c0,10.098,8.187,18.285,18.285,18.285h81.794    v138.587H36.57z M475.43,300.262c-7.168,0-156.405,0-163.601,0V236.74H475.43V300.262z M475.43,200.17H311.83v-63.507H475.43    V200.17z"/>
	</g>
</g>
<g>
</g>
<g>
</g>
<g>
</g>
<g>
</g>
<g>
</g>
<g>
</g>
<g>
</g>
<g>
</g>
<g>
</g>
<g>
</g>
<g>
</g>
<g>
</g>
<g>
</g>
<g>
</g>
<g>
</g>
</svg>
