<?xml version="1.0" encoding="iso-8859-1"?>
<!-- Generator: Adobe Illustrator 19.0.0, SVG Export Plug-In . SVG Version: 6.00 Build 0)  -->
<svg xmlns="http://www.w3.org/2000/svg" xmlns:xlink="http://www.w3.org/1999/xlink" version="1.1" id="Layer_1" x="0px" y="0px" viewBox="0 0 512 512" style="enable-background:new 0 0 512 512;" xml:space="preserve">
<g>
	<g>
		<path d="M493.268,23.676H18.732C8.387,23.676,0,32.062,0,42.407c0,6.33,0,420.946,0,427.185c0,10.345,8.387,18.732,18.732,18.732    h474.537c10.345,0,18.732-8.387,18.732-18.732c0-6.215,0-420.842,0-427.185C512,32.062,503.613,23.676,493.268,23.676z     M237.448,450.861H37.463v-104.93h199.985V450.861z M237.448,308.466H37.463V203.534h199.985V308.466z M474.537,450.861H274.911    v-104.93h199.625V450.861z M474.537,308.466H274.911V203.534h199.625V308.466z M474.537,166.07H37.463V61.139h437.073V166.07z"/>
	</g>
</g>
<g>
</g>
<g>
</g>
<g>
</g>
<g>
</g>
<g>
</g>
<g>
</g>
<g>
</g>
<g>
</g>
<g>
</g>
<g>
</g>
<g>
</g>
<g>
</g>
<g>
</g>
<g>
</g>
<g>
</g>
</svg>
