<?xml version="1.0" encoding="iso-8859-1"?>
<!-- Generator: Adobe Illustrator 19.0.0, SVG Export Plug-In . SVG Version: 6.00 Build 0)  -->
<svg xmlns="http://www.w3.org/2000/svg" xmlns:xlink="http://www.w3.org/1999/xlink" version="1.1" id="Layer_1" x="0px" y="0px" viewBox="0 0 511.999 511.999" style="enable-background:new 0 0 511.999 511.999;" xml:space="preserve">
<g>
	<g>
		<path d="M493.715,0.211H293.541c-10.098,0-18.285,8.187-18.285,18.285c0,8.609,0,72.125,0,81.397H18.285    C8.187,99.893,0,108.08,0,118.178v375.325c0,10.098,8.187,18.285,18.285,18.285h375.337c10.098,0,18.285-8.187,18.285-18.285    V236.558h81.808c10.098,0,18.285-8.187,18.285-18.285c0-8.192,0-191.715,0-199.775C512,8.398,503.813,0.211,493.715,0.211z     M311.825,169.833h63.512v30.155h-63.512V169.833z M375.338,475.219h-0.001H36.57V136.464h238.687v14.966    c0,0.04-0.006,0.078-0.006,0.118s0.006,0.078,0.006,0.118v59.031l-94.567,94.568l-14.981-14.981    c-9.943-9.943-26.953-5.377-30.592,8.198l-20.431,76.249c-3.592,13.425,8.679,26.08,22.394,22.394l76.251-20.431    c13.587-3.641,18.132-20.658,8.198-30.592l-14.98-14.98l94.564-94.564h74.226V475.219z M375.338,133.262h-63.512    c0-11.077,0-19.141,0-29.756h63.512V133.262z M475.429,199.988h-63.523v-30.155h63.523V199.988z M475.429,133.262h-63.523v-29.756    h63.523V133.262z M475.43,66.936H311.826V36.781H475.43V66.936z"/>
	</g>
</g>
<g>
</g>
<g>
</g>
<g>
</g>
<g>
</g>
<g>
</g>
<g>
</g>
<g>
</g>
<g>
</g>
<g>
</g>
<g>
</g>
<g>
</g>
<g>
</g>
<g>
</g>
<g>
</g>
<g>
</g>
</svg>
