<?xml version="1.0" encoding="iso-8859-1"?>
<!-- Generator: Adobe Illustrator 19.0.0, SVG Export Plug-In . SVG Version: 6.00 Build 0)  -->
<svg xmlns="http://www.w3.org/2000/svg" xmlns:xlink="http://www.w3.org/1999/xlink" version="1.1" id="Layer_1" x="0px" y="0px" viewBox="0 0 512 512" style="enable-background:new 0 0 512 512;" xml:space="preserve">
<g>
	<g>
		<path d="M404.68,105.815H107.32c-9.024,0-16.34,7.316-16.34,16.34c0,10.791,0,256.475,0,267.689c0,9.024,7.316,16.34,16.34,16.34    h297.362c9.024,0,16.34-7.316,16.34-16.34c0-11.308,0-256.937,0-267.689C421.021,113.131,413.706,105.815,404.68,105.815z     M239.773,373.504H123.66v-56.548h116.113V373.504z M239.773,284.275H123.66v-56.55h116.113V284.275z M388.341,373.504H272.454    v-56.548h115.887V373.504z M388.341,284.275H272.454v-56.55h115.887V284.275z M388.341,195.045H123.66v-56.549h264.681V195.045z"/>
	</g>
</g>
<g>
	<g>
		<path d="M70.443,286.465l-45.932-26.519C13.624,253.659,0,261.545,0,274.097v53.038c0,12.652,13.715,20.385,24.511,14.151    l45.932-26.518C81.332,308.479,81.311,292.741,70.443,286.465z"/>
	</g>
</g>
<g>
	<g>
		<path d="M487.489,259.946l-45.932,26.519c-10.887,6.287-10.871,22.025,0,28.302l45.932,26.518    C498.354,347.559,512,339.72,512,327.134v-53.038C512,261.525,498.359,253.669,487.489,259.946z"/>
	</g>
</g>
<g>
</g>
<g>
</g>
<g>
</g>
<g>
</g>
<g>
</g>
<g>
</g>
<g>
</g>
<g>
</g>
<g>
</g>
<g>
</g>
<g>
</g>
<g>
</g>
<g>
</g>
<g>
</g>
<g>
</g>
</svg>
