<?xml version="1.0" encoding="iso-8859-1"?>
<!-- Generator: Adobe Illustrator 19.0.0, SVG Export Plug-In . SVG Version: 6.00 Build 0)  -->
<svg xmlns="http://www.w3.org/2000/svg" xmlns:xlink="http://www.w3.org/1999/xlink" version="1.1" id="Layer_1" x="0px" y="0px" viewBox="0 0 512 512" style="enable-background:new 0 0 512 512;" xml:space="preserve">
<g>
	<g>
		<path d="M494.409,132.882H353.055V44.914c0-9.715-7.876-17.591-17.591-17.591H17.59C7.876,27.323,0,35.199,0,44.914v316.614    c0,9.715,7.876,17.59,17.591,17.59h141.356v87.968c0,9.715,7.876,17.591,17.591,17.591h317.872    c9.715,0,17.591-7.876,17.591-17.591V150.472C512,140.758,504.124,132.882,494.409,132.882z M158.931,343.938H35.181v-70.356    h123.75V343.938z M158.931,238.4H35.181v-70.337h123.75V238.4z M158.931,132.882H35.181V62.504h123.75V132.882z M317.873,449.496    H194.128v-70.364h123.746V449.496z M317.873,343.938H194.128V168.063h123.746V343.938z M317.873,132.882H194.112V62.504h123.761    V132.882z M476.819,449.496H353.055v-70.364h123.764V449.496z M476.819,343.95H353.055V273.6h123.764V343.95z M476.819,238.419    H353.055v-70.356h123.764V238.419z"/>
	</g>
</g>
<g>
	<g>
		<path d="M288.556,179.79h-65.111c-9.715,0-17.591,7.876-17.591,17.591v117.241c0,9.715,7.875,17.591,17.591,17.591h65.111    c9.715,0,17.591-7.876,17.591-17.591V197.38C306.146,187.666,298.271,179.79,288.556,179.79z M270.965,297.03h-29.93v-82.06h29.93    V297.03z"/>
	</g>
</g>
<g>
</g>
<g>
</g>
<g>
</g>
<g>
</g>
<g>
</g>
<g>
</g>
<g>
</g>
<g>
</g>
<g>
</g>
<g>
</g>
<g>
</g>
<g>
</g>
<g>
</g>
<g>
</g>
<g>
</g>
</svg>
