<?xml version="1.0" encoding="iso-8859-1"?>
<!-- Generator: Adobe Illustrator 19.0.0, SVG Export Plug-In . SVG Version: 6.00 Build 0)  -->
<svg xmlns="http://www.w3.org/2000/svg" xmlns:xlink="http://www.w3.org/1999/xlink" version="1.1" id="Layer_1" x="0px" y="0px" viewBox="0 0 512 512" style="enable-background:new 0 0 512 512;" xml:space="preserve">
<g>
	<g>
		<path d="M494.409,132.882H353.055V44.914c0-9.715-7.876-17.591-17.591-17.591H17.59C7.876,27.323,0,35.199,0,44.914v316.615    c0,9.715,7.876,17.591,17.591,17.591h141.356v87.967c0,9.715,7.876,17.591,17.591,17.591h317.872    c9.715,0,17.591-7.876,17.591-17.591V150.472C512,140.756,504.124,132.882,494.409,132.882z M158.931,343.938H35.181v-70.357    h123.75V343.938z M158.931,238.4H35.181v-70.337h123.75V238.4z M158.931,132.881H35.181V62.504h123.75V132.881z M317.873,449.496    H194.128v-70.363h123.746V449.496z M317.873,343.938H194.128V168.063h123.746V343.938z M317.873,132.882H194.112V62.504h123.761    V132.882z M476.819,449.496H353.055v-70.363h123.764V449.496z M476.819,343.951H353.055v-70.35h123.764V343.951z M476.819,238.42    H353.055v-70.357h123.764V238.42z"/>
	</g>
</g>
<g>
</g>
<g>
</g>
<g>
</g>
<g>
</g>
<g>
</g>
<g>
</g>
<g>
</g>
<g>
</g>
<g>
</g>
<g>
</g>
<g>
</g>
<g>
</g>
<g>
</g>
<g>
</g>
<g>
</g>
</svg>
