<?xml version="1.0" encoding="iso-8859-1"?>
<!-- Generator: Adobe Illustrator 19.0.0, SVG Export Plug-In . SVG Version: 6.00 Build 0)  -->
<svg xmlns="http://www.w3.org/2000/svg" xmlns:xlink="http://www.w3.org/1999/xlink" version="1.1" id="Layer_1" x="0px" y="0px" viewBox="0 0 512 512" style="enable-background:new 0 0 512 512;" xml:space="preserve">
<g>
	<g>
		<path d="M497.079,254.87c-8.128-8.117-18.339-12.904-28.925-14.374c0-4.005-0.002-164.725-0.002-179.133    c0-9.864-7.997-17.86-17.86-17.86H17.861c-9.863,0-17.86,7.997-17.86,17.86v129.73c0,0.012-0.001,0.023-0.001,0.035    c0,3.058,0,256.569,0,259.511c0,9.863,7.997,17.86,17.86,17.86c4.191,0,427.792,0,432.434,0c9.863,0,17.86-7.997,17.86-17.86    v-94.869l28.933-28.933C516.995,306.928,516.951,274.704,497.079,254.87z M35.721,79.222H432.43v94.04H35.721V79.222z     M432.434,208.987v39.814c-5.179,3.537-2.881,1.641-55.467,54.228h-125.03v-94.041H432.434z M216.217,432.778H35.72v-94.029    h180.497V432.778z M216.217,303.027H35.72v-94.04h180.497V303.027z M291.246,393.755l-5.689,39.023h-33.621v-94.029h89.31    l-44.955,44.955C293.57,386.423,291.8,389.95,291.246,393.755z M432.434,432.778h-41.289l41.289-41.289V432.778z M347.193,426.215    l-25.115,3.664l3.66-25.108c10.273-10.273,73.151-73.151,86.732-86.732l21.449,21.449L347.193,426.215z M471.829,301.578    l-12.653,12.653l-21.449-21.449l12.647-12.647c5.894-5.894,15.544-5.904,21.467,0.012    C477.717,286.013,477.781,295.626,471.829,301.578z"/>
	</g>
</g>
<g>
</g>
<g>
</g>
<g>
</g>
<g>
</g>
<g>
</g>
<g>
</g>
<g>
</g>
<g>
</g>
<g>
</g>
<g>
</g>
<g>
</g>
<g>
</g>
<g>
</g>
<g>
</g>
<g>
</g>
</svg>
