<?xml version="1.0" encoding="iso-8859-1"?>
<!-- Generator: Adobe Illustrator 19.0.0, SVG Export Plug-In . SVG Version: 6.00 Build 0)  -->
<svg xmlns="http://www.w3.org/2000/svg" xmlns:xlink="http://www.w3.org/1999/xlink" version="1.1" id="Layer_1" x="0px" y="0px" viewBox="0 0 511.999 511.999" style="enable-background:new 0 0 511.999 511.999;" xml:space="preserve">
<g>
	<g>
		<path d="M493.715,0.012H293.541c-10.098,0-18.285,8.187-18.285,18.285v81.797H18.285C8.187,100.093,0,108.28,0,118.378v375.324    c0,10.098,8.187,18.285,18.285,18.285h375.337c10.098,0,18.285-8.187,18.285-18.285V236.755h81.808    c10.098,0,18.285-8.187,18.285-18.285V18.296C512,8.198,503.813,0.012,493.715,0.012z M36.57,475.418V136.662h238.687v74.232    l-94.568,94.568l-14.981-14.981c-9.945-9.947-26.954-5.372-30.592,8.196l-20.431,76.251c-3.59,13.398,8.646,26.077,22.394,22.394    l76.251-20.431c13.589-3.64,18.13-20.661,8.198-30.591l-14.981-14.981l94.564-94.564h74.225v238.664H36.57z M375.343,200.186    h-63.517v-63.518h63.517V200.186z M375.343,100.098h-63.517V36.581h63.517V100.098z M475.429,200.186h-63.517v-63.518h63.517    V200.186z M475.43,100.098h-63.517V36.581h63.517V100.098z"/>
	</g>
</g>
<g>
</g>
<g>
</g>
<g>
</g>
<g>
</g>
<g>
</g>
<g>
</g>
<g>
</g>
<g>
</g>
<g>
</g>
<g>
</g>
<g>
</g>
<g>
</g>
<g>
</g>
<g>
</g>
<g>
</g>
</svg>
