<?xml version="1.0" encoding="iso-8859-1"?>
<!-- Generator: Adobe Illustrator 19.0.0, SVG Export Plug-In . SVG Version: 6.00 Build 0)  -->
<svg xmlns="http://www.w3.org/2000/svg" xmlns:xlink="http://www.w3.org/1999/xlink" version="1.1" id="Layer_1" x="0px" y="0px" viewBox="0 0 512 512" style="enable-background:new 0 0 512 512;" xml:space="preserve">
<g>
	<g>
		<path d="M495.304,61.217H16.696C7.475,61.217,0,68.693,0,77.913v356.174c0,9.22,7.475,16.696,16.696,16.696h478.609    c9.22,0,16.696-7.475,16.696-16.696V77.913C512,68.693,504.525,61.217,495.304,61.217z M478.609,417.391H33.391V370.43    l93.262-98.869l77.956,82.646c6.59,6.985,17.706,6.979,24.29,0L385.436,188.26l93.173,98.769V417.391z M478.609,238.368    l-81.029-85.896c-6.59-6.985-17.705-6.979-24.29,0L216.755,318.418l-77.956-82.646c-6.59-6.985-17.706-6.979-24.29,0    l-81.117,85.994V94.609h445.217V238.368z"/>
	</g>
</g>
<g>
	<g>
		<path d="M216.754,133.812c-27.721,0-50.275,22.554-50.275,50.274c0,27.721,22.554,50.275,50.275,50.275    c27.721,0,50.274-22.554,50.274-50.275C267.028,156.366,244.474,133.812,216.754,133.812z M216.754,200.97    c-9.31,0-16.884-7.574-16.884-16.884c0-9.309,7.574-16.883,16.884-16.883s16.883,7.574,16.883,16.883    C233.637,193.396,226.062,200.97,216.754,200.97z"/>
	</g>
</g>
<g>
</g>
<g>
</g>
<g>
</g>
<g>
</g>
<g>
</g>
<g>
</g>
<g>
</g>
<g>
</g>
<g>
</g>
<g>
</g>
<g>
</g>
<g>
</g>
<g>
</g>
<g>
</g>
<g>
</g>
</svg>
