<?xml version="1.0" encoding="iso-8859-1"?>
<!-- Generator: Adobe Illustrator 19.0.0, SVG Export Plug-In . SVG Version: 6.00 Build 0)  -->
<svg xmlns="http://www.w3.org/2000/svg" xmlns:xlink="http://www.w3.org/1999/xlink" version="1.1" id="Layer_1" x="0px" y="0px" viewBox="0 0 512.001 512.001" style="enable-background:new 0 0 512.001 512.001;" xml:space="preserve">
<g>
	<g>
		<path d="M473.837,38.211c-50.944-50.945-133.393-50.951-184.342,0c-19.974,19.974-32.899,45.961-36.856,73.764L4.922,400.54    c-6.882,8.018-6.428,19.983,1.044,27.454l24.751,24.751L15.403,468.06c-7.892,7.892-7.892,20.688,0,28.58    c7.891,7.892,20.688,7.894,28.58,0l15.315-15.315l24.756,24.756c7.472,7.472,19.437,7.926,27.454,1.044L400.072,259.41    c27.809-3.96,53.793-16.884,73.764-36.857C524.66,171.73,524.66,89.035,473.837,38.211z M99.392,464.258l-51.601-51.601    l22.7-26.445l55.345,55.345L99.392,464.258z M156.594,415.154l-59.698-59.7l160.194-186.61    c12.642,41.014,45.057,73.473,86.115,86.116L156.594,415.154z M445.257,193.974c-34.924,34.924-91.872,35.31-127.182,0    c-35.275-35.275-34.957-92.225,0-127.182c35.148-35.148,92.029-35.152,127.182,0C480.321,101.855,480.321,158.909,445.257,193.974    z"/>
	</g>
</g>
<g>
</g>
<g>
</g>
<g>
</g>
<g>
</g>
<g>
</g>
<g>
</g>
<g>
</g>
<g>
</g>
<g>
</g>
<g>
</g>
<g>
</g>
<g>
</g>
<g>
</g>
<g>
</g>
<g>
</g>
</svg>
