<?xml version="1.0" encoding="iso-8859-1"?>
<!-- Generator: Adobe Illustrator 19.0.0, SVG Export Plug-In . SVG Version: 6.00 Build 0)  -->
<svg xmlns="http://www.w3.org/2000/svg" xmlns:xlink="http://www.w3.org/1999/xlink" version="1.1" id="Layer_1" x="0px" y="0px" viewBox="0 0 512 512" style="enable-background:new 0 0 512 512;" xml:space="preserve">
<g>
	<g>
		<path d="M426.935,223.19h-38.886v-91.14C388.049,59.237,328.812,0,256,0S123.951,59.237,123.951,132.049v91.14H85.065    c-9.22,0-16.696,7.475-16.696,16.696v255.419c0,9.22,7.475,16.696,16.696,16.696h341.869c9.22,0,16.696-7.475,16.696-16.696    V239.885C443.63,230.665,436.155,223.19,426.935,223.19z M157.342,132.049c0-54.4,44.258-98.658,98.658-98.658    s98.658,44.258,98.658,98.658v91.14H157.342V132.049z M410.239,478.609H101.761v-29.461h308.478V478.609z M410.239,415.757    H101.761v-96.324h308.478V415.757z M410.239,286.042H101.761v-29.461h308.478V286.042z"/>
	</g>
</g>
<g>
</g>
<g>
</g>
<g>
</g>
<g>
</g>
<g>
</g>
<g>
</g>
<g>
</g>
<g>
</g>
<g>
</g>
<g>
</g>
<g>
</g>
<g>
</g>
<g>
</g>
<g>
</g>
<g>
</g>
</svg>
