<?xml version="1.0" encoding="iso-8859-1"?>
<!-- Generator: Adobe Illustrator 19.0.0, SVG Export Plug-In . SVG Version: 6.00 Build 0)  -->
<svg xmlns="http://www.w3.org/2000/svg" xmlns:xlink="http://www.w3.org/1999/xlink" version="1.1" id="Layer_1" x="0px" y="0px" viewBox="0 0 512 512" style="enable-background:new 0 0 512 512;" xml:space="preserve">
<g>
	<g>
		<path d="M256,0C114.509,0,0,114.497,0,256c0,141.491,114.497,256,256,256c141.49,0,256-114.497,256-256    C512,114.51,397.503,0,256,0z M256,477.867c-122.337,0-221.867-99.529-221.867-221.867S133.663,34.133,256,34.133    S477.867,133.663,477.867,256S378.337,477.867,256,477.867z"/>
	</g>
</g>
<g>
	<g>
		<path d="M308.776,250.888h-55.79v-95.056c0-9.425-7.641-17.067-17.067-17.067s-17.067,7.641-17.067,17.067v112.122    c0,9.425,7.641,17.067,17.067,17.067h72.856c9.425,0,17.067-7.641,17.067-17.067S318.201,250.888,308.776,250.888z"/>
	</g>
</g>
<g>
</g>
<g>
</g>
<g>
</g>
<g>
</g>
<g>
</g>
<g>
</g>
<g>
</g>
<g>
</g>
<g>
</g>
<g>
</g>
<g>
</g>
<g>
</g>
<g>
</g>
<g>
</g>
<g>
</g>
</svg>
