<?xml version="1.0" encoding="iso-8859-1"?>
<!-- Generator: Adobe Illustrator 19.0.0, SVG Export Plug-In . SVG Version: 6.00 Build 0)  -->
<svg xmlns="http://www.w3.org/2000/svg" xmlns:xlink="http://www.w3.org/1999/xlink" version="1.1" id="Layer_1" x="0px" y="0px" viewBox="0 0 512 512" style="enable-background:new 0 0 512 512;" xml:space="preserve">
<g>
	<g>
		<path d="M422.957,0H89.044c-9.22,0-16.696,7.475-16.696,16.696v478.609c0,9.22,7.475,16.696,16.696,16.696h333.913    c9.22,0,16.696-7.475,16.696-16.696V16.696C439.652,7.475,432.177,0,422.957,0z M406.261,478.609H105.739V33.391h300.522V478.609z    "/>
	</g>
</g>
<g>
	<g>
		<path d="M255.994,178.76c-37.653-30.89-98.794-9.413-98.794,52.41c-0.001,42.081,32.284,82.577,90.906,114.03    c4.932,2.646,10.857,2.645,15.787,0c58.622-31.453,90.907-71.95,90.907-114.03C354.8,169.217,293.653,147.802,255.994,178.76z     M256,311.377c-41.697-24.16-65.409-53.099-65.409-80.206c0-38.307,37.009-41.535,51.202-18.543    c3.04,4.926,8.418,7.926,14.207,7.926s11.166-3,14.207-7.926c14.152-22.925,51.202-20.001,51.202,18.543    C321.409,258.278,297.697,287.218,256,311.377z"/>
	</g>
</g>
<g>
</g>
<g>
</g>
<g>
</g>
<g>
</g>
<g>
</g>
<g>
</g>
<g>
</g>
<g>
</g>
<g>
</g>
<g>
</g>
<g>
</g>
<g>
</g>
<g>
</g>
<g>
</g>
<g>
</g>
</svg>
