<?xml version="1.0" encoding="iso-8859-1"?>
<!-- Generator: Adobe Illustrator 19.0.0, SVG Export Plug-In . SVG Version: 6.00 Build 0)  -->
<svg xmlns="http://www.w3.org/2000/svg" xmlns:xlink="http://www.w3.org/1999/xlink" version="1.1" id="Layer_1" x="0px" y="0px" viewBox="0 0 512 512" style="enable-background:new 0 0 512 512;" xml:space="preserve">
<g>
	<g>
		<path d="M288.09,50.884L138.443,162.009H17.587C7.875,162.009,0,169.883,0,179.596v152.812c0,9.713,7.875,17.587,17.587,17.587    h120.855L288.09,461.12c11.514,8.549,28.072,0.409,28.072-14.12V65.004C316.162,50.563,299.67,42.291,288.09,50.884z     M126.671,314.822H35.175V197.185h91.496V314.822z M280.987,412.035L280.987,412.035l-119.141-88.472V188.444l119.141-88.472    V412.035z"/>
	</g>
</g>
<g>
	<g>
		<path d="M474.372,96.049c-6.866-6.87-18.003-6.867-24.872,0l-78.404,78.403c-6.869,6.867-6.869,18.004,0,24.872    c6.866,6.868,18.003,6.87,24.872,0l78.404-78.403C481.241,114.054,481.241,102.917,474.372,96.049z"/>
	</g>
</g>
<g>
	<g>
		<path d="M494.413,238.416h-110.88c-9.713,0-17.588,7.875-17.588,17.588c0,9.713,7.875,17.587,17.588,17.587h110.88    c9.713,0,17.587-7.875,17.587-17.587C512,246.29,504.125,238.416,494.413,238.416z"/>
	</g>
</g>
<g>
	<g>
		<path d="M474.372,391.086l-78.404-78.404c-6.867-6.867-18.004-6.867-24.872,0s-6.869,18.004,0,24.872l78.404,78.404    c6.869,6.869,18.004,6.869,24.872,0C481.241,409.091,481.241,397.954,474.372,391.086z"/>
	</g>
</g>
<g>
</g>
<g>
</g>
<g>
</g>
<g>
</g>
<g>
</g>
<g>
</g>
<g>
</g>
<g>
</g>
<g>
</g>
<g>
</g>
<g>
</g>
<g>
</g>
<g>
</g>
<g>
</g>
<g>
</g>
</svg>
