<?xml version="1.0" encoding="iso-8859-1"?>
<!-- Generator: Adobe Illustrator 19.0.0, SVG Export Plug-In . SVG Version: 6.00 Build 0)  -->
<svg xmlns="http://www.w3.org/2000/svg" xmlns:xlink="http://www.w3.org/1999/xlink" version="1.1" id="Layer_1" x="0px" y="0px" viewBox="0 0 512 512" style="enable-background:new 0 0 512 512;" xml:space="preserve">
<g>
	<g>
		<path d="M481.876,58.214L260.298,0.54c-2.896-0.751-5.944-0.688-8.598,0L30.124,58.214C21.727,60.4,16.305,68.539,17.525,77.13    l19.502,137.402c17.992,126.801,96.841,237.203,210.829,295.406c0.01,0.006,0.021,0.01,0.031,0.016    c5.162,2.619,10.639,2.835,16.227,0c0.01-0.006,0.021-0.01,0.031-0.016c114.037-58.226,192.838-168.623,210.829-295.406    L494.476,77.13C495.693,68.539,490.273,60.4,481.876,58.214z M53.46,87.412l71.309-18.561l-64.753,64.754L53.46,87.412z     M238.932,465.822c-15.718-9.64-30.575-20.415-44.477-32.2l44.477-44.476V465.822z M238.932,340.873l-69.446,69.447    c-13.331-13.676-25.537-28.376-36.511-43.947l105.957-105.956V340.873z M238.932,212.145L114.235,336.841    c-9.969-17.536-18.489-35.938-25.422-55.032l150.119-150.12V212.145z M238.932,83.416L77.59,244.759    c-5.233-21.35-6.523-33.298-11.574-68.883L190.028,51.864l48.904-12.73V83.416z M441.176,209.736    c-15.112,106.501-77.205,200.334-168.11,256.085V39.136l185.472,48.277L441.176,209.736z"/>
	</g>
</g>
<g>
</g>
<g>
</g>
<g>
</g>
<g>
</g>
<g>
</g>
<g>
</g>
<g>
</g>
<g>
</g>
<g>
</g>
<g>
</g>
<g>
</g>
<g>
</g>
<g>
</g>
<g>
</g>
<g>
</g>
</svg>
