<?xml version="1.0" encoding="iso-8859-1"?>
<!-- Generator: Adobe Illustrator 19.0.0, SVG Export Plug-In . SVG Version: 6.00 Build 0)  -->
<svg xmlns="http://www.w3.org/2000/svg" xmlns:xlink="http://www.w3.org/1999/xlink" version="1.1" id="Layer_1" x="0px" y="0px" viewBox="0 0 511.999 511.999" style="enable-background:new 0 0 511.999 511.999;" xml:space="preserve">
<g>
	<g>
		<path d="M435.696,0H126.482C89.606,0,59.606,29.994,59.606,66.862v378.276c0,36.867,30,66.862,66.876,66.862h309.216    c9.22,0,16.696-7.475,16.696-16.696c0-17.453,0-461.153,0-478.609C452.392,7.475,444.917,0,435.696,0z M419.002,478.609h-0.001    H126.482c-18.464,0-33.485-15.015-33.485-33.47V124.735c10.054,5.837,21.593,9.002,33.485,9.002h292.52V478.609z M419.002,100.346    h-292.52c-17.887,0-32.543-14.098-33.441-31.764c-0.029-0.57-0.043-1.143-0.043-1.721c0-18.455,15.022-33.47,33.485-33.47h292.52    V100.346z"/>
	</g>
</g>
<g>
	<g>
		<path d="M331.066,201.632H180.925c-9.22,0-16.696,7.475-16.696,16.696v89.856c0,9.22,7.475,16.696,16.696,16.696h150.141    c9.22,0,16.696-7.475,16.696-16.696v-89.856C347.761,209.107,340.286,201.632,331.066,201.632z M314.37,291.487H197.621v-56.465    H314.37V291.487z"/>
	</g>
</g>
<g>
	<g>
		<path d="M331.066,364.546H180.925c-9.22,0-16.696,7.475-16.696,16.696s7.475,16.696,16.696,16.696h150.141    c9.22,0,16.696-7.475,16.696-16.696S340.286,364.546,331.066,364.546z"/>
	</g>
</g>
<g>
</g>
<g>
</g>
<g>
</g>
<g>
</g>
<g>
</g>
<g>
</g>
<g>
</g>
<g>
</g>
<g>
</g>
<g>
</g>
<g>
</g>
<g>
</g>
<g>
</g>
<g>
</g>
<g>
</g>
</svg>
