<?xml version="1.0" encoding="iso-8859-1"?>
<!-- Generator: Adobe Illustrator 19.0.0, SVG Export Plug-In . SVG Version: 6.00 Build 0)  -->
<svg xmlns="http://www.w3.org/2000/svg" xmlns:xlink="http://www.w3.org/1999/xlink" version="1.1" id="Layer_1" x="0px" y="0px" viewBox="0 0 512 512" style="enable-background:new 0 0 512 512;" xml:space="preserve">
<g>
	<g>
		<path d="M470.326,0H41.674c-9.864,0-17.86,7.997-17.86,17.86c0,9.768,0,467.604,0,476.279c0,9.864,7.997,17.86,17.86,17.86    h428.651c9.864,0,17.86-7.997,17.86-17.86c0-9.768,0-467.604,0-476.279C488.186,7.997,480.189,0,470.326,0z M452.465,476.279    H59.535V353.241h392.93V476.279z M452.465,317.519H59.535V194.48h392.93V317.519z M452.465,158.759H59.535V35.721h392.93V158.759z    "/>
	</g>
</g>
<g>
	<g>
		<path d="M127.631,70.45c-14.773,0-26.791,12.018-26.791,26.791c0,14.773,12.018,26.791,26.791,26.791    c14.773,0,26.791-12.018,26.791-26.791C154.422,82.468,142.404,70.45,127.631,70.45z"/>
	</g>
</g>
<g>
	<g>
		<path d="M393.299,79.38H213.172c-9.864,0-17.86,7.997-17.86,17.86c0,9.864,7.997,17.86,17.86,17.86h180.127    c9.864,0,17.86-7.997,17.86-17.86C411.16,87.377,403.163,79.38,393.299,79.38z"/>
	</g>
</g>
<g>
	<g>
		<path d="M127.631,229.209c-14.773,0-26.791,12.018-26.791,26.791s12.018,26.791,26.791,26.791    c14.773,0,26.791-12.018,26.791-26.791S142.404,229.209,127.631,229.209z"/>
	</g>
</g>
<g>
	<g>
		<path d="M393.299,238.14H213.172c-9.864,0-17.86,7.997-17.86,17.86s7.997,17.86,17.86,17.86h180.127    c9.864,0,17.86-7.997,17.86-17.86S403.163,238.14,393.299,238.14z"/>
	</g>
</g>
<g>
	<g>
		<path d="M127.631,387.969c-14.773,0-26.791,12.018-26.791,26.791c0,14.773,12.019,26.791,26.791,26.791    c14.773,0,26.791-12.018,26.791-26.791C154.422,399.986,142.404,387.969,127.631,387.969z"/>
	</g>
</g>
<g>
	<g>
		<path d="M393.299,396.899H213.172c-9.864,0-17.86,7.997-17.86,17.86c0,9.864,7.997,17.86,17.86,17.86h180.127    c9.864,0,17.86-7.997,17.86-17.86C411.16,404.896,403.163,396.899,393.299,396.899z"/>
	</g>
</g>
<g>
</g>
<g>
</g>
<g>
</g>
<g>
</g>
<g>
</g>
<g>
</g>
<g>
</g>
<g>
</g>
<g>
</g>
<g>
</g>
<g>
</g>
<g>
</g>
<g>
</g>
<g>
</g>
<g>
</g>
</svg>
