<?xml version="1.0" encoding="iso-8859-1"?>
<!-- Generator: Adobe Illustrator 19.0.0, SVG Export Plug-In . SVG Version: 6.00 Build 0)  -->
<svg xmlns="http://www.w3.org/2000/svg" xmlns:xlink="http://www.w3.org/1999/xlink" version="1.1" id="Layer_1" x="0px" y="0px" viewBox="0 0 512 512" style="enable-background:new 0 0 512 512;" xml:space="preserve">
<g>
	<g>
		<path d="M496,133.333H16c-8.836,0-16,7.164-16,16v213.333c0,8.836,7.164,16,16,16h480c8.836,0,16-7.164,16-16V149.333    C512,140.497,504.836,133.333,496,133.333z M480,346.667H32V165.333h448V346.667z"/>
	</g>
</g>
<g>
	<g>
		<path d="M196.507,196.434c-8.284-3.076-17.493,1.147-20.569,9.43l-33.09,89.133c-3.076,8.285,1.147,17.492,9.43,20.568    c8.278,3.074,17.491-1.143,20.569-9.43l33.09-89.133C209.012,208.718,204.79,199.51,196.507,196.434z"/>
	</g>
</g>
<g>
	<g>
		<path d="M122.205,240H58.998c-8.836,0-16,7.164-16,16c0,8.836,7.163,16,16,16h63.206c8.836,0,16-7.164,16-16    C138.205,247.164,131.041,240,122.205,240z"/>
	</g>
</g>
<g>
	<g>
		<path d="M359.722,196.434c-8.284-3.076-17.492,1.147-20.569,9.43l-33.09,89.133c-3.075,8.285,1.147,17.492,9.43,20.568    c8.278,3.074,17.491-1.143,20.569-9.43l33.09-89.133C372.227,208.718,368.005,199.51,359.722,196.434z"/>
	</g>
</g>
<g>
	<g>
		<path d="M453.002,240h-63.206c-8.836,0-16,7.164-16,16c0,8.836,7.164,16,16,16h63.206c8.836,0,16-7.164,16-16    C469.002,247.164,461.838,240,453.002,240z"/>
	</g>
</g>
<g>
	<g>
		<path d="M287.604,240h-63.208c-8.836,0-16,7.164-16,16c0,8.836,7.163,16,16,16h63.208c8.836,0,16-7.164,16-16    C303.604,247.164,296.441,240,287.604,240z"/>
	</g>
</g>
<g>
</g>
<g>
</g>
<g>
</g>
<g>
</g>
<g>
</g>
<g>
</g>
<g>
</g>
<g>
</g>
<g>
</g>
<g>
</g>
<g>
</g>
<g>
</g>
<g>
</g>
<g>
</g>
<g>
</g>
</svg>
