<?xml version="1.0" encoding="iso-8859-1"?>
<!-- Generator: Adobe Illustrator 19.0.0, SVG Export Plug-In . SVG Version: 6.00 Build 0)  -->
<svg xmlns="http://www.w3.org/2000/svg" xmlns:xlink="http://www.w3.org/1999/xlink" version="1.1" id="Layer_1" x="0px" y="0px" viewBox="0 0 512 512" style="enable-background:new 0 0 512 512;" xml:space="preserve">
<g>
	<g>
		<path d="M493.268,0H18.732C8.387,0,0,8.387,0,18.732v474.537C0,503.613,8.387,512,18.732,512h474.537    c10.345,0,18.732-8.387,18.732-18.732V18.732C512,8.387,503.613,0,493.268,0z M474.537,474.537H37.463V37.463h437.073V474.537z"/>
	</g>
</g>
<g>
	<g>
		<path d="M256.001,279.673c-12.012,0-22.222,3.002-23.122,14.115c-0.902,11.71-2.403,30.029-26.425,30.029    c-17.417,0-27.326-9.609-27.326-30.029v-79.576c0-20.42,9.909-30.029,27.026-30.029c25.524,0,26.424,19.22,26.725,27.027    c0.599,10.809,10.809,14.112,23.422,14.112c15.914,0,23.422-4.205,23.422-22.222c0-38.134-32.431-59.757-75.371-59.757    c-39.337,0-72.068,19.22-72.068,70.868v79.576c0,51.648,32.732,70.866,72.068,70.866c42.942,0,75.371-22.819,75.371-62.759    C279.723,283.878,272.215,279.673,256.001,279.673z"/>
	</g>
</g>
<g>
	<g>
		<path d="M381.521,219.915h-33.932v-26.424c0-11.112,6.906-16.217,16.516-16.217h11.411c11.711,0,17.415-9.607,17.415-19.517    c0-9.609-5.704-19.52-17.415-19.52h-21.62c-28.828,0-52.85,25.524-52.85,60.359v150.141c-0.003,8.412,9.907,14.116,22.819,14.116    c12.613,0,23.723-5.704,23.723-14.115v-95.79h33.932c7.508,0,11.411-8.107,11.411-16.518    C392.933,228.323,389.029,219.915,381.521,219.915z"/>
	</g>
</g>
<g>
</g>
<g>
</g>
<g>
</g>
<g>
</g>
<g>
</g>
<g>
</g>
<g>
</g>
<g>
</g>
<g>
</g>
<g>
</g>
<g>
</g>
<g>
</g>
<g>
</g>
<g>
</g>
<g>
</g>
</svg>
