<?xml version="1.0" encoding="iso-8859-1"?>
<!-- Generator: Adobe Illustrator 19.0.0, SVG Export Plug-In . SVG Version: 6.00 Build 0)  -->
<svg xmlns="http://www.w3.org/2000/svg" xmlns:xlink="http://www.w3.org/1999/xlink" version="1.1" id="Layer_1" x="0px" y="0px" viewBox="0 0 512 512" style="enable-background:new 0 0 512 512;" xml:space="preserve">
<g>
	<g>
		<path d="M504.01,242.145L330.062,141.716c-10.66-6.156-24,1.566-24,13.856v34.897c-7.697,0-247.513,0-254.007,0    c-8.836,0-16,7.164-16,16c0,8.836,7.164,16,16,16h87.554l-6.38,17.528H34.026c-8.836,0-16,7.164-16,16c0,8.836,7.164,16,16,16    h87.555l-6.38,17.528H16c-8.836,0-16,7.164-16,16c0,8.836,7.164,16,16,16c0.929,0,167.607,0.009,290.062,0.009v34.897    c0,12.319,13.376,19.991,24,13.856L504.01,269.86C514.673,263.701,514.653,248.29,504.01,242.145z M338.063,328.718v-23.183    c0-8.836-7.164-16-16-16h-172.81l24.409-67.064h148.401c8.836,0,16-7.164,16-16v-23.183l125.947,72.715L338.063,328.718z"/>
	</g>
</g>
<g>
</g>
<g>
</g>
<g>
</g>
<g>
</g>
<g>
</g>
<g>
</g>
<g>
</g>
<g>
</g>
<g>
</g>
<g>
</g>
<g>
</g>
<g>
</g>
<g>
</g>
<g>
</g>
<g>
</g>
</svg>
