<?xml version="1.0" encoding="iso-8859-1"?>
<!-- Generator: Adobe Illustrator 19.0.0, SVG Export Plug-In . SVG Version: 6.00 Build 0)  -->
<svg xmlns="http://www.w3.org/2000/svg" xmlns:xlink="http://www.w3.org/1999/xlink" version="1.1" id="Layer_1" x="0px" y="0px" viewBox="0 0 512 512" style="enable-background:new 0 0 512 512;" xml:space="preserve">
<g>
	<g>
		<path d="M256,0C114.51,0,0,114.497,0,256c0,141.49,114.497,256,256,256c141.488,0,256-114.497,256-256    C512,114.512,397.503,0,256,0z M256,477.867c-122.337,0-221.867-99.529-221.867-221.867S133.663,34.133,256,34.133    S477.867,133.663,477.867,256S378.337,477.867,256,477.867z"/>
	</g>
</g>
<g>
	<g>
		<path d="M366.849,190.645H145.152c-14.162,0-22.198,16.358-13.456,27.565l110.848,142.089c6.835,8.761,20.092,8.742,26.913,0    L380.306,218.21C389.015,207.044,381.062,190.645,366.849,190.645z M256,322.054l-75.889-97.275h151.777L256,322.054z"/>
	</g>
</g>
<g>
</g>
<g>
</g>
<g>
</g>
<g>
</g>
<g>
</g>
<g>
</g>
<g>
</g>
<g>
</g>
<g>
</g>
<g>
</g>
<g>
</g>
<g>
</g>
<g>
</g>
<g>
</g>
<g>
</g>
</svg>
