<?xml version="1.0" encoding="iso-8859-1"?>
<!-- Generator: Adobe Illustrator 19.0.0, SVG Export Plug-In . SVG Version: 6.00 Build 0)  -->
<svg xmlns="http://www.w3.org/2000/svg" xmlns:xlink="http://www.w3.org/1999/xlink" version="1.1" id="Layer_1" x="0px" y="0px" viewBox="0 0 512 512" style="enable-background:new 0 0 512 512;" xml:space="preserve">
<g>
	<g>
		<path d="M256,0C170.662,0,97.608,37.003,97.608,90.057c0,12.931,0,323.423,0,331.885C97.608,475.081,170.814,512,256,512    c85.338,0,158.392-37.003,158.392-90.057c0-12.931,0-323.423,0-331.885C414.392,36.919,341.186,0,256,0z M256,33.391    c72.462,0,125,29.604,125,56.666c0,26.7-51.823,56.666-125,56.666c-73.077,0-125-29.916-125-56.666    C131,62.929,183.71,33.391,256,33.391z M381,421.943c0,27.139-52.746,56.666-125,56.666c-72.42,0-125-29.588-125-56.666v-54.339    c33.572,24.182,82.829,33.769,125,33.769c42.222,0,91.503-9.641,125-33.768V421.943z M380.952,312.681    C378.716,347.066,309.569,367.98,256,367.98c-49.451,0-120.321-19.457-124.81-53.881c-0.271-2.05-0.19,1.721-0.19-57.125    c33.763,24.321,82.904,33.769,125,33.769c41.531,0,91.157-9.392,125-33.768C381,315.812,381.025,311.568,380.952,312.681z     M380.524,205.164c-6.523,31.033-68.118,52.188-124.523,52.188c-62.442,0-118.561-23.812-124.524-52.191    c-0.699-3.357-0.476-0.446-0.476-58.815c33.753,24.283,82.747,33.77,125,33.77c42.104-0.001,91.242-9.458,124.999-33.77    C381,204.04,381.224,201.767,380.524,205.164z"/>
	</g>
</g>
<g>
	<g>
		<path d="M348.985,201.253c-2.942-8.741-12.406-13.444-21.148-10.503c-34.487,11.6-76.41,13.683-112.623,7.641    c-9.094-1.506-17.698,4.626-19.216,13.72c-1.517,9.096,4.626,17.699,13.72,19.217c41.358,6.898,88.859,4.493,128.764-8.928    C347.222,219.46,351.923,209.993,348.985,201.253z"/>
	</g>
</g>
<g>
	<g>
		<circle cx="165.042" cy="201.628" r="12.8"/>
	</g>
</g>
<g>
	<g>
		<path d="M348.986,311.883c-2.941-8.741-12.409-13.446-21.148-10.503c-34.413,11.572-76.328,13.697-112.623,7.641    c-9.095-1.524-17.7,4.624-19.217,13.718c-1.518,9.096,4.625,17.698,13.719,19.217c41.533,6.932,89.02,4.439,128.765-8.927    C347.223,330.09,351.924,320.622,348.986,311.883z"/>
	</g>
</g>
<g>
	<g>
		<circle cx="165.042" cy="312.253" r="12.8"/>
	</g>
</g>
<g>
	<g>
		<path d="M348.985,422.51c-2.942-8.74-12.406-13.444-21.148-10.503c-34.487,11.6-76.41,13.683-112.623,7.641    c-9.094-1.506-17.698,4.626-19.216,13.72c-1.517,9.096,4.626,17.698,13.72,19.217c41.358,6.898,88.859,4.493,128.764-8.928    C347.222,440.717,351.923,431.251,348.985,422.51z"/>
	</g>
</g>
<g>
	<g>
		<circle cx="165.042" cy="422.879" r="12.8"/>
	</g>
</g>
<g>
</g>
<g>
</g>
<g>
</g>
<g>
</g>
<g>
</g>
<g>
</g>
<g>
</g>
<g>
</g>
<g>
</g>
<g>
</g>
<g>
</g>
<g>
</g>
<g>
</g>
<g>
</g>
<g>
</g>
</svg>
