<?xml version="1.0" encoding="iso-8859-1"?>
<!-- Generator: Adobe Illustrator 19.0.0, SVG Export Plug-In . SVG Version: 6.00 Build 0)  -->
<svg xmlns="http://www.w3.org/2000/svg" xmlns:xlink="http://www.w3.org/1999/xlink" version="1.1" id="Layer_1" x="0px" y="0px" viewBox="0 0 512 512" style="enable-background:new 0 0 512 512;" xml:space="preserve">
<g>
	<g>
		<path d="M422.957,0H89.044c-9.22,0-16.696,7.475-16.696,16.696v478.609c0,9.22,7.475,16.696,16.696,16.696h333.913    c9.22,0,16.696-7.475,16.696-16.696V16.696C439.652,7.475,432.177,0,422.957,0z M406.261,478.609H105.739V33.391h300.522V478.609z    "/>
	</g>
</g>
<g>
	<g>
		<path d="M318.99,247.971l-48.376-87.58c-6.339-11.478-22.885-11.483-29.229,0l-48.375,87.58c-2.776,5.024-2.776,11.122,0,16.146    l48.375,87.58c6.34,11.478,22.885,11.483,29.229,0l48.376-87.58C321.765,259.092,321.765,252.995,318.99,247.971z M256,309.092    l-29.302-53.049L256,202.995l29.303,53.049L256,309.092z"/>
	</g>
</g>
<g>
</g>
<g>
</g>
<g>
</g>
<g>
</g>
<g>
</g>
<g>
</g>
<g>
</g>
<g>
</g>
<g>
</g>
<g>
</g>
<g>
</g>
<g>
</g>
<g>
</g>
<g>
</g>
<g>
</g>
</svg>
