<?xml version="1.0" encoding="iso-8859-1"?>
<!-- Generator: Adobe Illustrator 19.0.0, SVG Export Plug-In . SVG Version: 6.00 Build 0)  -->
<svg xmlns="http://www.w3.org/2000/svg" xmlns:xlink="http://www.w3.org/1999/xlink" version="1.1" id="Layer_1" x="0px" y="0px" viewBox="0 0 512.001 512.001" style="enable-background:new 0 0 512.001 512.001;" xml:space="preserve">
<g>
	<g>
		<path d="M489.253,22.737C458.243-8.275,407.545-7.565,377.5,24.88L121.506,301.306l-77.038,34.806    c-5.415,2.447-9.394,7.265-10.772,13.046L0.534,488.336c-3.276,13.75,9.096,26.466,23.126,23.125l139.172-33.167    c5.781-1.377,10.598-5.355,13.045-10.772l34.806-77.04l276.426-255.992C519.378,104.608,520.458,53.942,489.253,22.737z     M144.766,443.127l-64,15.253l38.188-38.188c7.498-7.498,7.498-19.653,0-27.151c-7.496-7.498-19.653-7.498-27.15,0L53.61,431.234    l15.251-64.01l59.899-27.062l43.066,43.066L144.766,443.127z M461.019,106.319L195.3,352.397l-35.707-35.707L405.672,50.97    c15.036-16.235,40.609-16.904,56.431-1.083C477.804,65.59,477.369,91.177,461.019,106.319z"/>
	</g>
</g>
<g>
</g>
<g>
</g>
<g>
</g>
<g>
</g>
<g>
</g>
<g>
</g>
<g>
</g>
<g>
</g>
<g>
</g>
<g>
</g>
<g>
</g>
<g>
</g>
<g>
</g>
<g>
</g>
<g>
</g>
</svg>
