<?xml version="1.0" encoding="iso-8859-1"?>
<!-- Generator: Adobe Illustrator 19.0.0, SVG Export Plug-In . SVG Version: 6.00 Build 0)  -->
<svg xmlns="http://www.w3.org/2000/svg" xmlns:xlink="http://www.w3.org/1999/xlink" version="1.1" id="Layer_1" x="0px" y="0px" viewBox="0 0 512 512" style="enable-background:new 0 0 512 512;" xml:space="preserve">
<g>
	<g>
		<path d="M494.933,407.071h-33.236v-30.973c0-9.425-7.641-17.067-17.067-17.067h-33.234V152.967h33.234    c9.425,0,17.067-7.641,17.067-17.067v-30.971h33.236c9.425,0,17.067-7.641,17.067-17.067s-7.641-17.067-17.067-17.067h-33.236    V39.822c0-9.425-7.641-17.067-17.067-17.067H67.369c-9.425,0-17.067,7.641-17.067,17.067v30.974H17.067    C7.641,70.796,0,78.437,0,87.863s7.641,17.067,17.067,17.067h33.236v30.973c0,9.425,7.641,17.067,17.067,17.067h33.234v206.064    H67.369c-9.425,0-17.067,7.641-17.067,17.067v30.973H17.067C7.641,407.072,0,414.713,0,424.139s7.641,17.067,17.067,17.067h33.236    v30.973c0,9.425,7.641,17.067,17.067,17.067h377.262c9.425,0,17.067-7.641,17.067-17.067v-30.974h33.236    c9.425,0,17.067-7.641,17.067-17.067S504.359,407.071,494.933,407.071z M84.436,118.834V56.889h343.129v61.945    C419.046,118.834,94.439,118.834,84.436,118.834z M377.263,152.967v206.064H134.737V152.967H377.263z M427.564,455.111H84.436    v-61.945c8.519,0,333.125,0,343.129,0V455.111z"/>
	</g>
</g>
<g>
	<g>
		<path d="M315.762,201.783H196.238c-9.425,0-17.067,7.641-17.067,17.067s7.641,17.067,17.067,17.067h119.524    c9.425,0,17.067-7.641,17.067-17.067S325.187,201.783,315.762,201.783z"/>
	</g>
</g>
<g>
	<g>
		<path d="M315.762,276.084H196.238c-9.425,0-17.067,7.641-17.067,17.067s7.641,17.067,17.067,17.067h119.524    c9.425,0,17.067-7.641,17.067-17.067S325.187,276.084,315.762,276.084z"/>
	</g>
</g>
<g>
</g>
<g>
</g>
<g>
</g>
<g>
</g>
<g>
</g>
<g>
</g>
<g>
</g>
<g>
</g>
<g>
</g>
<g>
</g>
<g>
</g>
<g>
</g>
<g>
</g>
<g>
</g>
<g>
</g>
</svg>
