<?xml version="1.0" encoding="iso-8859-1"?>
<!-- Generator: Adobe Illustrator 19.0.0, SVG Export Plug-In . SVG Version: 6.00 Build 0)  -->
<svg xmlns="http://www.w3.org/2000/svg" xmlns:xlink="http://www.w3.org/1999/xlink" version="1.1" id="Layer_1" x="0px" y="0px" viewBox="0 0 512 512" style="enable-background:new 0 0 512 512;" xml:space="preserve">
<g>
	<g>
		<path d="M90.589,0C66.296,0,46.533,19.762,46.533,44.054c0,24.292,19.763,44.055,44.055,44.055    c24.292,0,44.054-19.763,44.054-44.055C134.641,19.762,114.881,0,90.589,0z"/>
	</g>
</g>
<g>
	<g>
		<path d="M445.257,23.843H204.784c-11.162,0-20.211,9.049-20.211,20.211c0,11.162,9.049,20.211,20.211,20.211h240.473    c11.162,0,20.211-9.049,20.211-20.211C465.467,32.892,456.418,23.843,445.257,23.843z"/>
	</g>
</g>
<g>
	<g>
		<path d="M90.589,211.946c-24.292,0-44.055,19.763-44.055,44.054s19.763,44.054,44.055,44.054    c24.292,0,44.054-19.763,44.054-44.054S114.881,211.946,90.589,211.946z"/>
	</g>
</g>
<g>
	<g>
		<path d="M445.257,235.789H204.784c-11.162,0-20.211,9.049-20.211,20.211c0,11.162,9.049,20.211,20.211,20.211h240.473    c11.162,0,20.211-9.049,20.211-20.211C465.467,244.838,456.418,235.789,445.257,235.789z"/>
	</g>
</g>
<g>
	<g>
		<path d="M90.589,423.89c-24.292,0-44.055,19.763-44.055,44.055S66.296,512,90.588,512c24.292,0,44.054-19.762,44.054-44.054    S114.881,423.89,90.589,423.89z"/>
	</g>
</g>
<g>
	<g>
		<path d="M445.257,447.736H204.784c-11.162,0-20.211,9.049-20.211,20.211c0,11.162,9.049,20.211,20.211,20.211h240.473    c11.162,0,20.211-9.049,20.211-20.211C465.467,456.785,456.418,447.736,445.257,447.736z"/>
	</g>
</g>
<g>
</g>
<g>
</g>
<g>
</g>
<g>
</g>
<g>
</g>
<g>
</g>
<g>
</g>
<g>
</g>
<g>
</g>
<g>
</g>
<g>
</g>
<g>
</g>
<g>
</g>
<g>
</g>
<g>
</g>
</svg>
