<?xml version="1.0" encoding="iso-8859-1"?>
<!-- Generator: Adobe Illustrator 19.0.0, SVG Export Plug-In . SVG Version: 6.00 Build 0)  -->
<svg xmlns="http://www.w3.org/2000/svg" xmlns:xlink="http://www.w3.org/1999/xlink" version="1.1" id="Layer_1" x="0px" y="0px" viewBox="0 0 512 512" style="enable-background:new 0 0 512 512;" xml:space="preserve">
<g>
	<g>
		<path d="M479.053,17.86c0-9.864-7.997-17.86-17.86-17.86H342.242c-9.864,0-17.86,7.997-17.86,17.86    c0,8.474,0.012,251.578,0.012,271.074c0,37.719-30.682,68.406-68.392,68.406c-37.712,0-68.394-30.687-68.394-68.406V17.86    c0-9.864-7.997-17.86-17.86-17.86H50.796c-9.864,0-17.86,7.997-17.86,17.86v271.074C32.934,411.934,133.002,512,255.999,512    c122.999,0,223.065-100.066,223.065-223.065C479.065,230.194,479.053,27.894,479.053,17.86z M360.102,35.721h83.23v83.224h-83.23    V35.721z M68.655,35.721h83.23v83.224h-83.23V35.721z M443.343,288.935c0.001,103.303-84.041,187.344-187.343,187.344    c-103.301,0-187.344-84.042-187.344-187.344V154.666h83.23v134.269c0,57.415,46.706,104.127,104.115,104.127    s104.113-46.711,104.113-104.127V154.666h83.23V288.935z"/>
	</g>
</g>
<g>
</g>
<g>
</g>
<g>
</g>
<g>
</g>
<g>
</g>
<g>
</g>
<g>
</g>
<g>
</g>
<g>
</g>
<g>
</g>
<g>
</g>
<g>
</g>
<g>
</g>
<g>
</g>
<g>
</g>
</svg>
