<?xml version="1.0" encoding="iso-8859-1"?>
<!-- Generator: Adobe Illustrator 19.0.0, SVG Export Plug-In . SVG Version: 6.00 Build 0)  -->
<svg xmlns="http://www.w3.org/2000/svg" xmlns:xlink="http://www.w3.org/1999/xlink" version="1.1" id="Layer_1" x="0px" y="0px" viewBox="0 0 511.999 511.999" style="enable-background:new 0 0 511.999 511.999;" xml:space="preserve">
<g>
	<g>
		<path d="M435.696,0H126.482C89.607,0,59.606,29.994,59.606,66.862v378.276c0,36.867,30.001,66.862,66.876,66.862h309.216    c9.22,0,16.696-7.475,16.696-16.696c0-17.453,0-461.153,0-478.609C452.392,7.475,444.917,0,435.696,0z M419.002,478.609h-0.001    H126.482c-18.463,0-33.485-15.015-33.485-33.47V124.735c22.928,13.316,22.693,9.002,326.005,9.002V478.609z M419.002,100.346    h-292.52c-18.463,0-33.485-15.022-33.485-33.485c0-18.455,15.021-33.47,33.485-33.47h292.52V100.346z"/>
	</g>
</g>
<g>
	<g>
		<path d="M376.758,222.227c-1.538-0.02-240.264-0.011-241.475-0.002c-9.134,0.117-16.491,7.543-16.491,16.687v134.522    c0,9.22,7.475,16.696,16.696,16.696h241.021c9.22,0,16.696-7.475,16.696-16.696V238.911    C393.205,230.008,386.085,222.371,376.758,222.227z M305.357,255.607c-12.098,6.008-38.92,19.33-49.358,24.514    c-10.598-5.264-37.61-18.679-49.358-24.514H305.357z M359.814,356.739H152.184v-90.893l50.111,24.888l-23.545,16.168    c-7.602,5.219-9.532,15.612-4.313,23.214c5.22,7.601,15.614,9.531,23.214,4.312l38.874-26.693l12.047,5.983    c4.537,2.253,10.038,2.39,14.855,0l12.045-5.983l38.874,26.693c7.595,5.217,17.993,3.291,23.214-4.312    c5.219-7.602,3.289-17.995-4.312-23.214l-23.545-16.168l50.111-24.888V356.739z"/>
	</g>
</g>
<g>
</g>
<g>
</g>
<g>
</g>
<g>
</g>
<g>
</g>
<g>
</g>
<g>
</g>
<g>
</g>
<g>
</g>
<g>
</g>
<g>
</g>
<g>
</g>
<g>
</g>
<g>
</g>
<g>
</g>
</svg>
