<?xml version="1.0" encoding="iso-8859-1"?>
<!-- Generator: Adobe Illustrator 19.0.0, SVG Export Plug-In . SVG Version: 6.00 Build 0)  -->
<svg xmlns="http://www.w3.org/2000/svg" xmlns:xlink="http://www.w3.org/1999/xlink" version="1.1" id="Layer_1" x="0px" y="0px" viewBox="0 0 511.999 511.999" style="enable-background:new 0 0 511.999 511.999;" xml:space="preserve">
<g>
	<g>
		<path d="M435.696,0H126.482C89.607,0,59.606,29.994,59.606,66.862v378.276c0,36.867,30.001,66.862,66.876,66.862h309.216    c9.22,0,16.696-7.475,16.696-16.696c0-17.453,0-461.153,0-478.609C452.392,7.475,444.917,0,435.696,0z M143.177,478.609h-16.696    c-18.464,0-33.485-15.015-33.485-33.47V124.735c18.139,10.536,33.683,9.002,50.18,9.002V478.609z M419.002,239.879l-89.783,51.836    c-11.126,6.423-11.106,22.506,0,28.917l89.783,51.837v106.141H176.569V133.738h242.433V239.879z M418.93,278.476v55.395    l-47.972-27.698L418.93,278.476z M419.002,100.346h-292.52c-18.463,0-33.485-15.022-33.485-33.485    c0-18.455,15.021-33.47,33.485-33.47h292.52V100.346z"/>
	</g>
</g>
<g>
</g>
<g>
</g>
<g>
</g>
<g>
</g>
<g>
</g>
<g>
</g>
<g>
</g>
<g>
</g>
<g>
</g>
<g>
</g>
<g>
</g>
<g>
</g>
<g>
</g>
<g>
</g>
<g>
</g>
</svg>
