<?xml version="1.0" encoding="iso-8859-1"?>
<!-- Generator: Adobe Illustrator 19.0.0, SVG Export Plug-In . SVG Version: 6.00 Build 0)  -->
<svg xmlns="http://www.w3.org/2000/svg" xmlns:xlink="http://www.w3.org/1999/xlink" version="1.1" id="Layer_1" x="0px" y="0px" viewBox="0 0 512 512" style="enable-background:new 0 0 512 512;" xml:space="preserve">
<g>
	<g>
		<path d="M386.855,200.142h-56.907v-36.98c0-8.836-7.164-16-16-16H272V77.568c0-8.836-7.164-16-16-16c-8.836,0-16,7.164-16,16    v69.594h-41.94c-8.836,0-16,7.164-16,16v36.98h-56.914C56.14,200.142,0,256.282,0,325.287s56.14,125.145,125.145,125.145    c56.217,0,105.478-37.521,120.55-91.49h20.61c15.053,53.904,64.259,91.49,120.55,91.49c69.005,0,125.145-56.14,125.145-125.145    S455.86,200.142,386.855,200.142z M214.06,179.162h83.889v20.98H214.06V179.162z M386.855,418.432    c-46.235,0-84.72-33.768-91.924-78.059c-1.26-7.743-7.948-13.431-15.793-13.431h-46.277c-7.844,0-14.533,5.689-15.793,13.431    c-7.207,44.31-45.708,78.059-91.924,78.059C73.785,418.432,32,376.647,32,325.287s41.785-93.146,93.145-93.146    c10.128,0,251.187,0,261.711,0c51.36,0,93.145,41.785,93.145,93.146S438.216,418.432,386.855,418.432z"/>
	</g>
</g>
<g>
	<g>
		<path d="M167.862,309.287h-26.718V282.57c0-8.836-7.164-16-16-16s-16,7.164-16,16v26.718H82.428c-8.836,0-16,7.164-16,16    s7.164,16,16,16h26.717v26.717c0,8.836,7.164,16,16,16s16-7.164,16-16v-26.717h26.718c8.836,0,16-7.164,16-16    S176.699,309.287,167.862,309.287z"/>
	</g>
</g>
<g>
	<g>
		<circle cx="364.267" cy="347.872" r="23.637"/>
	</g>
</g>
<g>
	<g>
		<circle cx="409.44" cy="302.699" r="23.637"/>
	</g>
</g>
<g>
</g>
<g>
</g>
<g>
</g>
<g>
</g>
<g>
</g>
<g>
</g>
<g>
</g>
<g>
</g>
<g>
</g>
<g>
</g>
<g>
</g>
<g>
</g>
<g>
</g>
<g>
</g>
<g>
</g>
</svg>
