<?xml version="1.0" encoding="iso-8859-1"?>
<!-- Generator: Adobe Illustrator 19.0.0, SVG Export Plug-In . SVG Version: 6.00 Build 0)  -->
<svg xmlns="http://www.w3.org/2000/svg" xmlns:xlink="http://www.w3.org/1999/xlink" version="1.1" id="Layer_1" x="0px" y="0px" viewBox="0 0 512 512" style="enable-background:new 0 0 512 512;" xml:space="preserve">
<g>
	<g>
		<path d="M256,0C114.51,0,0,114.497,0,256c0,141.49,114.497,256,256,256c141.49,0,256-114.497,256-256C512,114.51,397.503,0,256,0z     M256,477.867c-122.337,0-221.867-99.529-221.867-221.867S133.663,34.133,256,34.133S477.867,133.663,477.867,256    S378.337,477.867,256,477.867z"/>
	</g>
</g>
<g>
	<g>
		<path d="M372.656,139.343c-6.664-6.665-17.471-6.665-24.136,0s-6.665,17.471,0,24.136c24.669,24.668,38.254,57.527,38.254,92.521    c0,116.015-141.022,174.796-223.297,92.521c-24.669-24.668-38.254-57.527-38.254-92.521c0-29.224,9.481-56.954,26.973-79.673    l3.179,3.179c9.24,9.242,25.138,5.088,28.554-7.652l11.734-43.795c3.397-12.681-8.238-24.296-20.902-20.902l-43.795,11.735    c-12.685,3.4-16.921,19.283-7.652,28.553l4.582,4.582C104.057,181.312,91.092,217.64,91.092,256    c0,91.824,74.245,164.9,164.908,164.9c90.615,0,164.908-73.013,164.908-164.9C420.908,211.888,403.772,170.458,372.656,139.343z"/>
	</g>
</g>
<g>
</g>
<g>
</g>
<g>
</g>
<g>
</g>
<g>
</g>
<g>
</g>
<g>
</g>
<g>
</g>
<g>
</g>
<g>
</g>
<g>
</g>
<g>
</g>
<g>
</g>
<g>
</g>
<g>
</g>
</svg>
