<?xml version="1.0" encoding="iso-8859-1"?>
<!-- Generator: Adobe Illustrator 19.0.0, SVG Export Plug-In . SVG Version: 6.00 Build 0)  -->
<svg xmlns="http://www.w3.org/2000/svg" xmlns:xlink="http://www.w3.org/1999/xlink" version="1.1" id="Layer_1" x="0px" y="0px" viewBox="0 0 512 512" style="enable-background:new 0 0 512 512;" xml:space="preserve">
<g>
	<g>
		<path d="M256,0C111.681,0,0,117.457,0,256c0,141.493,114.497,256,256,256c141.493,0,256-114.497,256-256    C512,114.583,397.338,0,256,0z M205.119,165.592V39.991c33.338-7.811,68.424-7.812,101.763,0v125.602    c0,9.425,7.641,17.067,17.067,17.067h39.234L256,320.049l-107.182-137.39h39.234C197.477,182.659,205.119,175.018,205.119,165.592    z M256,477.867c-122.337,0-221.867-99.529-221.867-221.867c0-93.508,57.306-171.798,136.852-204.977v97.503h-57.128    c-14.214,0-22.165,16.4-13.456,27.565l142.143,182.204c6.836,8.761,20.093,8.742,26.913,0L411.599,176.09    c8.71-11.166,0.757-27.565-13.456-27.565h-57.128V51.023C420.525,84.188,477.867,162.448,477.867,256    C477.867,378.337,378.337,477.867,256,477.867z"/>
	</g>
</g>
<g>
</g>
<g>
</g>
<g>
</g>
<g>
</g>
<g>
</g>
<g>
</g>
<g>
</g>
<g>
</g>
<g>
</g>
<g>
</g>
<g>
</g>
<g>
</g>
<g>
</g>
<g>
</g>
<g>
</g>
</svg>
