<?xml version="1.0" encoding="iso-8859-1"?>
<!-- Generator: Adobe Illustrator 19.0.0, SVG Export Plug-In . SVG Version: 6.00 Build 0)  -->
<svg xmlns="http://www.w3.org/2000/svg" xmlns:xlink="http://www.w3.org/1999/xlink" version="1.1" id="Layer_1" x="0px" y="0px" viewBox="0 0 511.999 511.999" style="enable-background:new 0 0 511.999 511.999;" xml:space="preserve">
<g>
	<g>
		<path d="M498.943,199.754C422.44-36.332,89.647-36.722,13.054,199.668c-33.312,102.804-3.073,216.942,93.071,286.554    c7.637,5.53,18.31,3.821,23.839-3.816c5.529-7.637,3.821-18.31-3.816-23.839C43.456,398.693,16.236,300.613,45.533,210.192    C111.93,5.277,400.09,5.465,466.462,210.279c28.797,88.868,3.36,187.476-80.604,248.278c-7.637,5.53-9.344,16.203-3.815,23.84    c5.531,7.636,16.205,9.344,23.84,3.814C501.876,416.7,532.309,302.722,498.943,199.754z"/>
	</g>
</g>
<g>
	<g>
		<path d="M408.061,228.598c-48.413-147.316-255.767-147.173-304.121-0.04c-21.068,64.102-2.5,135.512,57.039,179.385    c7.592,5.594,18.278,3.974,23.871-3.616c5.594-7.59,3.974-18.278-3.616-23.871c-46.824-34.504-61.636-90.181-44.857-141.238    c38.138-116.055,201.146-115.897,239.247,0.039c16.516,50.26,2.613,106.217-44.863,141.199c-7.59,5.593-9.21,16.281-3.616,23.871    c5.595,7.595,16.282,9.207,23.871,3.617C410.404,364.185,429.187,292.879,408.061,228.598z"/>
	</g>
</g>
<g>
	<g>
		<path d="M255.997,213.818c-35.771,0-64.873,29.102-64.873,64.873s29.102,64.873,64.873,64.873s64.873-29.102,64.873-64.873    S291.768,213.818,255.997,213.818z M255.997,309.42c-16.944,0-30.729-13.785-30.729-30.729s13.785-30.729,30.729-30.729    s30.729,13.785,30.729,30.729S272.942,309.42,255.997,309.42z"/>
	</g>
</g>
<g>
</g>
<g>
</g>
<g>
</g>
<g>
</g>
<g>
</g>
<g>
</g>
<g>
</g>
<g>
</g>
<g>
</g>
<g>
</g>
<g>
</g>
<g>
</g>
<g>
</g>
<g>
</g>
<g>
</g>
</svg>
