<?xml version="1.0" encoding="iso-8859-1"?>
<!-- Generator: Adobe Illustrator 19.0.0, SVG Export Plug-In . SVG Version: 6.00 Build 0)  -->
<svg xmlns="http://www.w3.org/2000/svg" xmlns:xlink="http://www.w3.org/1999/xlink" version="1.1" id="Layer_1" x="0px" y="0px" viewBox="0 0 512 512" style="enable-background:new 0 0 512 512;" xml:space="preserve">
<g>
	<g>
		<path d="M508.614,180.84L416.936,63.859c-2.916-3.721-7.563-6.131-12.595-6.131H107.663c-5.05,0-9.705,2.444-12.595,6.131    L3.39,180.84c-4.869,6.21-4.488,15.237,1.106,21.008l240.017,247.558c6.276,6.474,16.67,6.5,22.977,0l240.018-247.558    C513.099,196.081,513.475,187.039,508.614,180.84z M371.918,89.731l-65.128,84.978H205.216l-65.128-84.978H371.918z     M107.523,99.85l57.373,74.859H48.855L107.523,99.85z M53.786,206.711h130.881l42.356,178.681L53.786,206.711z M256.003,368.895    l-38.445-162.185h76.891L256.003,368.895z M284.982,385.393l42.355-178.682h130.882L284.982,385.393z M347.109,174.708    l57.373-74.859l58.668,74.859H347.109z"/>
	</g>
</g>
<g>
</g>
<g>
</g>
<g>
</g>
<g>
</g>
<g>
</g>
<g>
</g>
<g>
</g>
<g>
</g>
<g>
</g>
<g>
</g>
<g>
</g>
<g>
</g>
<g>
</g>
<g>
</g>
<g>
</g>
</svg>
