<?xml version="1.0" encoding="iso-8859-1"?>
<!-- Generator: Adobe Illustrator 19.0.0, SVG Export Plug-In . SVG Version: 6.00 Build 0)  -->
<svg xmlns="http://www.w3.org/2000/svg" xmlns:xlink="http://www.w3.org/1999/xlink" version="1.1" id="Layer_1" x="0px" y="0px" viewBox="0 0 512 512" style="enable-background:new 0 0 512 512;" xml:space="preserve">
<g>
	<g>
		<path d="M495.304,136.746h-87.171L391.71,80.397c-2.077-7.125-8.607-12.024-16.029-12.024H256    c-7.422,0-13.952,4.898-16.029,12.024l-16.423,56.349h-53.412v-28.887c0-9.22-7.475-16.696-16.696-16.696H62.277    c-9.22,0-16.696,7.475-16.696,16.696v28.887H16.696C7.475,136.746,0,144.221,0,153.441v273.49c0,9.22,7.475,16.696,16.696,16.696    h478.609c9.22,0,16.696-7.475,16.696-16.696v-273.49C512,144.221,504.525,136.746,495.304,136.746z M268.524,101.765h94.632    l10.195,34.982H258.328L268.524,101.765z M78.973,124.555h57.773v12.191H78.973V124.555z M478.609,410.236H33.391V170.137    c9.101,0,427.95,0,445.217,0V410.236z"/>
	</g>
</g>
<g>
	<g>
		<path d="M315.841,205.119c-46.907,0-85.068,38.161-85.068,85.068s38.162,85.069,85.068,85.069    c46.907,0,85.069-38.162,85.069-85.069C400.909,243.28,362.748,205.119,315.841,205.119z M315.841,341.864    c-28.495,0-51.676-23.182-51.676-51.677c0-28.495,23.182-51.676,51.676-51.676c28.495,0,51.677,23.181,51.677,51.676    C367.518,318.682,344.336,341.864,315.841,341.864z"/>
	</g>
</g>
<g>
	<g>
		<path d="M131.304,296.711H84.415c-9.22,0-16.696,7.475-16.696,16.696s7.475,16.696,16.696,16.696h46.888    c9.22,0,16.696-7.475,16.696-16.696S140.524,296.711,131.304,296.711z"/>
	</g>
</g>
<g>
	<g>
		<path d="M131.304,346.422H84.415c-9.22,0-16.696,7.475-16.696,16.696s7.475,16.696,16.696,16.696h46.888    c9.22,0,16.696-7.475,16.696-16.696S140.524,346.422,131.304,346.422z"/>
	</g>
</g>
<g>
</g>
<g>
</g>
<g>
</g>
<g>
</g>
<g>
</g>
<g>
</g>
<g>
</g>
<g>
</g>
<g>
</g>
<g>
</g>
<g>
</g>
<g>
</g>
<g>
</g>
<g>
</g>
<g>
</g>
</svg>
