<?xml version="1.0" encoding="iso-8859-1"?>
<!-- Generator: Adobe Illustrator 19.0.0, SVG Export Plug-In . SVG Version: 6.00 Build 0)  -->
<svg xmlns="http://www.w3.org/2000/svg" xmlns:xlink="http://www.w3.org/1999/xlink" version="1.1" id="Layer_1" x="0px" y="0px" viewBox="0 0 512 512" style="enable-background:new 0 0 512 512;" xml:space="preserve">
<g>
	<g>
		<path d="M256,0C114.51,0,0,114.497,0,256c0,141.49,114.497,256,256,256c141.49,0,256-114.497,256-256C512,114.51,397.503,0,256,0z     M256,477.867c-122.337,0-221.867-99.529-221.867-221.867S133.663,34.133,256,34.133S477.867,133.663,477.867,256    S378.337,477.867,256,477.867z"/>
	</g>
</g>
<g>
	<g>
		<path d="M256,386.775c-109.917,0-168.753-126.089-103.803-210.448l3.179,3.179c9.241,9.243,25.138,5.088,28.554-7.652    l11.734-43.795c3.397-12.682-8.241-24.297-20.902-20.902l-43.795,11.735c-12.684,3.397-16.921,19.283-7.652,28.552l4.582,4.582    c-86.054,105.7-12.52,268.881,128.102,268.881c9.425,0,17.067-7.641,17.067-17.067S265.425,386.775,256,386.775z"/>
	</g>
</g>
<g>
	<g>
		<path d="M384.104,359.974C470.156,254.273,396.622,91.092,256,91.092c-9.425,0-17.067,7.641-17.067,17.067    c0,9.425,7.641,17.067,17.067,17.067c109.917,0,168.753,126.09,103.803,210.448l-3.179-3.179    c-9.284-9.283-25.159-5.015-28.554,7.652l-11.734,43.795c-3.411,12.733,8.292,24.282,20.902,20.902l43.795-11.735    c12.684-3.397,16.921-19.283,7.652-28.552L384.104,359.974z"/>
	</g>
</g>
<g>
</g>
<g>
</g>
<g>
</g>
<g>
</g>
<g>
</g>
<g>
</g>
<g>
</g>
<g>
</g>
<g>
</g>
<g>
</g>
<g>
</g>
<g>
</g>
<g>
</g>
<g>
</g>
<g>
</g>
</svg>
