<?xml version="1.0" encoding="iso-8859-1"?>
<!-- Generator: Adobe Illustrator 19.0.0, SVG Export Plug-In . SVG Version: 6.00 Build 0)  -->
<svg xmlns="http://www.w3.org/2000/svg" xmlns:xlink="http://www.w3.org/1999/xlink" version="1.1" id="Layer_1" x="0px" y="0px" viewBox="0 0 512.001 512.001" style="enable-background:new 0 0 512.001 512.001;" xml:space="preserve">
<g>
	<g>
		<path d="M507.314,151.904L389.496,34.086c-3-3.001-7.07-4.687-11.313-4.687c-10.577,0-233.428,0-244.365,0    c-4.244,0-8.313,1.685-11.313,4.687L4.686,151.904c-6.249,6.247-6.249,16.379,0,22.627l78.542,78.542    c6.247,6.247,16.379,6.247,22.627,0l11.963-11.963v225.491c0,8.836,7.164,16,16,16h244.365c8.836,0,16-7.164,16-16V241.11    l11.963,11.963c6.247,6.247,16.379,6.247,22.627,0l78.542-78.542C513.563,168.284,513.563,158.152,507.314,151.904z M294.479,61.4    l-22.226,26.654v0.001c-8.465,10.151-24.057,10.138-32.509-0.001L217.519,61.4H294.479z M417.459,219.133l-27.963-27.963    c-10.037-10.042-27.313-2.932-27.313,11.313v248.118H149.818V202.483c0-14.197-17.243-21.389-27.313-11.313l-27.963,27.963    l-55.914-55.915L140.446,61.4h35.409l39.314,47.147c21.266,25.506,60.43,25.465,81.663,0.001L336.147,61.4h35.411l101.818,101.818    L417.459,219.133z"/>
	</g>
</g>
<g>
</g>
<g>
</g>
<g>
</g>
<g>
</g>
<g>
</g>
<g>
</g>
<g>
</g>
<g>
</g>
<g>
</g>
<g>
</g>
<g>
</g>
<g>
</g>
<g>
</g>
<g>
</g>
<g>
</g>
</svg>
