<?xml version="1.0" encoding="iso-8859-1"?>
<!-- Generator: Adobe Illustrator 19.0.0, SVG Export Plug-In . SVG Version: 6.00 Build 0)  -->
<svg xmlns="http://www.w3.org/2000/svg" xmlns:xlink="http://www.w3.org/1999/xlink" version="1.1" id="Layer_1" x="0px" y="0px" viewBox="0 0 512 512" style="enable-background:new 0 0 512 512;" xml:space="preserve">
<g>
	<g>
		<path d="M506.44,401.933l-252.747-230.36l30.493-30.493c3.186-3.185,5.113-7.623,4.967-12.549    c13.122-8.884,29.016-12.747,45.14-10.689c5.233,0.67,10.483-1.123,14.213-4.854l9.145-9.145    c5.172-5.172,6.467-13.067,3.219-19.621c-27.787-56.059-99.085-72.242-148.305-36.313c-5.932-1.978-12.731-0.625-17.453,4.097    L92.856,154.262l-6.058-6.058c-6.655-6.655-17.446-6.655-24.102,0L4.992,205.908c-6.656,6.655-6.656,17.446,0,24.102    l101.194,101.194c6.656,6.656,17.446,6.656,24.102,0l57.704-57.704c6.656-6.655,6.656-17.446,0-24.102l-6.062-6.062l18.438-18.438    l230.36,252.745c6.551,7.189,17.777,7.44,24.646,0.57l51.634-51.634C513.883,419.708,513.622,408.479,506.44,401.933z     M319.209,83.414c-18.252,1.183-35.716,7.342-50.683,17.901l-29.802-29.802C264.319,56.868,297.799,60.788,319.209,83.414z     M118.238,295.051l-77.092-77.093l33.602-33.602c9.816,9.816,73.474,73.475,77.092,77.093L118.238,295.051z M157.829,219.234    l-40.871-40.871l90.205-90.205c22.866,22.866,15.014,15.013,40.871,40.87L157.829,219.234z M443.896,441.49L224.498,200.771    l5.069-5.069L470.286,415.1L443.896,441.49z"/>
	</g>
</g>
<g>
</g>
<g>
</g>
<g>
</g>
<g>
</g>
<g>
</g>
<g>
</g>
<g>
</g>
<g>
</g>
<g>
</g>
<g>
</g>
<g>
</g>
<g>
</g>
<g>
</g>
<g>
</g>
<g>
</g>
</svg>
