<?xml version="1.0" encoding="iso-8859-1"?>
<!-- Generator: Adobe Illustrator 19.0.0, SVG Export Plug-In . SVG Version: 6.00 Build 0)  -->
<svg xmlns="http://www.w3.org/2000/svg" xmlns:xlink="http://www.w3.org/1999/xlink" version="1.1" id="Layer_1" x="0px" y="0px" viewBox="0 0 512 512" style="enable-background:new 0 0 512 512;" xml:space="preserve">
<g>
	<g>
		<path d="M256,0C114.512,0,0,114.497,0,256c0,141.488,114.497,256,256,256c141.488,0,256-114.497,256-256    C512,114.512,397.503,0,256,0z M256,34.133c94.643,0,175.619,59.574,207.44,143.185L342.5,212.821    c-15.892-31.705-48.686-53.532-86.5-53.532s-70.607,21.827-86.5,53.532L48.56,177.318C80.381,93.707,161.357,34.133,256,34.133z     M238.933,477.217C124.539,468.473,34.133,372.596,34.133,256c0-15.746,1.66-31.109,4.795-45.937l120.933,35.5    c-0.37,3.432-0.572,6.91-0.572,10.437c0,47.501,34.434,87.084,79.644,95.173V477.217z M193.422,256    c0-34.505,28.072-62.578,62.578-62.578s62.578,28.072,62.578,62.578S290.505,318.578,256,318.578S193.422,290.505,193.422,256z     M273.067,477.217V351.173c45.211-8.087,79.644-47.672,79.644-95.173c0-3.527-0.203-7.005-0.572-10.436l120.933-35.5    c3.135,14.826,4.795,30.19,4.795,45.935C477.867,372.596,387.461,468.473,273.067,477.217z"/>
	</g>
</g>
<g>
	<g>
		<path d="M256,204.8c-28.232,0-51.2,22.968-51.2,51.2s22.968,51.2,51.2,51.2s51.2-22.968,51.2-51.2S284.232,204.8,256,204.8z     M256,273.067c-9.411,0-17.067-7.656-17.067-17.067c0-9.411,7.656-17.067,17.067-17.067c9.411,0,17.067,7.656,17.067,17.067    C273.067,265.411,265.411,273.067,256,273.067z"/>
	</g>
</g>
<g>
</g>
<g>
</g>
<g>
</g>
<g>
</g>
<g>
</g>
<g>
</g>
<g>
</g>
<g>
</g>
<g>
</g>
<g>
</g>
<g>
</g>
<g>
</g>
<g>
</g>
<g>
</g>
<g>
</g>
</svg>
