<?xml version="1.0" encoding="iso-8859-1"?>
<!-- Generator: Adobe Illustrator 19.0.0, SVG Export Plug-In . SVG Version: 6.00 Build 0)  -->
<svg xmlns="http://www.w3.org/2000/svg" xmlns:xlink="http://www.w3.org/1999/xlink" version="1.1" id="Layer_1" x="0px" y="0px" viewBox="0 0 512 512" style="enable-background:new 0 0 512 512;" xml:space="preserve">
<g>
	<g>
		<path d="M256,0C114.509,0,0,114.497,0,256c0,141.491,114.497,256,256,256c141.49,0,256-114.497,256-256    C512,114.445,397.214,0,256,0z M378.442,71.075c-20.587,2.418-40.815,6.575-60.514,12.43    c-13.422-17.506-28.464-33.834-44.981-48.73C311.732,37.718,347.754,50.688,378.442,71.075z M64.832,368.482    C45.34,335.479,34.133,297.027,34.133,256c0-110.485,81.182-202.357,187.026-219.123c23.585,16.86,44.635,36.625,62.744,58.655    c-20.973,8.62-41.186,19.25-60.409,31.835c-9.221-6.442-20.421-10.235-32.497-10.235c-31.369,0-56.889,25.52-56.889,56.889    c0,9.926,2.561,19.261,7.047,27.392C102.427,248.736,75.594,305.901,64.832,368.482z M213.753,174.02    c0,12.547-10.208,22.756-22.756,22.756s-22.756-10.208-22.756-22.756s10.208-22.756,22.756-22.756S213.753,161.472,213.753,174.02    z M312.723,470.508c-18.115,4.792-37.123,7.359-56.723,7.359c-63.614,0-121.052-26.92-161.544-69.955    c4.528-67.427,29.616-130.87,71.464-182.844c7.571,3.734,16.081,5.843,25.078,5.843c31.369,0,56.889-25.52,56.889-56.889    c0-6.86-1.221-13.441-3.455-19.534c19.161-12.321,39.385-22.531,60.411-30.523c23.664,36.062,40.161,76.693,48.117,119.603    c-20.222,8.731-34.414,28.862-34.414,52.252c0,24.282,15.297,45.05,36.758,53.198    C349.317,391.781,334.748,433.389,312.723,470.508z M352.677,295.819c0-12.547,10.208-22.756,22.756-22.756    c12.547,0,22.756,10.208,22.756,22.756s-10.208,22.756-22.756,22.756C362.885,318.574,352.677,308.366,352.677,295.819z     M360.992,451.406c14.264-31.879,23.923-65.845,28.491-100.459c24.595-6.271,42.839-28.608,42.839-55.13    c0-27.401-19.474-50.338-45.31-55.701c-8.025-45.263-24.632-88.285-48.529-126.867c25.205-6.549,51.28-10.097,77.806-10.497    c38.126,39.861,61.578,93.866,61.578,153.247C477.867,340.38,430.515,413.902,360.992,451.406z"/>
	</g>
</g>
<g>
</g>
<g>
</g>
<g>
</g>
<g>
</g>
<g>
</g>
<g>
</g>
<g>
</g>
<g>
</g>
<g>
</g>
<g>
</g>
<g>
</g>
<g>
</g>
<g>
</g>
<g>
</g>
<g>
</g>
</svg>
