<?xml version="1.0" encoding="iso-8859-1"?>
<!-- Generator: Adobe Illustrator 19.0.0, SVG Export Plug-In . SVG Version: 6.00 Build 0)  -->
<svg xmlns="http://www.w3.org/2000/svg" xmlns:xlink="http://www.w3.org/1999/xlink" version="1.1" id="Layer_1" x="0px" y="0px" viewBox="0 0 512 512" style="enable-background:new 0 0 512 512;" xml:space="preserve">
<g>
	<g>
		<path d="M256,0C161.33,0,84.312,77.018,84.312,171.688c0,54.38,25.587,105.127,68.882,137.502c0,7.915,0,121.305,0,125.043    c0,9.22,7.475,16.696,16.696,16.696h10.168C187.72,485.81,218.85,512,256,512c37.15,0,68.28-26.19,75.943-61.072h10.168    c9.22,0,16.696-7.475,16.696-16.696c0-3.762,0-117.209,0-125.043c43.294-32.375,68.882-83.122,68.882-137.502    C427.688,77.018,350.67,0,256,0z M256,478.609c-18.567,0-34.507-11.461-41.116-27.68h82.233    C290.507,467.148,274.567,478.609,256,478.609z M325.415,417.537c-4.855,0-132.083,0-138.83,0v-39.041h138.83V417.537z     M211.096,242.095h-8.057c-4.443,0-8.058-3.615-8.058-8.058s3.615-8.057,8.058-8.057c4.443,0,8.057,3.614,8.057,8.057V242.095z     M244.488,345.105v-69.619h23.017v69.619H244.488z M332.824,286.684c-4.63,3.099-7.41,8.303-7.41,13.875v44.545h-24.519v-69.619    h8.058c22.855,0,41.449-18.594,41.449-41.45c0-22.855-18.593-41.449-41.449-41.449c-22.855,0-41.45,18.593-41.45,41.449v8.058    h-23.017v-8.058c0-22.855-18.593-41.449-41.449-41.449c-22.855,0-41.45,18.593-41.45,41.449s18.594,41.45,41.45,41.45h8.057    v69.619h-24.511V300.56c0-5.572-2.779-10.776-7.41-13.875c-38.491-25.759-61.472-68.748-61.472-114.996    c0-76.258,62.039-138.297,138.297-138.297S394.297,95.43,394.297,171.688C394.297,217.937,371.316,260.926,332.824,286.684z     M300.896,242.095v-8.058c0-4.443,3.615-8.057,8.058-8.057c4.443,0,8.057,3.614,8.057,8.057s-3.614,8.058-8.057,8.058H300.896z"/>
	</g>
</g>
<g>
</g>
<g>
</g>
<g>
</g>
<g>
</g>
<g>
</g>
<g>
</g>
<g>
</g>
<g>
</g>
<g>
</g>
<g>
</g>
<g>
</g>
<g>
</g>
<g>
</g>
<g>
</g>
<g>
</g>
</svg>
