<?xml version="1.0" encoding="iso-8859-1"?>
<!-- Generator: Adobe Illustrator 19.0.0, SVG Export Plug-In . SVG Version: 6.00 Build 0)  -->
<svg xmlns="http://www.w3.org/2000/svg" xmlns:xlink="http://www.w3.org/1999/xlink" version="1.1" id="Layer_1" x="0px" y="0px" viewBox="0 0 512 512" style="enable-background:new 0 0 512 512;" xml:space="preserve">
<g>
	<g>
		<path d="M256,0C114.509,0,0,114.497,0,256c0,141.491,114.497,256,256,256c141.491,0,256-114.497,256-256    C512,114.509,397.503,0,256,0z M256,477.867c-122.337,0-221.867-99.529-221.867-221.867S133.663,34.133,256,34.133    S477.867,133.663,477.867,256S378.337,477.867,256,477.867z"/>
	</g>
</g>
<g>
	<g>
		<path d="M386.939,242.544L264.81,147.266c-11.188-8.729-27.565-0.729-27.565,13.457v47.919H135.557    c-9.425,0-17.067,7.641-17.067,17.067v60.584c0,9.425,7.641,17.067,17.067,17.067h101.688v47.919    c0,14.285,16.455,22.121,27.565,13.456l122.129-95.277C395.701,262.622,395.682,249.363,386.939,242.544z M271.379,316.317    v-30.025c0-9.425-7.641-17.067-17.067-17.067H152.625v-26.451h101.688c9.425,0,17.067-7.641,17.067-17.067v-30.025L348.696,256    L271.379,316.317z"/>
	</g>
</g>
<g>
</g>
<g>
</g>
<g>
</g>
<g>
</g>
<g>
</g>
<g>
</g>
<g>
</g>
<g>
</g>
<g>
</g>
<g>
</g>
<g>
</g>
<g>
</g>
<g>
</g>
<g>
</g>
<g>
</g>
</svg>
