<?xml version="1.0" encoding="iso-8859-1"?>
<!-- Generator: Adobe Illustrator 19.0.0, SVG Export Plug-In . SVG Version: 6.00 Build 0)  -->
<svg xmlns="http://www.w3.org/2000/svg" xmlns:xlink="http://www.w3.org/1999/xlink" version="1.1" id="Layer_1" x="0px" y="0px" viewBox="0 0 511.999 511.999" style="enable-background:new 0 0 511.999 511.999;" xml:space="preserve">
<g>
	<g>
		<path d="M437.017,40.898c-54.526-54.528-142.784-54.534-197.317,0L39.707,240.894c-7.497,7.497-7.497,19.652,0,27.15    c7.496,7.497,19.652,7.497,27.15,0L266.851,68.048c39.522-39.522,103.49-39.526,143.017,0c39.522,39.522,39.526,103.49,0,143.017    L159.345,461.587c-16.012,16.011-41.923,16.011-57.936,0c-15.973-15.973-15.973-41.963,0-57.937l238.9-238.9    c7.497-7.497,7.497-19.652,0-27.15c-7.496-7.497-19.652-7.497-27.15,0l-238.9,238.9c-30.943,30.943-30.943,81.294,0,112.236    c31.016,31.016,81.217,31.02,112.236,0l250.522-250.521C491.545,183.687,491.553,95.431,437.017,40.898z"/>
	</g>
</g>
<g>
</g>
<g>
</g>
<g>
</g>
<g>
</g>
<g>
</g>
<g>
</g>
<g>
</g>
<g>
</g>
<g>
</g>
<g>
</g>
<g>
</g>
<g>
</g>
<g>
</g>
<g>
</g>
<g>
</g>
</svg>
