<?xml version="1.0" encoding="iso-8859-1"?>
<!-- Generator: Adobe Illustrator 19.0.0, SVG Export Plug-In . SVG Version: 6.00 Build 0)  -->
<svg xmlns="http://www.w3.org/2000/svg" xmlns:xlink="http://www.w3.org/1999/xlink" version="1.1" id="Layer_1" x="0px" y="0px" viewBox="0 0 512 512" style="enable-background:new 0 0 512 512;" xml:space="preserve">
<g>
	<g>
		<path d="M446.512,0H65.488c-9.864,0-17.86,7.997-17.86,17.86V494.14c0,9.864,7.997,17.86,17.86,17.86h381.023    c9.864,0,17.86-7.997,17.86-17.86V17.86C464.372,7.997,456.375,0,446.512,0z M428.651,476.279H83.349V35.721h345.302V476.279z"/>
	</g>
</g>
<g>
	<g>
		<path d="M331.346,121.592H180.655c-9.864,0-17.86,7.997-17.86,17.86c0,9.864,7.997,17.86,17.86,17.86h150.691    c9.864,0,17.86-7.997,17.86-17.86C349.207,129.588,341.21,121.592,331.346,121.592z"/>
	</g>
</g>
<g>
	<g>
		<path d="M218.682,199.289h-77.699c-9.864,0-17.86,7.997-17.86,17.86v77.699c0,9.865,7.997,17.86,17.86,17.86h77.699    c9.864,0,17.86-7.997,17.86-17.86V217.15C236.543,207.286,228.546,199.289,218.682,199.289z M200.822,276.99h-41.978v-41.978    h41.978V276.99z"/>
	</g>
</g>
<g>
	<g>
		<path d="M371.017,199.291h-79.342c-9.864,0-17.86,7.996-17.86,17.86c0,9.864,7.997,17.86,17.86,17.86h79.342    c9.864,0,17.86-7.997,17.86-17.86C388.877,207.287,380.88,199.291,371.017,199.291z"/>
	</g>
</g>
<g>
	<g>
		<path d="M371.017,276.988h-79.342c-9.864,0-17.86,7.997-17.86,17.86c0,9.864,7.997,17.86,17.86,17.86h79.342    c9.864,0,17.86-7.997,17.86-17.86C388.877,284.985,380.88,276.988,371.017,276.988z"/>
	</g>
</g>
<g>
	<g>
		<path d="M371.015,354.687H140.983c-9.864,0-17.86,7.997-17.86,17.86s7.997,17.86,17.86,17.86h230.032    c9.864,0,17.86-7.997,17.86-17.86S380.879,354.687,371.015,354.687z"/>
	</g>
</g>
<g>
</g>
<g>
</g>
<g>
</g>
<g>
</g>
<g>
</g>
<g>
</g>
<g>
</g>
<g>
</g>
<g>
</g>
<g>
</g>
<g>
</g>
<g>
</g>
<g>
</g>
<g>
</g>
<g>
</g>
</svg>
