<?xml version="1.0" encoding="iso-8859-1"?>
<!-- Generator: Adobe Illustrator 19.0.0, SVG Export Plug-In . SVG Version: 6.00 Build 0)  -->
<svg xmlns="http://www.w3.org/2000/svg" xmlns:xlink="http://www.w3.org/1999/xlink" version="1.1" id="Layer_1" x="0px" y="0px" viewBox="0 0 512 512" style="enable-background:new 0 0 512 512;" xml:space="preserve">
<g>
	<g>
		<path d="M356.174,0H155.826c-9.22,0-16.696,7.475-16.696,16.696v478.609c0,9.22,7.475,16.696,16.696,16.696h200.348    c9.22,0,16.696-7.475,16.696-16.696V16.696C372.87,7.475,365.394,0,356.174,0z M339.478,478.609h-66.783v-25.404    c0-9.22-7.475-16.696-16.696-16.696s-16.696,7.475-16.696,16.696v25.404h-66.783V33.391h66.783v25.404    c0,9.22,7.475,16.696,16.696,16.696s16.696-7.475,16.696-16.696V33.391h66.783V478.609z"/>
	</g>
</g>
<g>
	<g>
		<path d="M94.244,193.345L10.765,241.54c-11.126,6.424-11.105,22.506,0,28.917l83.478,48.197c11.1,6.41,25.043-1.599,25.043-14.458    v-96.393C119.287,194.958,105.35,186.932,94.244,193.345z M85.896,275.279L52.505,256l33.391-19.278V275.279z"/>
	</g>
</g>
<g>
	<g>
		<path d="M501.235,241.545l-83.478-48.196c-11.124-6.423-25.044,1.634-25.044,14.458V304.2c0,12.927,14.013,20.828,25.044,14.458    l83.478-48.197C512.361,264.037,512.339,247.957,501.235,241.545z M426.104,275.283v-38.558l33.391,19.278L426.104,275.283z"/>
	</g>
</g>
<g>
	<g>
		<path d="M256,109.127c-9.22,0-16.696,7.475-16.696,16.696v42.1c0,9.22,7.475,16.696,16.696,16.696s16.696-7.475,16.696-16.696    v-42.1C272.696,116.602,265.22,109.127,256,109.127z"/>
	</g>
</g>
<g>
	<g>
		<path d="M256,218.254c-9.22,0-16.696,7.475-16.696,16.696v42.1c0,9.22,7.475,16.696,16.696,16.696s16.696-7.475,16.696-16.696    v-42.1C272.696,225.73,265.22,218.254,256,218.254z"/>
	</g>
</g>
<g>
	<g>
		<path d="M256,327.382c-9.22,0-16.696,7.475-16.696,16.696v42.1c0,9.22,7.475,16.696,16.696,16.696s16.696-7.475,16.696-16.696    v-42.1C272.696,334.857,265.22,327.382,256,327.382z"/>
	</g>
</g>
<g>
</g>
<g>
</g>
<g>
</g>
<g>
</g>
<g>
</g>
<g>
</g>
<g>
</g>
<g>
</g>
<g>
</g>
<g>
</g>
<g>
</g>
<g>
</g>
<g>
</g>
<g>
</g>
<g>
</g>
</svg>
