<?xml version="1.0" encoding="iso-8859-1"?>
<!-- Generator: Adobe Illustrator 19.0.0, SVG Export Plug-In . SVG Version: 6.00 Build 0)  -->
<svg xmlns="http://www.w3.org/2000/svg" xmlns:xlink="http://www.w3.org/1999/xlink" version="1.1" id="Layer_1" x="0px" y="0px" viewBox="0 0 512 512" style="enable-background:new 0 0 512 512;" xml:space="preserve">
<g>
	<g>
		<path d="M502.731,166.906L263.426,48.057c-4.678-2.324-10.175-2.324-14.854,0L9.268,166.906C3.622,169.714,0,175.535,0,181.86    v267.13c0,9.22,7.475,16.696,16.696,16.696h478.609c9.22,0,16.696-7.475,16.696-16.696V181.86    C512,175.683,508.525,169.787,502.731,166.906z M256,81.652L457.769,181.86c-8.984,4.462-193.244,95.974-201.769,100.208    c-8.734-4.338-192.74-95.724-201.769-100.208L256,81.652z M478.609,432.295H33.391V208.794L181.76,282.48L73.464,356.843    c-7.602,5.219-9.532,15.613-4.313,23.214c5.219,7.601,15.613,9.531,23.214,4.312l123.625-84.888l32.583,16.183    c4.661,2.316,10.157,2.333,14.855,0l32.582-16.183l123.625,84.888c7.599,5.219,17.996,3.288,23.214-4.312    c5.219-7.602,3.289-17.995-4.313-23.214L330.239,282.48l148.37-73.687V432.295z"/>
	</g>
</g>
<g>
</g>
<g>
</g>
<g>
</g>
<g>
</g>
<g>
</g>
<g>
</g>
<g>
</g>
<g>
</g>
<g>
</g>
<g>
</g>
<g>
</g>
<g>
</g>
<g>
</g>
<g>
</g>
<g>
</g>
</svg>
