<?xml version="1.0" encoding="iso-8859-1"?>
<!-- Generator: Adobe Illustrator 19.0.0, SVG Export Plug-In . SVG Version: 6.00 Build 0)  -->
<svg xmlns="http://www.w3.org/2000/svg" xmlns:xlink="http://www.w3.org/1999/xlink" version="1.1" id="Layer_1" x="0px" y="0px" viewBox="0 0 512 512" style="enable-background:new 0 0 512 512;" xml:space="preserve">
<g>
	<g>
		<path d="M511.184,471.298l-50.052-155.216c-1.304-4.046-4.105-7.443-7.827-9.495L347.268,248.1    c12.659-18.072,20.101-40.053,20.101-63.745v-54.104c0-61.409-49.959-111.369-111.369-111.369s-111.368,49.96-111.368,111.37    v54.104c0,23.69,7.44,45.673,20.101,63.745L58.694,306.587c-3.722,2.053-6.521,5.449-7.827,9.495L0.817,471.298    c-3.477,10.779,4.581,21.819,15.889,21.819c15.983,0,453.841,0,478.589,0C506.62,493.117,514.655,482.061,511.184,471.298z     M178.022,130.252c0-42.997,34.982-77.979,77.979-77.979s77.979,34.982,77.979,77.979v54.104c0,43.19-35.182,77.979-77.979,77.979    c-42.947,0-77.979-34.93-77.979-77.979V130.252z M264.625,295.392l-8.625,12.674l-8.626-12.674    C252.847,295.813,258.854,295.836,264.625,295.392z M39.631,459.727l40.985-127.1l81.095-44.728l36.602,171.828H39.631z     M220.771,404.897l-27.354-128.419c0.424,0.288,0.851,0.573,1.279,0.856l43.201,63.479L220.771,404.897z M240.68,459.728    l15.32-57.327l15.32,57.327H240.68z M274.104,340.813l43.201-63.479c0.427-0.283,0.855-0.568,1.279-0.856l-27.355,128.419    L274.104,340.813z M313.688,459.728L350.29,287.9l81.095,44.728l40.985,127.1H313.688z"/>
	</g>
</g>
<g>
</g>
<g>
</g>
<g>
</g>
<g>
</g>
<g>
</g>
<g>
</g>
<g>
</g>
<g>
</g>
<g>
</g>
<g>
</g>
<g>
</g>
<g>
</g>
<g>
</g>
<g>
</g>
<g>
</g>
</svg>
