<?xml version="1.0" encoding="iso-8859-1"?>
<!-- Generator: Adobe Illustrator 19.0.0, SVG Export Plug-In . SVG Version: 6.00 Build 0)  -->
<svg xmlns="http://www.w3.org/2000/svg" xmlns:xlink="http://www.w3.org/1999/xlink" version="1.1" id="Layer_1" x="0px" y="0px" viewBox="0 0 512 512" style="enable-background:new 0 0 512 512;" xml:space="preserve">
<g>
	<g>
		<path d="M268.305,264.594h-41.804c-9.425,0-17.066,7.641-17.066,17.066v41.804c0,9.425,7.641,17.066,17.066,17.066h41.804    c9.425,0,17.066-7.641,17.066-17.066V281.66C285.371,272.235,277.73,264.594,268.305,264.594z"/>
	</g>
</g>
<g>
	<g>
		<path d="M360.229,264.594h-41.804c-9.425,0-17.066,7.641-17.066,17.066v41.804c0,9.425,7.641,17.066,17.066,17.066h41.804    c9.425,0,17.066-7.641,17.066-17.066V281.66C377.294,272.235,369.653,264.594,360.229,264.594z"/>
	</g>
</g>
<g>
	<g>
		<path d="M268.305,356.517h-41.804c-9.425,0-17.066,7.641-17.066,17.066v41.804c0,9.425,7.641,17.066,17.066,17.066h41.804    c9.425,0,17.066-7.641,17.066-17.066v-41.804C285.371,364.158,277.73,356.517,268.305,356.517z"/>
	</g>
</g>
<g>
	<g>
		<path d="M360.229,356.517h-41.804c-9.425,0-17.066,7.641-17.066,17.066v41.804c0,9.425,7.641,17.066,17.066,17.066h41.804    c9.425,0,17.066-7.641,17.066-17.066v-41.804C377.294,364.158,369.653,356.517,360.229,356.517z"/>
	</g>
</g>
<g>
	<g>
		<path d="M372.254,205.352c0-11.593,0-102.381,0-114.865c0-0.059,0.005-0.117,0.005-0.176C372.259,30.357,286.325,0,213.723,0    C128.344,0,55.19,37.051,55.19,90.31c0,0.059,0.005,0.117,0.005,0.176c0,13.911,0,317.795,0,331.175    c0,64.74,106.182,102.668,203.881,86.694c11.199,2.393,22.713,3.617,34.29,3.617c90.124,0,163.445-73.322,163.445-163.445    C456.81,287.521,423.237,233.469,372.254,205.352z M213.723,34.132c72.082,0,124.331,29.407,124.402,56.124    c0,0.019-0.002,0.038-0.002,0.057c0,42.792-120.36,77.195-206.346,41.391c-26.286-10.948-42.451-26.61-42.451-41.391    c0-0.019-0.002-0.038-0.002-0.057C89.394,63.463,141.835,34.132,213.723,34.132z M89.309,147.268    c62.616,44.512,186.163,44.495,248.814,0.014v43.985c-63.961-18.233-134.872,3.955-176.302,60.224    c-25.228-5.602-66.434-21.231-71.978-46.197C89.1,202.026,89.27,204.84,89.309,147.268z M129.954,351.808    c-16.654-7.235-38.839-20.824-40.554-38.83c-0.109-1.139-0.074,1.354-0.074-55.071c15.326,10.874,36.008,19.289,54.607,24.331    C134.653,303.143,129.454,327.019,129.954,351.808z M89.326,421.662v-53.517c12.704,9.102,29.661,16.943,45.953,22.038    c9.143,34.796,29.442,65.095,56.943,86.774C132.134,471.941,89.326,445.916,89.326,421.662z M293.364,477.842    c-70.983,0-129.312-57.483-129.312-129.313c0-71.206,57.933-129.325,129.312-129.325c71.416,0,129.313,57.9,129.313,129.325    C422.678,419.832,364.668,477.842,293.364,477.842z"/>
	</g>
</g>
<g>
</g>
<g>
</g>
<g>
</g>
<g>
</g>
<g>
</g>
<g>
</g>
<g>
</g>
<g>
</g>
<g>
</g>
<g>
</g>
<g>
</g>
<g>
</g>
<g>
</g>
<g>
</g>
<g>
</g>
</svg>
