<?xml version="1.0" encoding="iso-8859-1"?>
<!-- Generator: Adobe Illustrator 19.0.0, SVG Export Plug-In . SVG Version: 6.00 Build 0)  -->
<svg xmlns="http://www.w3.org/2000/svg" xmlns:xlink="http://www.w3.org/1999/xlink" version="1.1" id="Layer_1" x="0px" y="0px" viewBox="0 0 512 512" style="enable-background:new 0 0 512 512;" xml:space="preserve">
<g>
	<g>
		<path d="M471.479,95.426l-90.43-90.429C377.878,1.824,373.487,0,368.978,0H175.225c-9.425,0-17.067,7.641-17.067,17.067v105.57    H52.588c-9.425,0-17.067,7.641-17.067,17.067v355.229c0,9.425,7.641,17.067,17.067,17.067h284.186    c9.425,0,17.067-7.641,17.067-17.067v-105.57h105.57c9.425,0,17.067-7.641,17.067-17.067V107.499    C476.478,103.127,474.721,98.669,471.479,95.426z M386.047,58.272l32.156,32.155h-32.156V58.272z M69.655,477.867V156.771    c2.147,0,155.209,0,159.622,0v73.361c0,9.425,7.641,17.067,17.067,17.067h73.363c0.001,9.593,0.001,215.9,0.001,230.668H69.655z     M263.41,213.065V180.91l32.156,32.155H263.41z M442.344,355.229h-88.502V230.137c0-4.386-1.748-8.82-4.999-12.073l-90.43-90.43    c-3.28-3.281-7.736-4.997-12.07-4.997h-54.05V34.133h159.622v73.361c0,9.425,7.641,17.067,17.067,17.067h73.363V355.229z"/>
	</g>
</g>
<g>
</g>
<g>
</g>
<g>
</g>
<g>
</g>
<g>
</g>
<g>
</g>
<g>
</g>
<g>
</g>
<g>
</g>
<g>
</g>
<g>
</g>
<g>
</g>
<g>
</g>
<g>
</g>
<g>
</g>
</svg>
