<?xml version="1.0" encoding="iso-8859-1"?>
<!-- Generator: Adobe Illustrator 19.0.0, SVG Export Plug-In . SVG Version: 6.00 Build 0)  -->
<svg xmlns="http://www.w3.org/2000/svg" xmlns:xlink="http://www.w3.org/1999/xlink" version="1.1" id="Layer_1" x="0px" y="0px" viewBox="0 0 512 512" style="enable-background:new 0 0 512 512;" xml:space="preserve">
<g>
	<g>
		<path d="M256,0C114.512,0,0,114.497,0,256c0,141.488,114.497,256,256,256c141.488,0,256-114.497,256-256    C512,114.512,397.503,0,256,0z M256,477.867c-122.337,0-221.867-99.529-221.867-221.867S133.663,34.133,256,34.133    S477.867,133.663,477.867,256S378.337,477.867,256,477.867z"/>
	</g>
</g>
<g>
	<g>
		<path d="M249.507,311.95c-12.122,0-21.935,10.101-21.935,22.224c0,11.833,9.524,22.224,21.935,22.224s22.224-10.391,22.224-22.224    C271.731,322.051,261.629,311.95,249.507,311.95z"/>
	</g>
</g>
<g>
	<g>
		<path d="M253.259,143.679c-38.964,0-56.86,23.091-56.86,38.676c0,11.257,9.526,16.452,17.318,16.452    c15.586,0,9.237-22.224,38.677-22.224c14.432,0,25.977,6.349,25.977,19.627c0,15.585-16.163,24.534-25.688,32.614    c-8.371,7.216-19.339,19.05-19.339,43.873c0,15.007,4.041,19.338,15.874,19.338c14.144,0,17.03-6.35,17.03-11.834    c0-15.007,0.288-23.667,16.162-36.078c7.794-6.061,32.327-25.688,32.327-52.819S290.204,143.679,253.259,143.679z"/>
	</g>
</g>
<g>
</g>
<g>
</g>
<g>
</g>
<g>
</g>
<g>
</g>
<g>
</g>
<g>
</g>
<g>
</g>
<g>
</g>
<g>
</g>
<g>
</g>
<g>
</g>
<g>
</g>
<g>
</g>
<g>
</g>
</svg>
