<?xml version="1.0" encoding="iso-8859-1"?>
<!-- Generator: Adobe Illustrator 19.0.0, SVG Export Plug-In . SVG Version: 6.00 Build 0)  -->
<svg xmlns="http://www.w3.org/2000/svg" xmlns:xlink="http://www.w3.org/1999/xlink" version="1.1" id="Layer_1" x="0px" y="0px" viewBox="0 0 512 512" style="enable-background:new 0 0 512 512;" xml:space="preserve">
<g>
	<g>
		<path d="M324.672,33.692c-9.046-2.645-18.525,2.538-21.173,11.585c-2.649,9.046,2.538,18.526,11.585,21.174    C401.846,91.846,465.92,172.113,465.92,267.947c0,115.75-94.17,209.92-209.92,209.92s-209.92-94.17-209.92-209.92    c0-95.63,63.878-176.043,150.835-201.495c9.045-2.648,14.234-12.128,11.585-21.174c-2.648-9.047-12.133-14.232-21.173-11.585    C87.286,62.976,11.947,155.664,11.947,267.947C11.947,402.834,121.101,512,256,512c134.888,0,244.053-109.154,244.053-244.053    C500.053,156.404,425.442,63.188,324.672,33.692z"/>
	</g>
</g>
<g>
	<g>
		<path d="M256,0c-9.425,0-17.067,7.641-17.067,17.067v161.059c0,9.425,7.641,17.067,17.067,17.067s17.067-7.641,17.067-17.067    V17.067C273.067,7.641,265.425,0,256,0z"/>
	</g>
</g>
<g>
</g>
<g>
</g>
<g>
</g>
<g>
</g>
<g>
</g>
<g>
</g>
<g>
</g>
<g>
</g>
<g>
</g>
<g>
</g>
<g>
</g>
<g>
</g>
<g>
</g>
<g>
</g>
<g>
</g>
</svg>
