<?xml version="1.0" encoding="iso-8859-1"?>
<!-- Generator: Adobe Illustrator 19.0.0, SVG Export Plug-In . SVG Version: 6.00 Build 0)  -->
<svg xmlns="http://www.w3.org/2000/svg" xmlns:xlink="http://www.w3.org/1999/xlink" version="1.1" id="Layer_1" x="0px" y="0px" viewBox="0 0 512 512" style="enable-background:new 0 0 512 512;" xml:space="preserve">
<g>
	<g>
		<path d="M256,0C114.509,0,0,114.497,0,256c0,141.491,114.497,256,256,256c141.49,0,256-114.497,256-256    C512,114.51,397.503,0,256,0z M34.133,256c0-122.337,99.529-221.867,221.867-221.867c55.039,0,105.455,20.153,144.274,53.457    L87.59,400.275C54.287,361.455,34.133,311.039,34.133,256z M256,477.867c-55.039,0-105.455-20.154-144.274-53.457L424.41,111.725    c33.303,38.82,53.456,89.236,53.456,144.275C477.867,378.337,378.337,477.867,256,477.867z"/>
	</g>
</g>
<g>
</g>
<g>
</g>
<g>
</g>
<g>
</g>
<g>
</g>
<g>
</g>
<g>
</g>
<g>
</g>
<g>
</g>
<g>
</g>
<g>
</g>
<g>
</g>
<g>
</g>
<g>
</g>
<g>
</g>
</svg>
