<?xml version="1.0" encoding="iso-8859-1"?>
<!-- Generator: Adobe Illustrator 19.0.0, SVG Export Plug-In . SVG Version: 6.00 Build 0)  -->
<svg xmlns="http://www.w3.org/2000/svg" xmlns:xlink="http://www.w3.org/1999/xlink" version="1.1" id="Layer_1" x="0px" y="0px" viewBox="0 0 511.998 511.998" style="enable-background:new 0 0 511.998 511.998;" xml:space="preserve">
<g>
	<g>
		<path d="M499.203,372.79l-92.065-92.065l4.682-4.682c7.31-7.309,7.315-19.176,0-26.49l-39.07-39.07    c-7.314-7.314-19.175-7.315-26.49,0l-32.748,32.748L161.91,91.63l-3.42-27.098c-0.696-5.502-3.793-10.415-8.458-13.413    L75.095,2.973c-7.411-4.762-17.142-3.716-23.371,2.514L5.501,51.707c-6.23,6.23-7.277,15.959-2.515,23.371l48.15,74.937    c2.997,4.667,7.91,7.764,13.412,8.458l27.097,3.422l151.6,151.599l-32.748,32.748c-7.31,7.309-7.315,19.176,0,26.49l39.07,39.07    c7.314,7.315,19.175,7.315,26.49,0l4.682-4.682l92.067,92.065c17.081,17.082,44.728,17.083,61.81,0    c9.086-9.086,55.588-55.588,64.586-64.586C516.244,417.56,516.244,389.831,499.203,372.79z M113.601,130.869    c-2.941-2.94-6.775-4.818-10.899-5.339l-24.779-3.128L42.665,67.525l24.877-24.877l54.876,35.259l3.128,24.779    c0.521,4.125,2.399,7.96,5.339,10.899l156.137,156.135l-17.284,17.283L113.601,130.869z M262.814,372.067l-12.58-12.58    c4.418-4.418,104.724-104.723,109.271-109.268l12.58,12.58L262.814,372.067z M434.832,445.991L410.02,421.18    c-3.081-3.081-3.081-8.094,0-11.177c3.082-3.079,8.095-3.082,11.177,0l24.811,24.811L434.832,445.991z M472.713,408.111    l-0.215,0.215l-24.812-24.812c-17.689-17.689-46.468-17.688-64.157-0.001c0,0,0,0,0,0.001c-17.688,17.688-17.688,46.468,0,64.157    l24.812,24.812l-0.215,0.215c-2.435,2.435-6.397,2.434-8.83,0l-92.067-92.065l73.418-73.416l92.065,92.064    C475.147,401.714,475.147,405.676,472.713,408.111z"/>
	</g>
</g>
<g>
</g>
<g>
</g>
<g>
</g>
<g>
</g>
<g>
</g>
<g>
</g>
<g>
</g>
<g>
</g>
<g>
</g>
<g>
</g>
<g>
</g>
<g>
</g>
<g>
</g>
<g>
</g>
<g>
</g>
</svg>
