<?xml version="1.0" encoding="iso-8859-1"?>
<!-- Generator: Adobe Illustrator 19.0.0, SVG Export Plug-In . SVG Version: 6.00 Build 0)  -->
<svg xmlns="http://www.w3.org/2000/svg" xmlns:xlink="http://www.w3.org/1999/xlink" version="1.1" id="Layer_1" x="0px" y="0px" viewBox="0 0 512 512" style="enable-background:new 0 0 512 512;" xml:space="preserve">
<g>
	<g>
		<path d="M256,22.093c-139.067,0-256,95.46-256,218.074C0,308.28,36.741,371.5,99.275,412.669l-41,49.199    c-10.633,12.759,1.541,31.885,17.712,27.361l127.252-35.622C360.473,481.621,512,380.468,512,240.168    C512,117.399,394.876,22.093,256,22.093z M205.681,419.345c-2.601-0.501-5.28-0.39-7.829,0.323l-78.228,21.899l18.588-22.305    c6.859-8.23,4.518-20.688-4.863-25.867c-62.126-34.294-99.215-91.575-99.215-153.227c0-101.425,99.529-183.941,221.867-183.941    s221.867,82.515,221.867,183.941C477.867,359.137,343.752,445.942,205.681,419.345z"/>
	</g>
</g>
<g>
	<g>
		<path d="M256.14,138.544c-11.217,0-19.973,6.019-19.973,16.689c0,32.557,3.83,79.342,3.83,111.9    c-0.001,8.481,7.386,12.038,16.142,12.038c6.566,0,15.869-3.557,15.869-12.038c0-32.558,3.831-79.342,3.831-111.9    C275.838,144.563,266.809,138.544,256.14,138.544z"/>
	</g>
</g>
<g>
	<g>
		<path d="M256.412,298.049c-12.038,0-21.067,9.577-21.067,21.067c0,11.217,9.029,21.067,21.067,21.067    c11.217,0,20.793-9.849,20.793-21.067C277.205,307.626,267.629,298.049,256.412,298.049z"/>
	</g>
</g>
<g>
</g>
<g>
</g>
<g>
</g>
<g>
</g>
<g>
</g>
<g>
</g>
<g>
</g>
<g>
</g>
<g>
</g>
<g>
</g>
<g>
</g>
<g>
</g>
<g>
</g>
<g>
</g>
<g>
</g>
</svg>
