<?xml version="1.0" encoding="iso-8859-1"?>
<!-- Generator: Adobe Illustrator 19.0.0, SVG Export Plug-In . SVG Version: 6.00 Build 0)  -->
<svg xmlns="http://www.w3.org/2000/svg" xmlns:xlink="http://www.w3.org/1999/xlink" version="1.1" id="Layer_1" x="0px" y="0px" viewBox="0 0 512 512" style="enable-background:new 0 0 512 512;" xml:space="preserve">
<g>
	<g>
		<path d="M506.376,428.481L235.762,157.867c-7.497-7.497-19.654-7.497-27.153,0l-50.74,50.741c-7.498,7.497-7.498,19.654,0,27.153    l270.614,270.614c7.498,7.498,19.654,7.498,27.153,0l50.74-50.74C513.875,448.137,513.875,435.979,506.376,428.481z     M225.558,249.14l-26.957-26.957l23.585-23.588l26.958,26.958L225.558,249.14z M442.06,465.645l-189.35-189.352l23.588-23.587    l189.352,189.352L442.06,465.645z"/>
	</g>
</g>
<g>
	<g>
		<path d="M163.969,136.819l-57.633-57.635c-7.5-7.5-19.654-7.497-27.153,0s-7.498,19.654,0,27.153l57.632,57.633    c7.497,7.497,19.653,7.5,27.153,0C171.466,156.473,171.466,144.316,163.969,136.819z"/>
	</g>
</g>
<g>
	<g>
		<path d="M100.705,251.149H19.2c-10.604,0-19.2,8.596-19.2,19.2s8.596,19.2,19.2,19.2h81.505c10.604,0,19.2-8.596,19.2-19.2    S111.309,251.149,100.705,251.149z"/>
	</g>
</g>
<g>
	<g>
		<path d="M270.346,0.002c-10.604,0-19.2,8.596-19.2,19.2v81.505c0,10.604,8.596,19.2,19.2,19.2s19.2-8.596,19.2-19.2V19.202    C289.546,8.599,280.95,0.002,270.346,0.002z"/>
	</g>
</g>
<g>
</g>
<g>
</g>
<g>
</g>
<g>
</g>
<g>
</g>
<g>
</g>
<g>
</g>
<g>
</g>
<g>
</g>
<g>
</g>
<g>
</g>
<g>
</g>
<g>
</g>
<g>
</g>
<g>
</g>
</svg>
