<?xml version="1.0" encoding="iso-8859-1"?>
<!-- Generator: Adobe Illustrator 19.0.0, SVG Export Plug-In . SVG Version: 6.00 Build 0)  -->
<svg xmlns="http://www.w3.org/2000/svg" xmlns:xlink="http://www.w3.org/1999/xlink" version="1.1" id="Layer_1" x="0px" y="0px" viewBox="0 0 512 512" style="enable-background:new 0 0 512 512;" xml:space="preserve">
<g>
	<g>
		<path d="M493.268,0H18.732C8.387,0,0,8.387,0,18.732v474.537C0,503.613,8.387,512,18.732,512h474.537    c10.345,0,18.732-8.387,18.732-18.732V18.732C512,8.387,503.613,0,493.268,0z M112.39,474.537H37.463v-81.171h74.927V474.537z     M112.39,355.902H37.463v-81.171h74.927V355.902z M112.39,237.268H37.463v-81.171h74.927V237.268z M112.39,118.634H37.463V37.463    h74.927V118.634z M362.146,474.537H149.854V37.463h212.293V474.537z M474.537,474.537H399.61v-81.171h74.927V474.537z     M474.537,355.902H399.61v-81.171h74.927V355.902z M474.537,237.268H399.61v-81.171h74.927V237.268z M474.537,118.634H399.61    V37.463h74.927V118.634z"/>
	</g>
</g>
<g>
</g>
<g>
</g>
<g>
</g>
<g>
</g>
<g>
</g>
<g>
</g>
<g>
</g>
<g>
</g>
<g>
</g>
<g>
</g>
<g>
</g>
<g>
</g>
<g>
</g>
<g>
</g>
<g>
</g>
</svg>
