<?xml version="1.0" encoding="iso-8859-1"?>
<!-- Generator: Adobe Illustrator 19.0.0, SVG Export Plug-In . SVG Version: 6.00 Build 0)  -->
<svg xmlns="http://www.w3.org/2000/svg" xmlns:xlink="http://www.w3.org/1999/xlink" version="1.1" id="Layer_1" x="0px" y="0px" viewBox="0 0 512 512" style="enable-background:new 0 0 512 512;" xml:space="preserve">
<g>
	<g>
		<path d="M503.863,150.481c-14.905-20.541-44.359-23.693-63.274-6.749l-81.813,71.083l-37.933-15.189    c15.357-7.199,26.02-22.808,26.02-40.86c0-24.872-20.23-45.107-45.096-45.107H169.458c-3.926,0-7.71,1.461-10.618,4.098    l-69.928,63.428l-7.353-7.353c-6.171-6.172-16.177-6.172-22.349,0L4.629,228.413c-6.172,6.172-6.172,16.177,0,22.349    l142.95,142.95c6.171,6.172,16.177,6.173,22.349,0l54.582-54.582c6.169-6.169,6.171-16.177,0-22.349l-5.707-5.707l28.162-15.057    l128.387,20.04c4.864,0.755,9.801-0.791,13.359-4.192l109.888-105.066C514.206,192.056,516.474,167.858,503.863,150.481z     M158.753,360.187l-120.6-120.6l32.231-32.232l120.6,120.6L158.753,360.187z M476.882,183.832    c-0.031,0.028-0.06,0.057-0.091,0.085l-104.281,99.705l-125.898-19.651c-3.39-0.528-6.863,0.06-9.889,1.678l-41.275,22.07    l-84.16-84.159l64.269-58.295h126.209c7.438,0,13.49,6.057,13.49,13.5c0,7.439-6.052,13.491-13.49,13.491h-52.324    c-17.315,0-21.95,24.038-5.875,30.474l112.417,45.013c5.501,2.201,11.768,1.143,16.24-2.741l89.195-77.496    c0.077-0.066,0.153-0.134,0.228-0.201c4.957-4.478,12.704-3.678,16.637,1.74C481.593,173.606,480.991,179.964,476.882,183.832z"/>
	</g>
</g>
<g>
</g>
<g>
</g>
<g>
</g>
<g>
</g>
<g>
</g>
<g>
</g>
<g>
</g>
<g>
</g>
<g>
</g>
<g>
</g>
<g>
</g>
<g>
</g>
<g>
</g>
<g>
</g>
<g>
</g>
</svg>
