<?xml version="1.0" encoding="iso-8859-1"?>
<!-- Generator: Adobe Illustrator 19.0.0, SVG Export Plug-In . SVG Version: 6.00 Build 0)  -->
<svg xmlns="http://www.w3.org/2000/svg" xmlns:xlink="http://www.w3.org/1999/xlink" version="1.1" id="Layer_1" x="0px" y="0px" viewBox="0 0 512 512" style="enable-background:new 0 0 512 512;" xml:space="preserve">
<g>
	<g>
		<path d="M506.541,243.065l-92.629-81.069c-10.334-9.045-26.538-1.668-26.538,12.041v15.199h-19.525v-80.156    c0-48.289-66.128-80.953-141.454-80.953c-76.156,0-141.454,33.119-141.454,80.953v80.156H16c-8.836,0-16,7.164-16,16v99.742    c0,8.836,7.164,16,16,16h68.941v81.944c0,48.071,65.726,80.953,141.454,80.953c76.171,0,141.454-33.129,141.454-80.953v-81.944    h19.525v15.199c0,13.733,16.221,21.066,26.538,12.041l92.629-81.069C513.823,260.771,513.818,249.433,506.541,243.065z     M226.395,60.125c63.422,0,109.454,25.851,109.454,48.953c0,24.558-50.45,49.483-109.459,49.223    c-58.036-0.256-109.449-23.948-109.449-49.223C116.942,86.093,162.663,60.125,226.395,60.125z M226.39,190.07    c36.391,0,79.235-8.026,109.458-28.811c0.001,51.348-0.032,47.881-0.457,49.784c-7.246,32.175-72.148,44.934-108.996,44.934    c-52.54,0-103.382-20.046-108.986-44.877c-0.467-2.062-0.468,1.545-0.468-49.84C147.172,182.056,189.962,190.07,226.39,190.07z     M335.85,402.92h-0.001c0,22.984-45.722,48.953-109.454,48.953c-63.629,0-109.453-25.93-109.453-48.953v-45.765    c55.485,38.157,162.838,38.56,218.908,0V402.92z M418.947,301.284c-1.667-7.057-8.006-12.307-15.572-12.307h-51.453    c-0.025,0-0.048-0.003-0.073-0.003c-8.836,0-16,7.164-16,16c0,2.957-0.823,6-2.085,8.673    c-9.931,21.105-53.1,40.274-107.368,40.274c-52.509,0-97.005-18.268-107.36-40.255c-1.294-2.734-2.094-5.732-2.094-8.692    c0-8.836-7.164-16-16-16c-0.025,0-0.048,0.003-0.073,0.003H32v-67.742h54.959c25.863,89.844,253.955,86.557,278.871,0h37.544    c7.566,0,13.905-5.25,15.572-12.307l52.763,46.178L418.947,301.284z"/>
	</g>
</g>
<g>
</g>
<g>
</g>
<g>
</g>
<g>
</g>
<g>
</g>
<g>
</g>
<g>
</g>
<g>
</g>
<g>
</g>
<g>
</g>
<g>
</g>
<g>
</g>
<g>
</g>
<g>
</g>
<g>
</g>
</svg>
