<?xml version="1.0" encoding="iso-8859-1"?>
<!-- Generator: Adobe Illustrator 19.0.0, SVG Export Plug-In . SVG Version: 6.00 Build 0)  -->
<svg xmlns="http://www.w3.org/2000/svg" xmlns:xlink="http://www.w3.org/1999/xlink" version="1.1" id="Layer_1" x="0px" y="0px" viewBox="0 0 512 512" style="enable-background:new 0 0 512 512;" xml:space="preserve">
<g>
	<g>
		<path d="M495.304,61.217H16.696C7.475,61.217,0,68.693,0,77.913v356.174c0,9.22,7.475,16.696,16.696,16.696h478.609    c9.22,0,16.696-7.475,16.696-16.696V77.913C512,68.693,504.525,61.217,495.304,61.217z M478.609,417.391H33.391V194.424h445.217    V417.391z M478.609,161.033H33.391V94.609h445.217V161.033z"/>
	</g>
</g>
<g>
	<g>
		<path d="M443.568,103.247c-12.275,0-22.261,9.986-22.261,22.261c0,12.275,9.986,22.261,22.261,22.261s22.261-9.986,22.261-22.261    C465.829,113.233,455.843,103.247,443.568,103.247z"/>
	</g>
</g>
<g>
	<g>
		<path d="M382.926,103.247c-12.275,0-22.261,9.986-22.261,22.261c0,12.275,9.986,22.261,22.261,22.261s22.261-9.986,22.261-22.261    C405.187,113.233,395.201,103.247,382.926,103.247z"/>
	</g>
</g>
<g>
	<g>
		<path d="M439.652,216.685H72.348c-9.22,0-16.696,7.475-16.696,16.696v145.054c0,9.22,7.475,16.696,16.696,16.696h367.304    c9.22,0,16.696-7.475,16.696-16.696V233.381C456.348,224.16,448.873,216.685,439.652,216.685z M422.957,361.739H89.044V250.076    h333.913V361.739z"/>
	</g>
</g>
<g>
</g>
<g>
</g>
<g>
</g>
<g>
</g>
<g>
</g>
<g>
</g>
<g>
</g>
<g>
</g>
<g>
</g>
<g>
</g>
<g>
</g>
<g>
</g>
<g>
</g>
<g>
</g>
<g>
</g>
</svg>
