<?xml version="1.0" encoding="iso-8859-1"?>
<!-- Generator: Adobe Illustrator 19.0.0, SVG Export Plug-In . SVG Version: 6.00 Build 0)  -->
<svg xmlns="http://www.w3.org/2000/svg" xmlns:xlink="http://www.w3.org/1999/xlink" version="1.1" id="Layer_1" x="0px" y="0px" viewBox="0 0 512 512" style="enable-background:new 0 0 512 512;" xml:space="preserve">
<g>
	<g>
		<path d="M465.89,43.514h-63.591V18.067C402.299,8.089,394.21,0,384.233,0s-18.067,8.089-18.067,18.067v25.447H145.834V18.067    C145.834,8.089,137.745,0,127.767,0s-18.067,8.089-18.067,18.067v25.447H46.11c-9.978,0-18.067,8.089-18.067,18.067    c0,11.51,0,421.192,0,432.353c0,9.978,8.089,18.067,18.067,18.067H465.89c9.978,0,18.067-8.089,18.067-18.067    c0-11.162,0-420.843,0-432.353C483.957,51.603,475.868,43.514,465.89,43.514z M447.824,475.867H64.176v-301.52h383.647V475.867z     M447.824,138.213H64.176V79.647h383.647V138.213z"/>
	</g>
</g>
<g>
	<g>
		<path d="M257.789,212.689l-39.361,23.855c-18.491,11.094-4.171,43.628,13.417,31.906l8.648-5.367v151.778    c0,9.543,11.629,14.314,23.259,14.314c11.63,0,23.26-4.771,23.26-14.314V225.211C287.013,213.027,266.671,207.135,257.789,212.689    z"/>
	</g>
</g>
<g>
</g>
<g>
</g>
<g>
</g>
<g>
</g>
<g>
</g>
<g>
</g>
<g>
</g>
<g>
</g>
<g>
</g>
<g>
</g>
<g>
</g>
<g>
</g>
<g>
</g>
<g>
</g>
<g>
</g>
</svg>
