<?xml version="1.0" encoding="iso-8859-1"?>
<!-- Generator: Adobe Illustrator 19.0.0, SVG Export Plug-In . SVG Version: 6.00 Build 0)  -->
<svg xmlns="http://www.w3.org/2000/svg" xmlns:xlink="http://www.w3.org/1999/xlink" version="1.1" id="Layer_1" x="0px" y="0px" viewBox="0 0 512 512" style="enable-background:new 0 0 512 512;" xml:space="preserve">
<g>
	<g>
		<path d="M256,22.094c-139.009,0-256,95.417-256,218.074c0,68.111,36.742,131.331,99.275,172.501l-41,49.199    c-10.635,12.761,1.542,31.884,17.712,27.361l127.252-35.623C359.702,481.484,512,381.084,512,240.168    C512,117.489,394.983,22.094,256,22.094z M205.682,419.345c-2.6-0.501-5.28-0.39-7.83,0.323l-78.229,21.899l18.588-22.305    c6.857-8.23,4.519-20.688-4.863-25.867c-62.124-34.294-99.214-91.575-99.214-153.227c0-101.426,99.529-183.941,221.867-183.941    s221.867,82.515,221.867,183.941C477.867,359.133,343.756,445.942,205.682,419.345z"/>
	</g>
</g>
<g>
</g>
<g>
</g>
<g>
</g>
<g>
</g>
<g>
</g>
<g>
</g>
<g>
</g>
<g>
</g>
<g>
</g>
<g>
</g>
<g>
</g>
<g>
</g>
<g>
</g>
<g>
</g>
<g>
</g>
</svg>
