<?xml version="1.0" encoding="iso-8859-1"?>
<!-- Generator: Adobe Illustrator 19.0.0, SVG Export Plug-In . SVG Version: 6.00 Build 0)  -->
<svg xmlns="http://www.w3.org/2000/svg" xmlns:xlink="http://www.w3.org/1999/xlink" version="1.1" id="Layer_1" x="0px" y="0px" viewBox="0 0 512 512" style="enable-background:new 0 0 512 512;" xml:space="preserve">
<g>
	<g>
		<path d="M288.09,50.884L138.442,162.009H17.588C7.875,162.009,0,169.884,0,179.597v152.812c0,9.713,7.875,17.588,17.588,17.588    h120.854L288.09,461.121c11.52,8.551,28.073,0.403,28.073-14.12V65.004C316.163,50.564,299.668,42.288,288.09,50.884z     M126.671,314.822H35.175V197.185h91.496V314.822z M280.988,412.036l-119.141-88.472V188.444l119.141-88.472V412.036z"/>
	</g>
</g>
<g>
	<g>
		<path d="M494.412,238.416h-110.88c-9.713,0-17.588,7.875-17.588,17.588s7.875,17.588,17.588,17.588h110.88    c9.713,0,17.588-7.875,17.588-17.588S504.125,238.416,494.412,238.416z"/>
	</g>
</g>
<g>
</g>
<g>
</g>
<g>
</g>
<g>
</g>
<g>
</g>
<g>
</g>
<g>
</g>
<g>
</g>
<g>
</g>
<g>
</g>
<g>
</g>
<g>
</g>
<g>
</g>
<g>
</g>
<g>
</g>
</svg>
