<?xml version="1.0" encoding="iso-8859-1"?>
<!-- Generator: Adobe Illustrator 19.0.0, SVG Export Plug-In . SVG Version: 6.00 Build 0)  -->
<svg xmlns="http://www.w3.org/2000/svg" xmlns:xlink="http://www.w3.org/1999/xlink" version="1.1" id="Layer_1" x="0px" y="0px" viewBox="0 0 512 512" style="enable-background:new 0 0 512 512;" xml:space="preserve">
<g>
	<g>
		<path d="M392.643,322.987c-7.027-6.282-17.815-5.68-24.098,1.347c-28.672,32.068-69.693,50.459-112.546,50.459    c-42.851,0-83.872-18.391-112.544-50.457c-6.282-7.025-17.07-7.63-24.098-1.346c-7.026,6.282-7.629,17.071-1.346,24.098    c31.314,35.02,74.664,56.716,120.922,61.028v69.75h-38.844c-9.425,0-17.067,7.641-17.067,17.067S190.664,512,200.089,512h111.819    c9.425,0,17.067-7.641,17.067-17.067s-7.641-17.067-17.067-17.067h-38.843v-69.75c46.259-4.313,89.611-26.01,120.925-61.032    C400.272,340.058,399.669,329.268,392.643,322.987z"/>
	</g>
</g>
<g>
	<g>
		<path d="M255.998,0c-64.424,0-116.837,52.413-116.837,116.837v106.984c0,64.424,52.413,116.838,116.837,116.838    s116.837-52.413,116.837-116.837V116.838C372.835,52.413,320.423,0,255.998,0z M338.702,223.821    c0,45.603-37.101,82.704-82.704,82.704c-39.753,0-73.036-28.196-80.923-65.637h41.524c9.425,0,17.067-7.641,17.067-17.067    s-7.641-17.067-17.067-17.067h-43.305v-19.359h43.305c9.425,0,17.067-7.641,17.067-17.067c0-9.425-7.641-17.067-17.067-17.067    h-43.305v-19.359h43.305c9.425,0,17.067-7.641,17.067-17.067c0-9.425-7.641-17.067-17.067-17.067h-41.524    c7.887-37.441,41.17-65.636,80.923-65.636c45.603,0,82.704,37.101,82.704,82.704V223.821z"/>
	</g>
</g>
<g>
</g>
<g>
</g>
<g>
</g>
<g>
</g>
<g>
</g>
<g>
</g>
<g>
</g>
<g>
</g>
<g>
</g>
<g>
</g>
<g>
</g>
<g>
</g>
<g>
</g>
<g>
</g>
<g>
</g>
</svg>
