<?xml version="1.0" encoding="iso-8859-1"?>
<!-- Generator: Adobe Illustrator 19.0.0, SVG Export Plug-In . SVG Version: 6.00 Build 0)  -->
<svg xmlns="http://www.w3.org/2000/svg" xmlns:xlink="http://www.w3.org/1999/xlink" version="1.1" id="Layer_1" x="0px" y="0px" viewBox="0 0 512 512" style="enable-background:new 0 0 512 512;" xml:space="preserve">
<g>
	<g>
		<path d="M152.695,245.166h-4.81c-20.595,0-37.35,16.755-37.35,37.35s16.755,37.35,37.35,37.35h4.81    c20.595,0,37.35-16.755,37.35-37.35C190.046,261.921,173.29,245.166,152.695,245.166z M152.695,287.866h-4.81    c-2.95,0-5.35-2.4-5.35-5.35c0-2.95,2.4-5.35,5.35-5.35h4.81c2.95,0,5.35,2.4,5.35,5.35    C158.046,285.466,155.645,287.866,152.695,287.866z"/>
	</g>
</g>
<g>
	<g>
		<path d="M363.667,245.166h-4.809c-20.595,0-37.35,16.755-37.35,37.35s16.755,37.35,37.35,37.35h4.809    c20.595,0,37.35-16.755,37.35-37.35C401.018,261.921,384.262,245.166,363.667,245.166z M363.667,287.866h-4.809    c-2.95,0-5.35-2.4-5.35-5.35c0-2.95,2.4-5.35,5.35-5.35h4.809c2.95,0,5.35,2.4,5.35,5.35    C369.018,285.466,366.618,287.866,363.667,287.866z"/>
	</g>
</g>
<g>
	<g>
		<path d="M281.104,266.516h-50.202c-8.836,0-16,7.164-16,16s7.164,16,16,16h50.202c8.836,0,16-7.164,16-16    S289.94,266.516,281.104,266.516z"/>
	</g>
</g>
<g>
	<g>
		<path d="M496,201.047h-55.703L397.69,91.737c-2.395-6.144-8.314-10.189-14.908-10.189H129.226    c-6.594,0-12.512,4.045-14.908,10.189L71.712,201.047H16c-8.836,0-16,7.164-16,16v44.118c0,8.836,7.164,16,16,16h50.647    c0,10.1,0,102.889,0,115.953c0,20.586,16.748,37.333,37.333,37.333h29.83c20.586,0,37.333-16.748,37.333-37.333v-29.135h169.718    v29.135c0,20.586,16.748,37.333,37.333,37.333h29.83c20.586,0,37.333-16.748,37.333-37.333c0-13.024,0-105.907,0-115.953H496    c8.836,0,16-7.164,16-16v-44.118C512,208.211,504.836,201.047,496,201.047z M66.647,245.166H32v-12.118h34.647V245.166z     M140.161,113.548h231.684l34.106,87.5H106.054L140.161,113.548z M139.145,393.119c0,2.941-2.393,5.333-5.333,5.333h-29.83    c-2.941,0-5.333-2.393-5.333-5.333v-29.135h40.497V393.119z M413.36,393.119c0,2.941-2.393,5.333-5.333,5.333h-29.83    c-2.941,0-5.333-2.393-5.333-5.333v-29.135h40.497V393.119z M356.863,331.983c-6.668,0.001-251.345,0.001-258.215,0.001v-70.819    v-28.118h314.705c0,13.969,0.007,35.564,0.007,98.937H356.863z M480,245.166h-34.64v-12.118H480V245.166z"/>
	</g>
</g>
<g>
</g>
<g>
</g>
<g>
</g>
<g>
</g>
<g>
</g>
<g>
</g>
<g>
</g>
<g>
</g>
<g>
</g>
<g>
</g>
<g>
</g>
<g>
</g>
<g>
</g>
<g>
</g>
<g>
</g>
</svg>
