<?xml version="1.0" encoding="iso-8859-1"?>
<!-- Generator: Adobe Illustrator 19.0.0, SVG Export Plug-In . SVG Version: 6.00 Build 0)  -->
<svg xmlns="http://www.w3.org/2000/svg" xmlns:xlink="http://www.w3.org/1999/xlink" version="1.1" id="Layer_1" x="0px" y="0px" viewBox="0 0 512.001 512.001" style="enable-background:new 0 0 512.001 512.001;" xml:space="preserve">
<g>
	<g>
		<path d="M466.749,45.25c-60.333-60.334-157.988-60.337-218.334,0.009c-40.26,40.26-54.86,99.108-38.886,153.043L5.769,402.065    c-3.94,3.94-6.027,9.364-5.742,14.928l3.712,72.608c0.516,10.084,8.576,18.144,18.66,18.66l72.608,3.712    c5.469,0.282,10.926-1.739,14.928-5.742l203.763-203.761c53.931,15.975,112.783,1.374,153.043-38.886    C527.072,203.253,527.097,105.597,466.749,45.25z M438.893,235.738c-21.988,21.988-51.41,33.703-81.385,33.7    c-14.079-0.001-28.284-2.586-41.889-7.907c-7.284-2.847-15.564-1.116-21.094,4.416l-116.72,116.718l-10.406-10.406    c-7.689-7.69-20.157-7.69-27.847,0c-7.69,7.69-7.69,20.157,0,27.847l10.406,10.406l-15.35,15.35l-10.406-10.406    c-7.689-7.69-20.157-7.69-27.847,0c-7.69,7.69-7.69,20.157,0,27.847l10.406,10.406l-18.486,18.486l-46.115-2.358l-2.358-46.115    l206.248-206.249c5.531-5.53,7.263-13.81,4.416-21.094c-16.647-42.57-6.52-90.959,25.794-123.274    c44.941-44.941,117.685-44.964,162.64-0.009C483.844,118.039,483.848,190.783,438.893,235.738z"/>
	</g>
</g>
<g>
	<g>
		<path d="M418.437,93.561c-28.831-28.83-68.916-33.92-91.25-11.583c-22.336,22.336-17.248,62.417,11.585,91.25    c28.83,28.83,68.912,33.924,91.25,11.585C452.358,162.477,447.27,122.394,418.437,93.561z M402.175,156.965    c-4.917,4.915-21.508,2.463-35.557-11.585c-14.041-14.042-16.504-30.636-11.585-35.557c7.209-7.207,26.178,2.207,35.555,11.585    C399.974,130.793,409.381,149.761,402.175,156.965z"/>
	</g>
</g>
<g>
</g>
<g>
</g>
<g>
</g>
<g>
</g>
<g>
</g>
<g>
</g>
<g>
</g>
<g>
</g>
<g>
</g>
<g>
</g>
<g>
</g>
<g>
</g>
<g>
</g>
<g>
</g>
<g>
</g>
</svg>
