<?xml version="1.0" encoding="iso-8859-1"?>
<!-- Generator: Adobe Illustrator 19.0.0, SVG Export Plug-In . SVG Version: 6.00 Build 0)  -->
<svg xmlns="http://www.w3.org/2000/svg" xmlns:xlink="http://www.w3.org/1999/xlink" version="1.1" id="Layer_1" x="0px" y="0px" viewBox="0 0 512 512" style="enable-background:new 0 0 512 512;" xml:space="preserve">
<g>
	<g>
		<path d="M256,0C114.51,0,0,114.497,0,256c0,141.49,114.497,256,256,256c141.49,0,256-114.497,256-256C512,114.51,397.503,0,256,0z     M256,477.867c-122.337,0-221.867-99.529-221.867-221.867S133.663,34.133,256,34.133S477.867,133.663,477.867,256    S378.337,477.867,256,477.867z"/>
	</g>
</g>
<g>
	<g>
		<path d="M345.962,152.299l-89.961,44.539l-89.961-44.539c-14.239-7.051-29.589,7.589-23.202,22.151l97.533,222.322    c5.967,13.6,25.303,13.571,31.258,0l97.533-222.322C375.547,159.896,360.207,145.243,345.962,152.299z M256.001,347.434    L192.949,203.71l55.48,27.468c4.771,2.362,10.373,2.362,15.145,0l55.48-27.468L256.001,347.434z"/>
	</g>
</g>
<g>
</g>
<g>
</g>
<g>
</g>
<g>
</g>
<g>
</g>
<g>
</g>
<g>
</g>
<g>
</g>
<g>
</g>
<g>
</g>
<g>
</g>
<g>
</g>
<g>
</g>
<g>
</g>
<g>
</g>
</svg>
