<?xml version="1.0" encoding="iso-8859-1"?>
<!-- Generator: Adobe Illustrator 19.0.0, SVG Export Plug-In . SVG Version: 6.00 Build 0)  -->
<svg xmlns="http://www.w3.org/2000/svg" xmlns:xlink="http://www.w3.org/1999/xlink" version="1.1" id="Layer_1" x="0px" y="0px" viewBox="0 0 512 512" style="enable-background:new 0 0 512 512;" xml:space="preserve">
<g>
	<g>
		<path d="M472.178,113.367h-88.751V54.605c0-9.425-7.641-17.067-17.067-17.067H145.64c-9.425,0-17.067,7.641-17.067,17.067v58.762    H39.822C17.864,113.367,0,131.231,0,153.189v281.45c0,21.958,17.864,39.822,39.822,39.822h432.356    c21.958,0,39.822-17.864,39.822-39.822v-281.45C512,131.231,494.136,113.367,472.178,113.367z M162.707,71.672h186.585v41.695    H162.707V71.672z M477.867,434.639c0,3.137-2.552,5.689-5.689,5.689H39.822c-3.137,0-5.689-2.552-5.689-5.689v-281.45    c0-3.137,2.552-5.689,5.689-5.689c11.209,0,420.696,0,432.356,0c3.137,0,5.689,2.552,5.689,5.689V434.639z"/>
	</g>
</g>
<g>
	<g>
		<path d="M405.932,200.25H106.068c-9.425,0-17.067,7.641-17.067,17.067s7.641,17.067,17.067,17.067h299.864    c9.425,0,17.067-7.641,17.067-17.067S415.357,200.25,405.932,200.25z"/>
	</g>
</g>
<g>
	<g>
		<path d="M405.932,276.848H106.068c-9.425,0-17.067,7.641-17.067,17.067s7.641,17.067,17.067,17.067h299.864    c9.425,0,17.067-7.641,17.067-17.067S415.357,276.848,405.932,276.848z"/>
	</g>
</g>
<g>
	<g>
		<path d="M405.932,353.445H106.068c-9.425,0-17.067,7.641-17.067,17.067s7.641,17.067,17.067,17.067h299.864    c9.425,0,17.067-7.641,17.067-17.067S415.357,353.445,405.932,353.445z"/>
	</g>
</g>
<g>
</g>
<g>
</g>
<g>
</g>
<g>
</g>
<g>
</g>
<g>
</g>
<g>
</g>
<g>
</g>
<g>
</g>
<g>
</g>
<g>
</g>
<g>
</g>
<g>
</g>
<g>
</g>
<g>
</g>
</svg>
