<?xml version="1.0" encoding="iso-8859-1"?>
<!-- Generator: Adobe Illustrator 19.0.0, SVG Export Plug-In . SVG Version: 6.00 Build 0)  -->
<svg xmlns="http://www.w3.org/2000/svg" xmlns:xlink="http://www.w3.org/1999/xlink" version="1.1" id="Layer_1" x="0px" y="0px" viewBox="0 0 512 512" style="enable-background:new 0 0 512 512;" xml:space="preserve">
<g>
	<g>
		<path d="M222.844,26.912H17.067C7.641,26.912,0,34.554,0,43.979v424.042c0,9.425,7.641,17.067,17.067,17.067h205.777    c9.425,0,17.067-7.641,17.067-17.067V43.979C239.911,34.554,232.271,26.912,222.844,26.912z M205.777,450.955H34.133V61.046    h171.644V450.955z"/>
	</g>
</g>
<g>
	<g>
		<path d="M151.48,119.765H88.43c-9.425,0-17.067,7.641-17.067,17.067s7.641,17.067,17.067,17.067h63.05    c9.425,0,17.067-7.641,17.067-17.067S160.906,119.765,151.48,119.765z"/>
	</g>
</g>
<g>
	<g>
		<path d="M151.48,199.211H88.43c-9.425,0-17.067,7.641-17.067,17.067s7.641,17.067,17.067,17.067h63.05    c9.425,0,17.067-7.641,17.067-17.067S160.906,199.211,151.48,199.211z"/>
	</g>
</g>
<g>
	<g>
		<path d="M151.48,278.657H88.43c-9.425,0-17.067,7.641-17.067,17.067c0,9.425,7.641,17.067,17.067,17.067h63.05    c9.425,0,17.067-7.641,17.067-17.067C168.547,286.298,160.906,278.657,151.48,278.657z"/>
	</g>
</g>
<g>
	<g>
		<path d="M151.48,358.102H88.43c-9.425,0-17.067,7.641-17.067,17.067s7.641,17.067,17.067,17.067h63.05    c9.425,0,17.067-7.641,17.067-17.067S160.906,358.102,151.48,358.102z"/>
	</g>
</g>
<g>
	<g>
		<path d="M494.933,26.912H289.156c-9.425,0-17.067,7.641-17.067,17.067v424.042c0,9.425,7.641,17.067,17.067,17.067h205.777    c9.425,0,17.067-7.641,17.067-17.067V43.979C512,34.554,504.359,26.912,494.933,26.912z M477.867,450.955H306.223V61.046h171.644    V450.955z"/>
	</g>
</g>
<g>
	<g>
		<path d="M423.57,119.765h-63.05c-9.425,0-17.067,7.641-17.067,17.067s7.641,17.067,17.067,17.067h63.05    c9.425,0,17.067-7.641,17.067-17.067S432.995,119.765,423.57,119.765z"/>
	</g>
</g>
<g>
	<g>
		<path d="M423.57,199.211h-63.05c-9.425,0-17.067,7.641-17.067,17.067s7.641,17.067,17.067,17.067h63.05    c9.425,0,17.067-7.641,17.067-17.067S432.995,199.211,423.57,199.211z"/>
	</g>
</g>
<g>
	<g>
		<path d="M423.57,278.657h-63.05c-9.425,0-17.067,7.641-17.067,17.067c0,9.425,7.641,17.067,17.067,17.067h63.05    c9.425,0,17.067-7.641,17.067-17.067C440.636,286.298,432.995,278.657,423.57,278.657z"/>
	</g>
</g>
<g>
	<g>
		<path d="M423.57,358.102h-63.05c-9.425,0-17.067,7.641-17.067,17.067s7.641,17.067,17.067,17.067h63.05    c9.425,0,17.067-7.641,17.067-17.067S432.995,358.102,423.57,358.102z"/>
	</g>
</g>
<g>
</g>
<g>
</g>
<g>
</g>
<g>
</g>
<g>
</g>
<g>
</g>
<g>
</g>
<g>
</g>
<g>
</g>
<g>
</g>
<g>
</g>
<g>
</g>
<g>
</g>
<g>
</g>
<g>
</g>
</svg>
