<?xml version="1.0" encoding="iso-8859-1"?>
<!-- Generator: Adobe Illustrator 19.0.0, SVG Export Plug-In . SVG Version: 6.00 Build 0)  -->
<svg xmlns="http://www.w3.org/2000/svg" xmlns:xlink="http://www.w3.org/1999/xlink" version="1.1" id="Layer_1" x="0px" y="0px" viewBox="0 0 511.999 511.999" style="enable-background:new 0 0 511.999 511.999;" xml:space="preserve">
<g>
	<g>
		<path d="M495.659,239.66h-14.385v-69.692c0-9.024-7.316-16.34-16.34-16.34h-69.692V59.357c0-9.024-7.316-16.34-16.34-16.34    H133.099c-9.024,0-16.34,7.316-16.34,16.34v57.4H47.166c-9.024,0-16.34,7.316-16.34,16.34v106.561H16.342    c-9.635,0-17.181,8.305-16.266,17.892L18.83,454.193c0.8,8.386,7.843,14.789,16.266,14.789h441.807    c8.423,0,15.467-6.403,16.266-14.789l18.754-196.643C512.84,247.96,505.287,239.66,495.659,239.66z M395.242,186.31h53.351v53.351    h-53.351V186.31z M149.439,75.697h213.123c0,4.499,0,153.739,0,163.962H149.439C149.439,232.727,149.439,82.724,149.439,75.697z     M63.506,149.439h53.252v90.221H63.506V149.439z M462.048,436.303H49.953L34.315,272.34c11.605,0,430.903,0,443.372,0    L462.048,436.303z"/>
	</g>
</g>
<g>
</g>
<g>
</g>
<g>
</g>
<g>
</g>
<g>
</g>
<g>
</g>
<g>
</g>
<g>
</g>
<g>
</g>
<g>
</g>
<g>
</g>
<g>
</g>
<g>
</g>
<g>
</g>
<g>
</g>
</svg>
