<?xml version="1.0" encoding="iso-8859-1"?>
<!-- Generator: Adobe Illustrator 19.0.0, SVG Export Plug-In . SVG Version: 6.00 Build 0)  -->
<svg xmlns="http://www.w3.org/2000/svg" xmlns:xlink="http://www.w3.org/1999/xlink" version="1.1" id="Layer_1" x="0px" y="0px" viewBox="0 0 511.999 511.999" style="enable-background:new 0 0 511.999 511.999;" xml:space="preserve">
<g>
	<g>
		<path d="M509.378,21.527c-0.154-10.381-8.532-18.76-18.913-18.912L313.759,0.003c-5.224-0.083-10.191,1.949-13.86,5.622    L5.624,299.9c-7.498,7.497-7.498,19.654,0,27.153l179.323,179.323c7.5,7.498,19.654,7.497,27.153,0L506.375,212.1    c3.671-3.67,5.699-8.669,5.622-13.861L509.378,21.527z M198.524,465.647L46.352,313.476L321.311,38.518l149.948,2.217    l2.221,149.953L198.524,465.647z"/>
	</g>
</g>
<g>
	<g>
		<path d="M430.401,184.947L327.052,81.599c-7.491-7.493-19.657-7.498-27.153,0L81.599,299.9c-7.498,7.497-7.498,19.654,0,27.153    L184.947,430.4c7.496,7.497,19.653,7.498,27.153,0l218.301-218.3C437.894,204.609,437.899,192.443,430.401,184.947z     M198.524,389.672l-76.195-76.196l191.148-191.149l76.196,76.196L198.524,389.672z"/>
	</g>
</g>
<g>
	<g>
		<path d="M442.846,69.153c-14.851-14.853-38.899-14.858-53.755-0.001c-14.857,14.854-14.862,38.899-0.003,53.756    c14.854,14.857,38.899,14.862,53.757,0.001c-0.001,0,0.001,0,0.001,0C457.7,108.055,457.704,84.009,442.846,69.153z"/>
	</g>
</g>
<g>
</g>
<g>
</g>
<g>
</g>
<g>
</g>
<g>
</g>
<g>
</g>
<g>
</g>
<g>
</g>
<g>
</g>
<g>
</g>
<g>
</g>
<g>
</g>
<g>
</g>
<g>
</g>
<g>
</g>
</svg>
