<?xml version="1.0" encoding="iso-8859-1"?>
<!-- Generator: Adobe Illustrator 19.0.0, SVG Export Plug-In . SVG Version: 6.00 Build 0)  -->
<svg xmlns="http://www.w3.org/2000/svg" xmlns:xlink="http://www.w3.org/1999/xlink" version="1.1" id="Layer_1" x="0px" y="0px" viewBox="0 0 512 512" style="enable-background:new 0 0 512 512;" xml:space="preserve">
<g>
	<g>
		<path d="M256,0C114.512,0,0,114.497,0,256c0,141.488,114.497,256,256,256c141.488,0,256-114.497,256-256    C512,114.512,397.503,0,256,0z M256,34.133c55.039,0,105.455,20.152,144.274,53.457L256,231.864L111.726,87.591    C150.545,54.286,200.961,34.133,256,34.133z M256,477.867c-122.337,0-221.867-99.529-221.867-221.867    c0-55.039,20.153-105.455,53.457-144.274l156.342,156.342c2.643,2.643,6.026,4.258,9.411,4.791l218.523,34.456    C448.646,404.992,360.679,477.867,256,477.867z M291.772,244.363l132.638-132.636c37.591,43.815,57.534,101.313,52.76,161.869    L291.772,244.363z"/>
	</g>
</g>
<g>
</g>
<g>
</g>
<g>
</g>
<g>
</g>
<g>
</g>
<g>
</g>
<g>
</g>
<g>
</g>
<g>
</g>
<g>
</g>
<g>
</g>
<g>
</g>
<g>
</g>
<g>
</g>
<g>
</g>
</svg>
