<?xml version="1.0" encoding="iso-8859-1"?>
<!-- Generator: Adobe Illustrator 19.0.0, SVG Export Plug-In . SVG Version: 6.00 Build 0)  -->
<svg xmlns="http://www.w3.org/2000/svg" xmlns:xlink="http://www.w3.org/1999/xlink" version="1.1" id="Layer_1" x="0px" y="0px" viewBox="0 0 511.999 511.999" style="enable-background:new 0 0 511.999 511.999;" xml:space="preserve">
<g>
	<g>
		<path d="M511.183,482.148l-50.052-155.219c-1.306-4.046-4.105-7.443-7.826-9.495l-26.835-14.803    c0.821-12.047,0.508-33.597,0.508-123.498c0-100.816-86.251-174.757-173.544-170.961c-0.033,0-0.066-0.003-0.099-0.002    l-0.885,0.025c-0.009,0-0.017,0.001-0.025,0.002C159.58,10.102,85.052,85.816,85.021,179.089c0,89.975-0.28,111.842,0.5,123.548    l-26.828,14.797c-3.722,2.053-6.52,5.449-7.826,9.495L0.816,482.148c-3.475,10.778,4.582,21.819,15.889,21.819h478.589    C506.619,503.967,514.654,492.91,511.183,482.148z M118.411,179.094c0.027-75.525,60.41-135.635,134.028-137.501    c0.09,0.002,0.181-0.004,0.272-0.003c0.069,0.001,0.137,0.01,0.205,0.01c0.292,0,0.587-0.008,0.879-0.023h0.002    c68.833-3.665,139.791,55.481,139.791,137.556c0,58.984,0.136,89.041-0.007,105.356l-46.101-25.43    c22.94-32.16,19.887-65.608,19.887-91.891c0-10.063-8.834-17.78-18.688-16.576c-39.221,4.718-78.757-9.649-105.758-38.422    c-7.407-7.896-20.27-6.748-26.169,2.319c-14.554,22.372-36.294,39.767-61.216,48.985c-6.553,2.423-10.904,8.671-10.904,15.658    c0,16.226-2.307,48.509,19.947,79.898l-46.156,25.456C118.29,268.468,118.411,238.779,118.411,179.094z M334.113,184.869    c-0.028,59.781-38.215,88.317-78.114,88.317c-39.105,0-77.663-29.133-78.042-82.879c20.241-9.282,39.392-23.363,54.994-41.776    C262.233,172.79,298.732,185.246,334.113,184.869z M39.63,470.577l40.984-127.101c11.002-6.068,97.205-53.614,108.013-59.575    c38.653,29.489,94.004,31.005,134.764,0.007c17.858,9.85,95.623,52.745,107.993,59.569l40.984,127.101H39.63z"/>
	</g>
</g>
<g>
</g>
<g>
</g>
<g>
</g>
<g>
</g>
<g>
</g>
<g>
</g>
<g>
</g>
<g>
</g>
<g>
</g>
<g>
</g>
<g>
</g>
<g>
</g>
<g>
</g>
<g>
</g>
<g>
</g>
</svg>
