<?xml version="1.0" encoding="iso-8859-1"?>
<!-- Generator: Adobe Illustrator 19.0.0, SVG Export Plug-In . SVG Version: 6.00 Build 0)  -->
<svg xmlns="http://www.w3.org/2000/svg" xmlns:xlink="http://www.w3.org/1999/xlink" version="1.1" id="Layer_1" x="0px" y="0px" viewBox="0 0 511.999 511.999" style="enable-background:new 0 0 511.999 511.999;" xml:space="preserve">
<g>
	<g>
		<path d="M435.696,0H126.482C89.606,0,59.606,29.994,59.606,66.862v378.276c0,36.868,30,66.862,66.876,66.862h309.216    c9.22,0,16.696-7.475,16.696-16.696c0-17.453,0-461.153,0-478.609C452.392,7.475,444.917,0,435.696,0z M419.002,478.609h-0.001    H126.482c-18.464,0-33.485-15.015-33.485-33.47V124.735c9.797,5.69,21.307,9.002,33.485,9.002h292.52V478.609z M419.002,100.346    h-292.52c-18.461,0-33.485-15.019-33.485-33.485c0-18.455,15.022-33.47,33.485-33.47h292.52V100.346z"/>
	</g>
</g>
<g>
	<g>
		<path d="M255.999,383.953c-61.719,0-98.767-68.56-65.282-120.141c9.511,5.808,21.925,0.884,24.819-9.912l7.499-27.987    c3.324-12.408-8.062-23.768-20.448-20.448l-27.987,7.499c-11.963,3.204-16.422,17.94-8.141,27.231    c-53.953,73.128-1.583,177.15,89.541,177.15c9.22,0,16.696-7.475,16.696-16.696S265.219,383.953,255.999,383.953z"/>
	</g>
</g>
<g>
	<g>
		<path d="M256,195.003c-9.22,0-16.696,7.475-16.696,16.696c0,9.22,7.474,16.695,16.695,16.695    c61.713,0,98.765,68.548,65.288,120.132c-9.534-5.822-21.946-0.819-24.824,9.921l-7.499,27.987    c-3.308,12.348,8.003,23.785,20.448,20.448l27.987-7.499c11.963-3.204,16.421-17.94,8.141-27.231    C399.494,299.025,347.124,195.003,256,195.003z"/>
	</g>
</g>
<g>
</g>
<g>
</g>
<g>
</g>
<g>
</g>
<g>
</g>
<g>
</g>
<g>
</g>
<g>
</g>
<g>
</g>
<g>
</g>
<g>
</g>
<g>
</g>
<g>
</g>
<g>
</g>
<g>
</g>
</svg>
