<?xml version="1.0" encoding="iso-8859-1"?>
<!-- Generator: Adobe Illustrator 19.0.0, SVG Export Plug-In . SVG Version: 6.00 Build 0)  -->
<svg xmlns="http://www.w3.org/2000/svg" xmlns:xlink="http://www.w3.org/1999/xlink" version="1.1" id="Layer_1" x="0px" y="0px" viewBox="0 0 512 512" style="enable-background:new 0 0 512 512;" xml:space="preserve">
<g>
	<g>
		<path d="M420.707,44.05h-34.203V16.696c0-9.22-7.475-16.696-16.696-16.696c-9.22,0-16.696,7.475-16.696,16.696V44.05h-42.482    V16.696c0-9.22-7.475-16.696-16.696-16.696S277.24,7.475,277.24,16.696V44.05h-42.482V16.696c0-9.22-7.475-16.696-16.696-16.696    s-16.696,7.475-16.696,16.696V44.05h-42.48V16.696c0-9.22-7.475-16.696-16.696-16.696c-9.22,0-16.696,7.475-16.696,16.696V44.05    H91.293c-9.22,0-16.696,7.475-16.696,16.696v434.559c0,9.22,7.475,16.696,16.696,16.696h329.414    c9.22,0,16.696-7.475,16.696-16.696V60.745C437.403,51.525,429.927,44.05,420.707,44.05z M404.011,478.609H107.989V77.441h296.023    V478.609z"/>
	</g>
</g>
<g>
	<g>
		<path d="M322.148,146.295H189.852c-9.22,0-16.696,7.475-16.696,16.696c0,9.22,7.475,16.696,16.696,16.696h132.296    c9.22,0,16.696-7.475,16.696-16.696C338.844,153.77,331.369,146.295,322.148,146.295z"/>
	</g>
</g>
<g>
	<g>
		<path d="M322.148,261.329H189.852c-9.22,0-16.696,7.475-16.696,16.696s7.475,16.696,16.696,16.696h132.296    c9.22,0,16.696-7.475,16.696-16.696S331.369,261.329,322.148,261.329z"/>
	</g>
</g>
<g>
	<g>
		<path d="M322.148,376.365H189.852c-9.22,0-16.696,7.475-16.696,16.696s7.475,16.696,16.696,16.696h132.296    c9.22,0,16.696-7.475,16.696-16.696S331.369,376.365,322.148,376.365z"/>
	</g>
</g>
<g>
</g>
<g>
</g>
<g>
</g>
<g>
</g>
<g>
</g>
<g>
</g>
<g>
</g>
<g>
</g>
<g>
</g>
<g>
</g>
<g>
</g>
<g>
</g>
<g>
</g>
<g>
</g>
<g>
</g>
</svg>
