<?xml version="1.0" encoding="iso-8859-1"?>
<!-- Generator: Adobe Illustrator 19.0.0, SVG Export Plug-In . SVG Version: 6.00 Build 0)  -->
<svg xmlns="http://www.w3.org/2000/svg" xmlns:xlink="http://www.w3.org/1999/xlink" version="1.1" id="Layer_1" x="0px" y="0px" viewBox="0 0 512 512" style="enable-background:new 0 0 512 512;" xml:space="preserve">
<g>
	<g>
		<path d="M512,198.52c0-78.473-63.843-142.316-142.316-142.316c-44.449,0-84.198,20.487-110.316,52.511V84.836    c0-8.836-7.164-16-16-16H16c-8.836,0-16,7.164-16,16v227.369c0,8.836,7.164,16,16,16h134.019L90.21,431.796    c-6.156,10.66,1.567,24,13.856,24h278.602c12.308,0,20.002-13.354,13.857-24l-54.026-93.582c8.918,1.73,18.021,2.622,27.184,2.622    C448.157,340.836,512,276.994,512,198.52z M32,296.204V100.836h195.369v93.396l-58.874,101.972H32z M354.957,423.797H131.78    c2.517-4.361,106.262-184.051,111.588-193.277C250.175,242.309,350.797,416.593,354.957,423.797z M318.19,296.105l-58.745-101.74    c2.194-58.909,50.803-106.161,110.239-106.161C430.512,88.204,480,137.692,480,198.52s-49.488,110.316-110.316,110.316    C351.67,308.836,333.956,304.445,318.19,296.105z"/>
	</g>
</g>
<g>
</g>
<g>
</g>
<g>
</g>
<g>
</g>
<g>
</g>
<g>
</g>
<g>
</g>
<g>
</g>
<g>
</g>
<g>
</g>
<g>
</g>
<g>
</g>
<g>
</g>
<g>
</g>
<g>
</g>
</svg>
