<?xml version="1.0" encoding="iso-8859-1"?>
<!-- Generator: Adobe Illustrator 19.0.0, SVG Export Plug-In . SVG Version: 6.00 Build 0)  -->
<svg xmlns="http://www.w3.org/2000/svg" xmlns:xlink="http://www.w3.org/1999/xlink" version="1.1" id="Layer_1" x="0px" y="0px" viewBox="0 0 512 512" style="enable-background:new 0 0 512 512;" xml:space="preserve">
<g>
	<g>
		<path d="M492.8,11.602h-99.803c-10.603,0-19.2,8.596-19.2,19.2v7.448l-56.775-22.548c-6.849-2.721-14.057-4.1-21.426-4.1    L87.383,11.6c-28.935,0-53.67,21.627-57.532,50.304L0.528,279.631c-4.689,34.823,22.431,65.8,57.533,65.8h122.631l26.224,101.554    c8.161,31.6,36.716,53.415,68.981,53.414c47.603,0,80.958-42.516,68.721-89.899l-11.579-44.832    c-4.099-15.872,4.298-32.403,19.533-38.455l21.224-8.429v7.448c0,10.603,8.596,19.2,19.2,19.2H492.8    c10.603,0,19.2-8.596,19.2-19.2V30.802C512,20.199,503.403,11.602,492.8,11.602z M373.797,277.469L338.4,291.527    c-33.176,13.176-51.465,49.179-42.538,83.743l11.579,44.832c5.583,21.622-7.051,40.304-29.267,41.821    c-15.825,1.068-30.126-9.245-34.076-24.54L214.154,321.43c-2.189-8.476-9.835-14.399-18.589-14.399H58.061    c-11.955,0-21.064-10.5-19.476-22.276L67.908,67.028c1.307-9.707,9.681-17.029,19.475-17.029l208.211,0.003    c2.493,0,4.933,0.467,7.252,1.388c0.001,0,0.001,0,0.001,0l70.949,28.178V277.469z M473.6,307.034h-61.404    c0-6.259,0-244.234,0-257.034H473.6V307.034z"/>
	</g>
</g>
<g>
</g>
<g>
</g>
<g>
</g>
<g>
</g>
<g>
</g>
<g>
</g>
<g>
</g>
<g>
</g>
<g>
</g>
<g>
</g>
<g>
</g>
<g>
</g>
<g>
</g>
<g>
</g>
<g>
</g>
</svg>
