<?xml version="1.0" encoding="iso-8859-1"?>
<!-- Generator: Adobe Illustrator 19.0.0, SVG Export Plug-In . SVG Version: 6.00 Build 0)  -->
<svg xmlns="http://www.w3.org/2000/svg" xmlns:xlink="http://www.w3.org/1999/xlink" version="1.1" id="Layer_1" x="0px" y="0px" viewBox="0 0 512 512" style="enable-background:new 0 0 512 512;" xml:space="preserve">
<g>
	<g>
		<path d="M495.182,74.464l-57.644-57.645c-22.422-22.425-58.909-22.425-81.332,0L232.912,140.113    c-22.424,22.424-22.424,58.908,0,81.332l15.267,15.267l-11.47,11.47l-15.267-15.267c-22.421-22.424-58.908-22.426-81.332,0    L16.819,356.207c-22.424,22.424-22.424,58.908,0,81.332l57.644,57.644c22.419,22.421,58.908,22.425,81.332,0l123.294-123.294    c22.424-22.424,22.424-58.908,0-81.332l-15.267-15.267l11.47-11.47l15.267,15.267c11.211,11.212,25.938,16.817,40.666,16.817    c14.726,0,29.454-5.605,40.665-16.817l123.294-123.294C517.605,133.371,517.605,96.888,495.182,74.464z M251.978,344.779    L128.685,468.073c-7.476,7.475-19.635,7.474-27.112,0l-57.644-57.644c-7.475-7.475-7.475-19.636,0-27.111l123.294-123.294    c7.479-7.476,19.635-7.474,27.111,0l15.267,15.267l-51.116,51.116c-7.487,7.485-7.487,19.624,0,27.11    c7.487,7.487,19.624,7.487,27.11,0l51.116-51.116l15.267,15.267C259.453,325.143,259.453,337.304,251.978,344.779z     M468.071,128.685L344.778,251.978c-7.476,7.475-19.635,7.474-27.112,0L302.4,236.711l51.11-51.11    c7.487-7.485,7.487-19.624,0-27.11c-7.485-7.485-19.624-7.485-27.11,0l-51.11,51.11l-15.267-15.267    c-7.475-7.475-7.475-19.636,0-27.111L383.317,43.929c7.479-7.476,19.635-7.474,27.111,0l57.644,57.644    C475.546,109.048,475.546,121.211,468.071,128.685z"/>
	</g>
</g>
<g>
</g>
<g>
</g>
<g>
</g>
<g>
</g>
<g>
</g>
<g>
</g>
<g>
</g>
<g>
</g>
<g>
</g>
<g>
</g>
<g>
</g>
<g>
</g>
<g>
</g>
<g>
</g>
<g>
</g>
</svg>
