<?xml version="1.0" encoding="iso-8859-1"?>
<!-- Generator: Adobe Illustrator 19.0.0, SVG Export Plug-In . SVG Version: 6.00 Build 0)  -->
<svg xmlns="http://www.w3.org/2000/svg" xmlns:xlink="http://www.w3.org/1999/xlink" version="1.1" id="Layer_1" x="0px" y="0px" viewBox="0 0 512 512" style="enable-background:new 0 0 512 512;" xml:space="preserve">
<g>
	<g>
		<path d="M256,22.094c-139.009,0-256,95.417-256,218.074c0,68.111,36.742,131.331,99.275,172.501l-41,49.199    c-10.635,12.761,1.542,31.884,17.712,27.361l127.252-35.623C359.702,481.484,512,381.084,512,240.168    C512,117.489,394.983,22.094,256,22.094z M205.682,419.345c-2.6-0.501-5.28-0.39-7.83,0.323l-78.229,21.899l18.588-22.305    c3.26-3.912,4.602-9.075,3.663-14.08c-0.941-5.004-4.068-9.327-8.525-11.787c-62.124-34.294-99.214-91.575-99.214-153.227    c0-101.426,99.529-183.941,221.867-183.941s221.867,82.515,221.867,183.941C477.867,359.133,343.756,445.942,205.682,419.345z"/>
	</g>
</g>
<g>
	<g>
		<path d="M330.272,269.18c-9.425,0-17.067,7.641-17.067,17.067c0,31.544-25.663,57.205-57.205,57.205    c-31.543,0-57.205-25.663-57.205-57.205c0-9.425-7.641-17.067-17.067-17.067s-17.067,7.641-17.067,17.067    c0,50.365,40.975,91.339,91.339,91.339c50.364,0,91.339-40.975,91.339-91.339C347.339,276.822,339.698,269.18,330.272,269.18z"/>
	</g>
</g>
<g>
	<g>
		<path d="M380.142,173.127h-4.956c-7.286-23.39-29.142-40.42-54.899-40.42s-47.614,17.029-54.9,40.42h-18.773    c-7.287-23.39-29.143-40.42-54.9-40.42s-47.613,17.029-54.899,40.42h-4.964c-9.425,0-17.067,7.641-17.067,17.067    s7.641,17.067,17.067,17.067h4.964c7.286,23.39,29.142,40.42,54.899,40.42s47.614-17.029,54.9-40.42h18.773    c7.287,23.39,29.143,40.42,54.9,40.42s47.613-17.029,54.899-40.42h4.956c9.425,0,17.067-7.641,17.067-17.067    S389.568,173.127,380.142,173.127z M191.713,213.546c-12.876,0-23.352-10.477-23.352-23.353c0-12.876,10.476-23.353,23.352-23.353    c12.876,0,23.353,10.477,23.353,23.353C215.066,203.07,204.59,213.546,191.713,213.546z M343.635,190.259    c-0.035,12.847-10.494,23.287-23.348,23.287c-12.876,0-23.353-10.477-23.353-23.353c0-12.876,10.477-23.353,23.353-23.353    c12.855,0,23.313,10.44,23.348,23.287c0,0.023-0.003,0.043-0.003,0.066S343.635,190.237,343.635,190.259z"/>
	</g>
</g>
<g>
</g>
<g>
</g>
<g>
</g>
<g>
</g>
<g>
</g>
<g>
</g>
<g>
</g>
<g>
</g>
<g>
</g>
<g>
</g>
<g>
</g>
<g>
</g>
<g>
</g>
<g>
</g>
<g>
</g>
</svg>
