<?xml version="1.0" encoding="iso-8859-1"?>
<!-- Generator: Adobe Illustrator 19.0.0, SVG Export Plug-In . SVG Version: 6.00 Build 0)  -->
<svg xmlns="http://www.w3.org/2000/svg" xmlns:xlink="http://www.w3.org/1999/xlink" version="1.1" id="Layer_1" x="0px" y="0px" viewBox="0 0 512 512" style="enable-background:new 0 0 512 512;" xml:space="preserve">
<g>
	<g>
		<path d="M426.935,223.189h-38.886v-91.14C388.049,59.237,328.812,0,256,0S123.951,59.237,123.951,132.049v91.14H85.065    c-9.22,0-16.696,7.475-16.696,16.696v255.419c0,9.22,7.475,16.696,16.696,16.696h341.869c9.22,0,16.696-7.475,16.696-16.696    v-255.42C443.63,230.664,436.155,223.189,426.935,223.189z M157.342,132.049c0-54.4,44.258-98.658,98.658-98.658    s98.658,44.258,98.658,98.658v91.14H157.342V132.049z M410.239,478.609H101.761V256.58h308.478V478.609z"/>
	</g>
</g>
<g>
	<g>
		<path d="M256,283.038c-31.094,0-56.389,25.296-56.389,56.389c0,25.283,16.726,46.731,39.693,53.866v42.163    c0,9.22,7.475,16.696,16.696,16.696c9.22,0,16.696-7.475,16.696-16.696v-42.163c22.968-7.133,39.693-28.583,39.693-53.866    C312.389,308.334,287.094,283.038,256,283.038z M256,362.425c-12.682,0-22.998-10.317-22.998-22.998    c0-12.681,10.317-22.998,22.998-22.998c12.681,0,22.998,10.317,22.998,22.998C278.998,352.108,268.682,362.425,256,362.425z"/>
	</g>
</g>
<g>
</g>
<g>
</g>
<g>
</g>
<g>
</g>
<g>
</g>
<g>
</g>
<g>
</g>
<g>
</g>
<g>
</g>
<g>
</g>
<g>
</g>
<g>
</g>
<g>
</g>
<g>
</g>
<g>
</g>
</svg>
