<?xml version="1.0" encoding="iso-8859-1"?>
<!-- Generator: Adobe Illustrator 19.0.0, SVG Export Plug-In . SVG Version: 6.00 Build 0)  -->
<svg xmlns="http://www.w3.org/2000/svg" xmlns:xlink="http://www.w3.org/1999/xlink" version="1.1" id="Layer_1" x="0px" y="0px" viewBox="0 0 512 512" style="enable-background:new 0 0 512 512;" xml:space="preserve">
<g>
	<g>
		<path d="M483.948,100.034L373.852,225.933L269.275,70.5c-6.334-9.413-20.213-9.416-26.55,0L138.148,225.933L28.051,100.034    c-10.24-11.708-29.524-3.302-27.962,12.143l24.222,239.511v80.874c0,8.836,7.164,16,16,16h431.376c8.836,0,16-7.164,16-16v-80.874    l24.223-239.511C513.474,96.728,494.186,88.328,483.948,100.034z M455.688,416.561H56.311V366.88h399.377V416.561z     M457.225,334.881H54.775L36.97,158.842l90.791,103.821c6.912,7.904,19.456,7.112,25.319-1.6L256,108.093l102.92,152.97    c5.872,8.727,18.42,9.489,25.319,1.6l90.789-103.82L457.225,334.881z"/>
	</g>
</g>
<g>
	<g>
		<path d="M256,204.548c-28.634,0-51.929,23.295-51.929,51.929c0,28.634,23.294,51.929,51.929,51.929s51.93-23.295,51.93-51.929    C307.931,227.843,284.635,204.548,256,204.548z M256,276.407c-10.99,0-19.93-8.941-19.93-19.93c0-10.99,8.94-19.93,19.93-19.93    c10.991,0,19.931,8.94,19.931,19.93C275.932,267.466,266.991,276.407,256,276.407z"/>
	</g>
</g>
<g>
</g>
<g>
</g>
<g>
</g>
<g>
</g>
<g>
</g>
<g>
</g>
<g>
</g>
<g>
</g>
<g>
</g>
<g>
</g>
<g>
</g>
<g>
</g>
<g>
</g>
<g>
</g>
<g>
</g>
</svg>
