<?xml version="1.0" encoding="iso-8859-1"?>
<!-- Generator: Adobe Illustrator 19.0.0, SVG Export Plug-In . SVG Version: 6.00 Build 0)  -->
<svg xmlns="http://www.w3.org/2000/svg" xmlns:xlink="http://www.w3.org/1999/xlink" version="1.1" id="Layer_1" x="0px" y="0px" viewBox="0 0 512 512" style="enable-background:new 0 0 512 512;" xml:space="preserve">
<g>
	<g>
		<path d="M511.184,471.297l-50.052-155.216c-1.304-4.046-4.105-7.443-7.827-9.495L347.268,248.1    c12.659-18.072,20.101-40.055,20.101-63.745v-54.103c0-61.41-49.959-111.369-111.369-111.369S144.632,68.841,144.632,130.25    v54.103c0,23.69,7.44,45.673,20.101,63.745L58.694,306.585c-3.722,2.053-6.521,5.449-7.827,9.495L0.817,471.297    c-3.477,10.778,4.581,21.819,15.889,21.819h478.589C506.619,493.115,514.656,482.061,511.184,471.297z M178.022,130.25    c0-42.997,34.982-77.979,77.979-77.979s77.979,34.982,77.979,77.979v54.103c0,43.124-35.109,77.979-77.979,77.979    c-42.988,0-77.979-34.976-77.979-77.979V130.25z M39.631,459.725l40.985-127.1l108.014-59.577    c19.727,15.024,43.485,22.673,67.37,22.673c23.574,0,47.397-7.46,67.37-22.673l108.014,59.577l40.985,127.1H39.631z"/>
	</g>
</g>
<g>
</g>
<g>
</g>
<g>
</g>
<g>
</g>
<g>
</g>
<g>
</g>
<g>
</g>
<g>
</g>
<g>
</g>
<g>
</g>
<g>
</g>
<g>
</g>
<g>
</g>
<g>
</g>
<g>
</g>
</svg>
