<?xml version="1.0" encoding="iso-8859-1"?>
<!-- Generator: Adobe Illustrator 19.0.0, SVG Export Plug-In . SVG Version: 6.00 Build 0)  -->
<svg xmlns="http://www.w3.org/2000/svg" xmlns:xlink="http://www.w3.org/1999/xlink" version="1.1" id="Layer_1" x="0px" y="0px" viewBox="0 0 512 512" style="enable-background:new 0 0 512 512;" xml:space="preserve">
<g>
	<g>
		<path d="M511.218,392.122l-34.732-107.721c-1.25-3.877-3.933-7.133-7.499-9.099l-69.353-38.256    c7.82-12.694,12.001-27.332,12.001-42.699v-37.551c0-45.047-36.653-81.696-81.706-81.696c-22.435,0-43.799,9.279-59.056,25.245    c-9.892-1.823-19.839-1.825-29.744,0c-15.257-15.966-36.62-25.245-59.056-25.245c-45.052,0-81.706,36.648-81.706,81.696v37.551    c0,15.368,4.18,30.006,12,42.7l-69.353,38.256c-3.567,1.968-6.249,5.222-7.499,9.099L0.782,392.122    c-3.331,10.33,4.392,20.909,15.227,20.909h59.653l-0.953,2.955c-3.333,10.331,4.39,20.912,15.226,20.912h332.127    c10.855,0,18.554-10.599,15.226-20.912l-0.953-2.955h59.653C506.846,413.031,514.543,402.435,511.218,392.122z M329.928,107.1    c27.408,0,49.707,22.294,49.707,49.697v37.551c0,25.781-19.89,47.642-46.044,49.55c2.584-7.806,4.105-16.686,4.105-25.674    c0-41.349,0.035-38.523-0.099-41.415c-1.174-25.136-13.797-48.007-33.683-62.363C311.632,109.713,320.626,107.1,329.928,107.1z     M256,130.977c27.278,0,49.697,21.972,49.697,49.697v37.551c0,27.325-22.102,49.697-49.697,49.697    c-27.084,0-49.696-21.919-49.696-49.697v-37.551C206.304,153.166,228.538,130.977,256,130.977z M132.366,156.796    c0-27.403,22.299-49.697,49.707-49.697c9.306,0,18.305,2.616,26.027,7.353c-19.503,14.09-32.498,36.733-33.696,62.36    c-0.134,2.878-0.099-0.01-0.099,41.411c0,8.94,1.477,17.737,4.105,25.674c-25.425-1.852-46.044-22.938-46.044-49.55V156.796z     M85.98,381.034H37.979v-0.001l26.044-80.774l70.952-39.138c8.473,5.993,18.142,10.321,27.985,12.678l-46.018,25.381    c-3.568,1.968-6.249,5.222-7.5,9.1L85.98,381.034z M111.911,404.9l0.948-2.942c0.002-0.005,0.004-0.01,0.005-0.015l25.086-77.807    L208.905,285c27.724,19.622,65.715,20.151,94.188,0l70.955,39.136c4.697,14.568,23.176,71.881,26.041,80.764H111.911z     M426.019,381.032v0.001l-23.46-72.753c-1.25-3.877-3.933-7.133-7.5-9.1l-46.018-25.381c10.153-2.426,19.805-6.891,27.985-12.678    l70.952,39.138l26.044,80.774H426.019z"/>
	</g>
</g>
<g>
</g>
<g>
</g>
<g>
</g>
<g>
</g>
<g>
</g>
<g>
</g>
<g>
</g>
<g>
</g>
<g>
</g>
<g>
</g>
<g>
</g>
<g>
</g>
<g>
</g>
<g>
</g>
<g>
</g>
</svg>
