<?xml version="1.0" encoding="iso-8859-1"?>
<!-- Generator: Adobe Illustrator 19.0.0, SVG Export Plug-In . SVG Version: 6.00 Build 0)  -->
<svg xmlns="http://www.w3.org/2000/svg" xmlns:xlink="http://www.w3.org/1999/xlink" version="1.1" id="Layer_1" x="0px" y="0px" viewBox="0 0 512 512" style="enable-background:new 0 0 512 512;" xml:space="preserve">
<g>
	<g>
		<path d="M110.503,216.962c-36.867,0-66.861,29.994-66.861,66.862c0,36.867,29.994,66.861,66.861,66.861    c36.867,0,66.862-29.994,66.862-66.861C177.364,246.956,147.371,216.962,110.503,216.962z M110.503,318.685    c-19.222,0-34.861-15.638-34.861-34.861c0-19.222,15.638-34.862,34.861-34.862c19.222,0,34.862,15.638,34.862,34.862    C145.364,303.045,129.726,318.685,110.503,318.685z"/>
	</g>
</g>
<g>
	<g>
		<path d="M401.513,173.322c-0.001,0-0.001,0-0.002,0h-63.039v-18.313c0-20.586-16.748-37.333-37.333-37.333h-90.253    c-20.586,0-37.333,16.748-37.333,37.333v18.313h-63.039h-0.001c-0.001,0-0.003,0-0.005,0C49.573,173.322,0,222.895,0,283.828    c0,60.928,49.573,110.496,110.507,110.496c46.731,0,87.651-28.997,103.546-71.883h83.909    c15.906,42.889,56.823,71.883,103.542,71.883c60.928,0,110.496-49.568,110.496-110.496    C512.001,222.897,462.437,173.326,401.513,173.322z M205.552,155.009L205.552,155.009c0-2.941,2.393-5.333,5.333-5.333h90.253    c2.941,0,5.333,2.393,5.333,5.333v18.313H205.552V155.009z M186.734,302.629c-8.623,35.147-39.969,59.695-76.226,59.695    c-43.289,0-78.507-35.214-78.507-78.496c0-43.288,35.218-78.507,78.507-78.507c43.282,0,78.496,35.218,78.496,78.507    C189.004,290.181,188.241,296.503,186.734,302.629z M291.207,290.442h-70.395c1.871-31.387-9.591-62.301-32.609-85.12    c1.114,0,127.098,0,135.616,0C300.693,228.448,289.333,258.981,291.207,290.442z M401.505,362.324    c-36.227,0-67.555-24.519-76.211-59.639c-0.005-0.021-0.006-0.043-0.012-0.064c-1.505-6.117-2.268-12.439-2.268-18.793    c0-43.287,35.212-78.505,78.493-78.507C444.788,205.323,480,240.541,480,283.828C480.001,327.11,444.787,362.324,401.505,362.324z    "/>
	</g>
</g>
<g>
	<g>
		<path d="M401.508,216.962c-36.867,0-66.861,29.994-66.861,66.862c0,36.867,29.994,66.861,66.861,66.861    s66.862-29.994,66.862-66.861C468.37,246.956,438.377,216.962,401.508,216.962z M401.508,318.685    c-19.222,0-34.861-15.638-34.861-34.861c0-19.222,15.638-34.862,34.861-34.862s34.862,15.638,34.862,34.862    C436.37,303.045,420.732,318.685,401.508,318.685z"/>
	</g>
</g>
<g>
	<g>
		<path d="M266.435,231.882h-20.848c-8.836,0-16,7.164-16,16c0,8.836,7.164,16,16,16h20.848c8.836,0,16-7.164,16-16    C282.435,239.045,275.272,231.882,266.435,231.882z"/>
	</g>
</g>
<g>
</g>
<g>
</g>
<g>
</g>
<g>
</g>
<g>
</g>
<g>
</g>
<g>
</g>
<g>
</g>
<g>
</g>
<g>
</g>
<g>
</g>
<g>
</g>
<g>
</g>
<g>
</g>
<g>
</g>
</svg>
