<?xml version="1.0" encoding="iso-8859-1"?>
<!-- Generator: Adobe Illustrator 19.0.0, SVG Export Plug-In . SVG Version: 6.00 Build 0)  -->
<svg xmlns="http://www.w3.org/2000/svg" xmlns:xlink="http://www.w3.org/1999/xlink" version="1.1" id="Layer_1" x="0px" y="0px" viewBox="0 0 512 512" style="enable-background:new 0 0 512 512;" xml:space="preserve">
<g>
	<g>
		<path d="M368.613,56.307h-39.611V16.696c0-9.22-7.475-16.696-16.696-16.696H199.693c-9.22,0-16.696,7.475-16.696,16.696v39.611    h-39.611c-9.22,0-16.696,7.475-16.696,16.696v422.302c0,9.22,7.475,16.696,16.696,16.696h225.228    c9.22,0,16.696-7.475,16.696-16.696V73.002C385.308,63.782,377.833,56.307,368.613,56.307z M216.388,33.391L216.388,33.391h79.223    v22.915h-79.223V33.391z M351.918,478.609h-0.001H160.082V89.698c3.325,0,184.294,0,191.836,0V478.609z"/>
	</g>
</g>
<g>
	<g>
		<path d="M312.307,215.844H199.693c-9.22,0-16.696,7.475-16.696,16.696v206.458c0,9.22,7.475,16.696,16.696,16.696h112.614    c9.22,0,16.696-7.475,16.696-16.696V232.539C329.003,223.319,321.528,215.844,312.307,215.844z M216.387,249.235h79.223v69.838    h-79.223V249.235z M295.612,422.302h-79.223v-69.838h79.223V422.302z"/>
	</g>
</g>
<g>
</g>
<g>
</g>
<g>
</g>
<g>
</g>
<g>
</g>
<g>
</g>
<g>
</g>
<g>
</g>
<g>
</g>
<g>
</g>
<g>
</g>
<g>
</g>
<g>
</g>
<g>
</g>
<g>
</g>
</svg>
