<?xml version="1.0" encoding="iso-8859-1"?>
<!-- Generator: Adobe Illustrator 19.0.0, SVG Export Plug-In . SVG Version: 6.00 Build 0)  -->
<svg xmlns="http://www.w3.org/2000/svg" xmlns:xlink="http://www.w3.org/1999/xlink" version="1.1" id="Layer_1" x="0px" y="0px" viewBox="0 0 512.002 512.002" style="enable-background:new 0 0 512.002 512.002;" xml:space="preserve">
<g>
	<g>
		<path d="M466.85,45.152c-60.204-60.205-158.17-60.204-218.381,0.009c-40.269,40.269-54.871,99.131-38.894,153.077L5.77,402.044    c-3.94,3.94-6.028,9.367-5.743,14.932l3.712,72.625c0.516,10.088,8.577,18.148,18.664,18.664l72.625,3.712    c5.754,0.285,11.112-1.922,14.932-5.743l203.805-203.805c53.946,15.977,112.806,1.373,153.077-38.894    C527.05,203.323,527.054,105.358,466.85,45.152z M438.988,235.682c-32.383,32.383-80.795,42.419-123.302,25.801    c-7.283-2.851-15.566-1.117-21.097,4.416L177.845,382.642l-10.408-10.408c-7.69-7.693-20.161-7.69-27.853,0    c-7.692,7.692-7.692,20.161,0,27.853l10.408,10.408l-15.353,15.353l-10.408-10.408c-7.69-7.693-20.161-7.69-27.853,0    c-7.692,7.692-7.692,20.161,0,27.853l10.408,10.408l-18.49,18.49l-46.126-2.358l-2.358-46.126l206.292-206.292    c5.532-5.532,7.265-13.813,4.416-21.097c-16.649-42.581-6.52-90.98,25.801-123.302c40.102-40.102,102.671-44.319,147.531-12.718    l-28.935,28.936l-17.626-17.626c-10.712-10.714-29.033-5.788-32.951,8.83l-23.097,86.2c-3.897,14.546,9.439,28.059,24.121,24.121    l86.2-23.097c14.639-3.925,19.527-22.253,8.83-32.951l-17.626-17.626l28.936-28.936    C483.309,133.011,479.089,195.579,438.988,235.682z"/>
	</g>
</g>
<g>
</g>
<g>
</g>
<g>
</g>
<g>
</g>
<g>
</g>
<g>
</g>
<g>
</g>
<g>
</g>
<g>
</g>
<g>
</g>
<g>
</g>
<g>
</g>
<g>
</g>
<g>
</g>
<g>
</g>
</svg>
