<?xml version="1.0" encoding="iso-8859-1"?>
<!-- Generator: Adobe Illustrator 19.0.0, SVG Export Plug-In . SVG Version: 6.00 Build 0)  -->
<svg xmlns="http://www.w3.org/2000/svg" xmlns:xlink="http://www.w3.org/1999/xlink" version="1.1" id="Layer_1" x="0px" y="0px" viewBox="0 0 512.002 512.002" style="enable-background:new 0 0 512.002 512.002;" xml:space="preserve">
<g>
	<g>
		<path d="M466.849,45.152c-60.204-60.205-158.17-60.204-218.38,0.009c-40.269,40.269-54.87,99.131-38.894,153.077L5.77,402.043    c-3.94,3.94-6.028,9.367-5.743,14.932L3.739,489.6c0.516,10.088,8.577,18.148,18.664,18.664l72.625,3.712    c0.336,0.017,0.672,0.026,1.007,0.026c5.209,0,10.223-2.065,13.924-5.769l203.805-203.805    c53.946,15.977,112.806,1.373,153.077-38.894C527.051,203.322,527.054,105.358,466.849,45.152z M438.987,235.681    c-21.993,21.993-51.423,33.71-81.404,33.707c-14.082,0-28.29-2.587-41.898-7.906c-7.283-2.852-15.566-1.117-21.097,4.416    L177.845,382.642l-10.408-10.408c-7.69-7.693-20.161-7.69-27.853,0c-7.692,7.692-7.692,20.161,0,27.853l10.408,10.408    l-15.353,15.353l-10.408-10.408c-7.69-7.693-20.161-7.69-27.853,0c-7.692,7.692-7.692,20.161,0,27.853l10.408,10.408l-18.49,18.49    l-46.126-2.358l-2.358-46.126l206.292-206.292c5.532-5.532,7.265-13.813,4.416-21.097c-16.649-42.581-6.52-90.979,25.801-123.302    c44.852-44.852,117.828-44.854,162.676-0.009C483.842,117.852,483.838,190.828,438.987,235.681z"/>
	</g>
</g>
<g>
	<g>
		<path d="M396.161,170.167l-11.554-15.484c-1.551-2.078-1.98-4.786-1.148-7.241l6.205-18.301c2.097-6.184-3.808-12.088-9.991-9.991    l-18.301,6.205c-2.455,0.832-5.164,0.404-7.241-1.148l-15.487-11.557c-5.234-3.905-12.672-0.114-12.589,6.414l0.247,19.322    c0.033,2.593-1.212,5.035-3.328,6.532l-15.777,11.158c-5.331,3.77-4.024,12.017,2.21,13.955l18.453,5.737    c2.476,0.769,4.414,2.709,5.184,5.184l5.737,18.453c1.938,6.235,10.185,7.542,13.955,2.21l11.158-15.777    c1.497-2.117,3.94-3.361,6.532-3.328l19.322,0.247C396.276,182.841,400.067,175.401,396.161,170.167z"/>
	</g>
</g>
<g>
</g>
<g>
</g>
<g>
</g>
<g>
</g>
<g>
</g>
<g>
</g>
<g>
</g>
<g>
</g>
<g>
</g>
<g>
</g>
<g>
</g>
<g>
</g>
<g>
</g>
<g>
</g>
<g>
</g>
</svg>
