<?xml version="1.0" encoding="iso-8859-1"?>
<!-- Generator: Adobe Illustrator 19.0.0, SVG Export Plug-In . SVG Version: 6.00 Build 0)  -->
<svg xmlns="http://www.w3.org/2000/svg" xmlns:xlink="http://www.w3.org/1999/xlink" version="1.1" id="Layer_1" x="0px" y="0px" viewBox="0 0 512 512" style="enable-background:new 0 0 512 512;" xml:space="preserve">
<g>
	<g>
		<path d="M495.66,45.544H139.599c-9.024,0-16.34,7.316-16.34,16.34v106.918H16.34c-9.024,0-16.34,7.316-16.34,16.34v264.973    c0,9.024,7.316,16.34,16.34,16.34h356.061c9.024,0,16.34-7.316,16.34-16.34V343.198H495.66c9.024,0,16.34-7.316,16.34-16.34    c0-37.441,0-259.977,0-264.973C512,52.86,504.684,45.544,495.66,45.544z M356.061,433.775H32.681V275.738h323.38    C356.061,281.344,356.061,426.099,356.061,433.775z M356.061,243.057H32.681v-41.573c18.153,0,309.434,0,323.38,0V243.057z     M479.319,310.517h-90.577v-51.088c0-0.011,0.001-0.021,0.001-0.032c0-0.011-0.001-0.021-0.001-0.032v-74.223    c0-9.024-7.316-16.341-16.34-16.341H155.939v-16.323h323.38V310.517z M479.319,119.798h-323.38V78.225h323.38V119.798z"/>
	</g>
</g>
<g>
	<g>
		<path d="M457.171,86.084c-6.179,0-11.205,5.026-11.205,11.205c0,6.178,5.026,11.205,11.205,11.205    c6.179,0,11.205-5.026,11.205-11.205C468.376,91.11,463.35,86.084,457.171,86.084z"/>
	</g>
</g>
<g>
	<g>
		<path d="M412.056,86.084c-6.179,0-11.205,5.026-11.205,11.205c0,6.178,5.026,11.205,11.205,11.205    c6.179,0,11.205-5.026,11.205-11.205C423.262,91.11,418.235,86.084,412.056,86.084z"/>
	</g>
</g>
<g>
	<g>
		<path d="M366.943,86.084c-6.179,0-11.205,5.026-11.205,11.205c0,6.178,5.026,11.205,11.205,11.205    c6.179,0,11.205-5.026,11.205-11.205C378.148,91.11,373.121,86.084,366.943,86.084z"/>
	</g>
</g>
<g>
	<g>
		<path d="M333.912,209.342c-6.179,0-11.205,5.027-11.205,11.205c0,6.179,5.027,11.205,11.205,11.205    c6.179,0,11.205-5.026,11.205-11.205C345.117,214.368,340.091,209.342,333.912,209.342z"/>
	</g>
</g>
<g>
	<g>
		<path d="M288.798,209.342c-6.179,0-11.205,5.027-11.205,11.205c0,6.179,5.026,11.205,11.205,11.205s11.205-5.026,11.205-11.205    C300.003,214.368,294.977,209.342,288.798,209.342z"/>
	</g>
</g>
<g>
	<g>
		<path d="M243.683,209.342c-6.179,0-11.205,5.027-11.205,11.205c0,6.179,5.027,11.205,11.205,11.205    c6.179,0,11.205-5.026,11.205-11.205C254.888,214.368,249.862,209.342,243.683,209.342z"/>
	</g>
</g>
<g>
</g>
<g>
</g>
<g>
</g>
<g>
</g>
<g>
</g>
<g>
</g>
<g>
</g>
<g>
</g>
<g>
</g>
<g>
</g>
<g>
</g>
<g>
</g>
<g>
</g>
<g>
</g>
<g>
</g>
</svg>
