<?xml version="1.0" encoding="iso-8859-1"?>
<!-- Generator: Adobe Illustrator 19.0.0, SVG Export Plug-In . SVG Version: 6.00 Build 0)  -->
<svg xmlns="http://www.w3.org/2000/svg" xmlns:xlink="http://www.w3.org/1999/xlink" version="1.1" id="Layer_1" x="0px" y="0px" viewBox="0 0 511.999 511.999" style="enable-background:new 0 0 511.999 511.999;" xml:space="preserve">
<g>
	<g>
		<path d="M435.696,0H126.482C89.607,0,59.606,29.994,59.606,66.862v378.276c0,36.867,30.001,66.862,66.876,66.862h309.216    c9.22,0,16.696-7.475,16.696-16.696c0-17.453,0-461.153,0-478.609C452.392,7.475,444.917,0,435.696,0z M419.002,478.609h-0.001    H126.482c-18.463,0-33.485-15.015-33.485-33.47V124.735c9.766,5.672,21.244,9.002,33.485,9.002h292.52V478.609z M419.002,100.346    h-292.52c-18.463,0-33.485-15.022-33.485-33.485c0-18.455,15.021-33.47,33.485-33.47h292.52V100.346z"/>
	</g>
</g>
<g>
	<g>
		<path d="M312.288,202.716l-68.326,50.737h-54.203c-9.22,0-16.696,7.475-16.696,16.696v72.048c0,9.222,7.475,16.696,16.696,16.696    h54.203l68.326,50.737c10.93,8.115,26.648,0.388,26.648-13.404V216.121C338.936,202.409,323.276,194.558,312.288,202.716z     M232.786,325.502h-26.332v-38.657h26.332V325.502z M305.545,363.032l-39.367-29.233v-55.254l39.367-29.233V363.032z"/>
	</g>
</g>
<g>
</g>
<g>
</g>
<g>
</g>
<g>
</g>
<g>
</g>
<g>
</g>
<g>
</g>
<g>
</g>
<g>
</g>
<g>
</g>
<g>
</g>
<g>
</g>
<g>
</g>
<g>
</g>
<g>
</g>
</svg>
