<?xml version="1.0" encoding="iso-8859-1"?>
<!-- Generator: Adobe Illustrator 19.0.0, SVG Export Plug-In . SVG Version: 6.00 Build 0)  -->
<svg xmlns="http://www.w3.org/2000/svg" xmlns:xlink="http://www.w3.org/1999/xlink" version="1.1" id="Layer_1" x="0px" y="0px" viewBox="0 0 512 512" style="enable-background:new 0 0 512 512;" xml:space="preserve">
<g>
	<g>
		<path d="M256,0C161.331,0,84.312,77.018,84.312,171.688c0,54.38,25.587,105.127,68.882,137.502c0,7.915,0,121.305,0,125.043    c0,9.22,7.475,16.696,16.696,16.696h10.167C187.719,485.81,218.85,512,256,512c37.15,0,68.281-26.19,75.944-61.072h10.167    c9.22,0,16.696-7.475,16.696-16.696c0-3.762,0-117.209,0-125.043c43.294-32.375,68.882-83.122,68.882-137.502    C427.688,77.018,350.669,0,256,0z M256,478.609c-18.567,0-34.507-11.461-41.117-27.68h82.234    C290.507,467.148,274.567,478.609,256,478.609z M325.415,417.537c-6.747,0-133.976,0-138.83,0v-39.041h138.83V417.537z     M332.826,286.684c-4.631,3.099-7.411,8.303-7.411,13.875v44.545h-52.719v-36.169l38.901-67.379    c4.61-7.986,1.874-18.197-6.111-22.806c-7.987-4.614-18.197-1.874-22.806,6.111L256,271.071l-26.68-46.21    c-4.61-7.986-14.82-10.724-22.806-6.111c-7.985,4.61-10.721,14.82-6.111,22.806l38.901,67.379v36.169h-52.719V300.56    c0-5.572-2.779-10.776-7.411-13.875c-38.491-25.759-61.471-68.748-61.471-114.996c0-76.258,62.04-138.297,138.297-138.297    S394.297,95.43,394.297,171.688C394.297,217.937,371.317,260.926,332.826,286.684z"/>
	</g>
</g>
<g>
</g>
<g>
</g>
<g>
</g>
<g>
</g>
<g>
</g>
<g>
</g>
<g>
</g>
<g>
</g>
<g>
</g>
<g>
</g>
<g>
</g>
<g>
</g>
<g>
</g>
<g>
</g>
<g>
</g>
</svg>
