<?xml version="1.0" encoding="iso-8859-1"?>
<!-- Generator: Adobe Illustrator 19.0.0, SVG Export Plug-In . SVG Version: 6.00 Build 0)  -->
<svg xmlns="http://www.w3.org/2000/svg" xmlns:xlink="http://www.w3.org/1999/xlink" version="1.1" id="Layer_1" x="0px" y="0px" viewBox="0 0 512 512" style="enable-background:new 0 0 512 512;" xml:space="preserve">
<g>
	<g>
		<path d="M418.812,373.509c51.385,0,93.188-41.805,93.188-93.188c0-9.22-7.475-16.696-16.696-16.696h-42.869    c2.544-11.565,3.863-23.433,3.863-35.484c0-9.22-7.475-16.696-16.696-16.696H16.696C7.475,211.446,0,218.921,0,228.141    c0,61.871,34.765,118.91,91.659,154.842c-37.07,10.459-55.816,25.512-55.816,44.974c0,80.826,384.61,80.849,384.61,0    c0-19.461-18.745-34.514-55.815-44.974c4.773-3.014,9.393-6.172,13.846-9.474H418.812z M441.341,297.016h34.897    c-6.969,23.933-27.689,43.102-62.122,43.102C425.277,326.822,434.44,312.341,441.341,297.016z M385.46,427.95    c-43.592,34.79-269.133,36.305-314.623,0c6.186-4.946,25.886-14.56,70.576-21.111c53.996,18.784,116.899,19.663,173.471,0    C359.574,413.391,379.275,423.004,385.46,427.95z M307.407,374.052c-50.32,18.448-108.3,18.409-158.516,0    c-63.899-23.438-107.205-73.035-114.43-129.217h387.377C414.094,305.053,366.787,352.271,307.407,374.052z"/>
	</g>
</g>
<g>
	<g>
		<path d="M191.344,83.041c-12.108-5.121-12.235-22.348-0.194-27.642c8.44-3.712,12.274-13.564,8.562-22.005    c-3.712-8.441-13.565-12.274-22.005-8.562c-38.879,17.097-38.443,72.435,0.628,88.962c12.108,5.121,12.236,22.345,0.194,27.641    c-8.44,3.712-12.274,13.564-8.562,22.005c3.712,8.44,13.562,12.274,22.005,8.562C230.841,154.909,230.428,99.57,191.344,83.041z"/>
	</g>
</g>
<g>
	<g>
		<path d="M277.965,83.041c-12.107-5.121-12.236-22.347-0.194-27.642c8.44-3.712,12.274-13.564,8.562-22.005    c-3.712-8.441-13.565-12.274-22.005-8.562c-38.865,17.092-38.457,72.429,0.628,88.962c12.108,5.121,12.236,22.345,0.194,27.641    c-8.44,3.712-12.274,13.564-8.562,22.005c3.712,8.44,13.562,12.274,22.005,8.562C317.461,154.908,317.048,99.57,277.965,83.041z"/>
	</g>
</g>
<g>
</g>
<g>
</g>
<g>
</g>
<g>
</g>
<g>
</g>
<g>
</g>
<g>
</g>
<g>
</g>
<g>
</g>
<g>
</g>
<g>
</g>
<g>
</g>
<g>
</g>
<g>
</g>
<g>
</g>
</svg>
