<?xml version="1.0" encoding="iso-8859-1"?>
<!-- Generator: Adobe Illustrator 19.0.0, SVG Export Plug-In . SVG Version: 6.00 Build 0)  -->
<svg xmlns="http://www.w3.org/2000/svg" xmlns:xlink="http://www.w3.org/1999/xlink" version="1.1" id="Layer_1" x="0px" y="0px" viewBox="0 0 512 512" style="enable-background:new 0 0 512 512;" xml:space="preserve">
<g>
	<g>
		<path d="M495.291,20.147H16.711c-14.925,0-22.355,18.195-11.666,28.636l169.7,165.778v260.587    c0,14.06,16.292,21.712,27.131,13.031l129.143-103.432c3.956-3.169,6.258-7.962,6.258-13.031V214.561l169.68-165.777    C517.634,38.354,510.23,20.147,495.291,20.147z M308.915,195.59c-3.215,3.141-5.028,7.446-5.028,11.941v156.167l-95.754,76.69    V207.531c0-4.495-1.813-8.8-5.028-11.941L57.691,53.537h396.622L308.915,195.59z"/>
	</g>
</g>
<g>
</g>
<g>
</g>
<g>
</g>
<g>
</g>
<g>
</g>
<g>
</g>
<g>
</g>
<g>
</g>
<g>
</g>
<g>
</g>
<g>
</g>
<g>
</g>
<g>
</g>
<g>
</g>
<g>
</g>
</svg>
