<?xml version="1.0" encoding="iso-8859-1"?>
<!-- Generator: Adobe Illustrator 19.0.0, SVG Export Plug-In . SVG Version: 6.00 Build 0)  -->
<svg xmlns="http://www.w3.org/2000/svg" xmlns:xlink="http://www.w3.org/1999/xlink" version="1.1" id="Layer_1" x="0px" y="0px" viewBox="0 0 512 512" style="enable-background:new 0 0 512 512;" xml:space="preserve">
<g>
	<g>
		<path d="M382.259,58.922c-55.573,0-111.636,20.251-126.259,57.022c-15.861-39.88-76.97-57.022-126.259-57.022    C59.915,58.922,0,89.449,0,133.981c0,7.74,0,169.273,0,177.076c0,43.961,58.333,74.204,126.932,75.01    c8.006,47.395,77.841,67.011,129.068,67.011c55.876,0,121.446-21.89,129.068-67.011C453.92,385.257,512,354.876,512,311.056    c0-7.739,0-169.273,0-177.076C512,89.321,451.856,58.922,382.259,58.922z M256,158.574c58.908,0,96.953,24.106,97.057,42.299    c0,0.025,0.002,0.05,0.002,0.075v0.057c-0.095,23.432-48.989,42.33-97.058,42.333c-56.189,0.002-96.983-22.787-97.061-42.333    v-0.057c0-0.025,0.002-0.05,0.002-0.075C159.047,182.759,196.871,158.574,256,158.574z M126.257,353.396    c-58.072-0.933-93.576-24.993-93.576-42.339v-37.949c26.009,16.631,62.258,24.018,93.576,24.482V353.396z M126.257,264.815    c-45.93-0.856-92.301-19.11-93.541-41.278c-0.056-0.914-0.035-1.612-0.035-38.895c26.382,16.855,62.149,23.894,93.576,24.362    V264.815z M132.914,176.328c-55.85,1.007-100.233-21.66-100.233-42.348c0-17.696,36.925-42.377,97.06-42.377    c53.469,0,88.589,19.513,95.718,36.278C191.782,132.351,149.709,146.669,132.914,176.328z M256,420.397    c-60.136,0-97.062-24.68-97.062-42.373c0-0.617,0.002-8.731,0.002-37.872c50.826,32.49,143.206,32.546,194.119,0.001    c0,27.227,0.002,35.372,0.002,37.871C353.062,395.717,316.136,420.397,256,420.397z M352.954,291.162c0,0,0,0.002,0,0.003    c-2.356,18.565-41.056,40.693-96.954,40.693c-55.543,0-94.578-21.97-96.953-40.693c0-0.001,0-0.002,0-0.002    c-0.146-1.149-0.106,1.496-0.106-39.549c50.921,32.525,143.189,32.559,194.119,0.001    C353.06,292.592,353.1,290.012,352.954,291.162z M379.086,176.327c-16.744-29.569-58.709-43.957-92.543-48.447    c7.129-16.764,42.248-36.277,95.717-36.277c60.135,0,97.06,24.682,97.06,42.377C479.319,153.682,437.655,177.156,379.086,176.327z     M479.319,311.056c0,17.346-35.505,41.407-93.576,42.338v-55.757c31.179-0.296,67.345-8.195,93.576-24.291V311.056z     M479.187,224.364c-3.579,27.813-62.849,40.005-93.444,40.482v-55.84c31.625-0.489,67.266-7.534,93.576-24.361    C479.319,227.057,479.379,222.876,479.187,224.364z"/>
	</g>
</g>
<g>
</g>
<g>
</g>
<g>
</g>
<g>
</g>
<g>
</g>
<g>
</g>
<g>
</g>
<g>
</g>
<g>
</g>
<g>
</g>
<g>
</g>
<g>
</g>
<g>
</g>
<g>
</g>
<g>
</g>
</svg>
