<?xml version="1.0" encoding="iso-8859-1"?>
<!-- Generator: Adobe Illustrator 19.0.0, SVG Export Plug-In . SVG Version: 6.00 Build 0)  -->
<svg xmlns="http://www.w3.org/2000/svg" xmlns:xlink="http://www.w3.org/1999/xlink" version="1.1" id="Layer_1" x="0px" y="0px" viewBox="0 0 512 512" style="enable-background:new 0 0 512 512;" xml:space="preserve">
<g>
	<g>
		<path d="M424.602,74.896c-99.862-99.862-262.347-99.862-362.209,0c-6.665,6.664-6.665,17.471,0,24.136    c6.664,6.664,17.471,6.665,24.136,0c86.552-86.551,227.385-86.551,313.936,0c86.551,86.552,86.551,227.383,0,313.936    c-82.494,82.493-214.296,86.361-301.413,11.605l13.382-13.382c9.287-9.285,5.011-25.162-7.651-28.553l-70.782-18.966    c-12.688-3.396-24.296,8.241-20.903,20.903l18.966,70.782c3.417,12.753,19.324,16.883,28.553,7.651l14.251-14.251    c100.639,88.159,254.045,84.037,349.734-11.652C524.464,337.245,524.464,174.758,424.602,74.896z M57.385,417.969l-3.665-13.674    l13.675,3.664L57.385,417.969z"/>
	</g>
</g>
<g>
	<g>
		<path d="M308.789,250.889h-55.792V155.83c0-9.427-7.64-17.068-17.067-17.068c-9.426,0-17.067,7.642-17.067,17.067v112.127    c0,9.426,7.642,17.067,17.067,17.067h72.859c9.426,0,17.067-7.642,17.067-17.067S318.214,250.889,308.789,250.889z"/>
	</g>
</g>
<g>
</g>
<g>
</g>
<g>
</g>
<g>
</g>
<g>
</g>
<g>
</g>
<g>
</g>
<g>
</g>
<g>
</g>
<g>
</g>
<g>
</g>
<g>
</g>
<g>
</g>
<g>
</g>
<g>
</g>
</svg>
