<?xml version="1.0" encoding="iso-8859-1"?>
<!-- Generator: Adobe Illustrator 19.0.0, SVG Export Plug-In . SVG Version: 6.00 Build 0)  -->
<svg xmlns="http://www.w3.org/2000/svg" xmlns:xlink="http://www.w3.org/1999/xlink" version="1.1" id="Layer_1" x="0px" y="0px" viewBox="0 0 512.002 512.002" style="enable-background:new 0 0 512.002 512.002;" xml:space="preserve">
<g>
	<g>
		<path d="M505.736,423.267l-265.34-241.839l27.331-8.499c15.162-4.714,18.358-24.836,5.383-34.008l-61.822-43.714l0.968-75.739    c0.201-15.879-17.942-25.133-30.681-15.632l-60.69,45.295l-71.72-24.314c-15.037-5.097-29.448,9.301-24.346,24.346l24.314,71.72    L3.838,181.574c-9.432,12.638-0.39,30.683,15.386,30.683c0.081,0,0.165,0,0.246-0.001l75.739-0.968l43.714,61.822    c9.203,13.016,29.299,9.763,34.008-5.383l8.499-27.331l241.837,265.34c7.38,8.098,20.026,8.382,27.765,0.643l55.346-55.346    C514.12,443.289,513.827,430.639,505.736,423.267z M174.38,161.744c-6.034,1.875-10.758,6.599-12.633,12.633l-13.931,44.801    l-27.082-38.301c-3.602-5.093-9.449-8.115-15.675-8.115c-0.082,0-0.165,0-0.246,0.001l-46.933,0.6l28.063-37.601    c3.778-5.063,4.825-11.663,2.797-17.647L73.67,73.67l44.446,15.066c5.98,2.03,12.582,0.984,17.647-2.797l37.601-28.063    l-0.6,46.933c-0.081,6.319,2.954,12.273,8.114,15.921l38.304,27.082L174.38,161.744z M438.1,465.007L194.646,197.895l0.771-2.479    l2.479-0.771l267.111,243.454L438.1,465.007z"/>
	</g>
</g>
<g>
	<g>
		<path d="M428.561,156.236h-14.863v-14.863c0-10.603-8.596-19.199-19.199-19.199s-19.199,8.596-19.199,19.199v14.863h-14.864    c-10.603,0-19.199,8.596-19.199,19.199s8.596,19.199,19.199,19.199H375.3v14.863c0,10.603,8.596,19.199,19.199,19.199    s19.199-8.596,19.199-19.199v-14.863h14.863c10.603,0,19.199-8.596,19.199-19.199S439.164,156.236,428.561,156.236z"/>
	</g>
</g>
<g>
	<g>
		<path d="M207.342,377.456h-14.864v-14.863c0-10.603-8.596-19.199-19.199-19.199s-19.199,8.596-19.199,19.199v14.863h-14.863    c-10.603,0-19.199,8.596-19.199,19.199c0,10.603,8.596,19.199,19.199,19.199h14.863v14.863c0,10.603,8.596,19.199,19.199,19.199    s19.199-8.596,19.199-19.199v-14.863h14.864c10.603,0,19.199-8.596,19.199-19.199    C226.541,386.052,217.945,377.456,207.342,377.456z"/>
	</g>
</g>
<g>
</g>
<g>
</g>
<g>
</g>
<g>
</g>
<g>
</g>
<g>
</g>
<g>
</g>
<g>
</g>
<g>
</g>
<g>
</g>
<g>
</g>
<g>
</g>
<g>
</g>
<g>
</g>
<g>
</g>
</svg>
