<?xml version="1.0" encoding="iso-8859-1"?>
<!-- Generator: Adobe Illustrator 19.0.0, SVG Export Plug-In . SVG Version: 6.00 Build 0)  -->
<svg xmlns="http://www.w3.org/2000/svg" xmlns:xlink="http://www.w3.org/1999/xlink" version="1.1" id="Layer_1" x="0px" y="0px" viewBox="0 0 512 512" style="enable-background:new 0 0 512 512;" xml:space="preserve">
<g>
	<g>
		<path d="M256,0C114.509,0,0,114.497,0,256c0,141.491,114.497,256,256,256c141.491,0,256-114.497,256-256    C512,114.509,397.503,0,256,0z M256,477.867c-122.337,0-221.867-99.529-221.867-221.867S133.663,34.133,256,34.133    S477.867,133.663,477.867,256S378.337,477.867,256,477.867z"/>
	</g>
</g>
<g>
	<g>
		<path d="M376.442,208.641H274.754v-47.919c0-14.165-16.359-22.196-27.565-13.456L125.06,242.544    c-8.761,6.835-8.742,20.093,0,26.912l122.129,95.278c11.156,8.704,27.565,0.785,27.565-13.457v-47.919h101.688    c9.425,0,17.067-7.641,17.067-17.067v-60.584C393.508,216.282,385.867,208.641,376.442,208.641z M359.375,269.226H257.687    c-9.425,0-17.067,7.641-17.067,17.067v30.025L163.304,256l77.317-60.317v30.025c0,9.425,7.641,17.067,17.067,17.067h101.688    V269.226z"/>
	</g>
</g>
<g>
</g>
<g>
</g>
<g>
</g>
<g>
</g>
<g>
</g>
<g>
</g>
<g>
</g>
<g>
</g>
<g>
</g>
<g>
</g>
<g>
</g>
<g>
</g>
<g>
</g>
<g>
</g>
<g>
</g>
</svg>
