<?xml version="1.0" encoding="iso-8859-1"?>
<!-- Generator: Adobe Illustrator 19.0.0, SVG Export Plug-In . SVG Version: 6.00 Build 0)  -->
<svg xmlns="http://www.w3.org/2000/svg" xmlns:xlink="http://www.w3.org/1999/xlink" version="1.1" id="Layer_1" x="0px" y="0px" viewBox="0 0 512 512" style="enable-background:new 0 0 512 512;" xml:space="preserve">
<g>
	<g>
		<path d="M445.217,0H66.783c-9.22,0-16.696,7.475-16.696,16.696v478.609c0,9.22,7.475,16.696,16.696,16.696h378.435    c9.22,0,16.696-7.475,16.696-16.696V16.696C461.913,7.475,454.438,0,445.217,0z M428.522,478.609H83.478V33.391h345.043V478.609z"/>
	</g>
</g>
<g>
	<g>
		<path d="M389.565,55.652h-267.13c-9.22,0-16.696,7.475-16.696,16.696v367.304c0,9.22,7.475,16.696,16.696,16.696h267.13    c9.22,0,16.696-7.475,16.696-16.696V72.348C406.261,63.127,398.786,55.652,389.565,55.652z M372.87,422.957H139.13V89.044H372.87    V422.957z"/>
	</g>
</g>
<g>
	<g>
		<path d="M317.217,222.609c-18.412,0-33.391,14.979-33.391,33.391c0,18.412,14.979,33.391,33.391,33.391    c18.412,0,33.391-14.979,33.391-33.391C350.609,237.588,335.629,222.609,317.217,222.609z"/>
	</g>
</g>
<g>
</g>
<g>
</g>
<g>
</g>
<g>
</g>
<g>
</g>
<g>
</g>
<g>
</g>
<g>
</g>
<g>
</g>
<g>
</g>
<g>
</g>
<g>
</g>
<g>
</g>
<g>
</g>
<g>
</g>
</svg>
