<?xml version="1.0" encoding="iso-8859-1"?>
<!-- Generator: Adobe Illustrator 19.0.0, SVG Export Plug-In . SVG Version: 6.00 Build 0)  -->
<svg xmlns="http://www.w3.org/2000/svg" xmlns:xlink="http://www.w3.org/1999/xlink" version="1.1" id="Layer_1" x="0px" y="0px" viewBox="0 0 512 512" style="enable-background:new 0 0 512 512;" xml:space="preserve">
<g>
	<g>
		<path d="M511.293,441.589c-28.191-99.067-39.531-171.459-121.195-239.425c-41.297-34.368-90.564-56.478-143.289-64.439V65.815    c0-13.23-14.707-21.204-25.796-13.994L7.583,190.649c-10.109,6.575-10.114,21.409,0,27.987l213.43,138.829    c11.089,7.213,25.796-0.768,25.796-13.994v-66.265c119.564,16.139,165.705,92.207,235.389,179.376    C493.479,470.692,516.295,459.169,511.293,441.589z M440.915,351.473c-51.31-64.176-127.749-104.035-209.718-109.359    c-0.362-0.023-0.722-0.035-1.083-0.035c-9.205,0-16.694,7.468-16.694,16.694v53.925L47.301,204.643l166.12-108.055v55.873    c0,8.585,6.511,15.77,15.053,16.614c100.794,9.952,191.866,74.885,228,201.862L440.915,351.473z"/>
	</g>
</g>
<g>
</g>
<g>
</g>
<g>
</g>
<g>
</g>
<g>
</g>
<g>
</g>
<g>
</g>
<g>
</g>
<g>
</g>
<g>
</g>
<g>
</g>
<g>
</g>
<g>
</g>
<g>
</g>
<g>
</g>
</svg>
