<?xml version="1.0" encoding="iso-8859-1"?>
<!-- Generator: Adobe Illustrator 19.0.0, SVG Export Plug-In . SVG Version: 6.00 Build 0)  -->
<svg xmlns="http://www.w3.org/2000/svg" xmlns:xlink="http://www.w3.org/1999/xlink" version="1.1" id="Layer_1" x="0px" y="0px" viewBox="0 0 511.999 511.999" style="enable-background:new 0 0 511.999 511.999;" xml:space="preserve">
<g>
	<g>
		<path d="M273.481,61.285l-142.059,105.49H16.696C7.475,166.775,0,174.25,0,183.471v145.063c0,9.22,7.475,16.696,16.696,16.696    h114.727l142.059,105.49c10.929,8.116,26.648,0.388,26.648-13.404V74.688C300.13,60.978,284.471,53.127,273.481,61.285z     M120.248,311.838H33.391V200.166h86.856V311.838z M266.739,404.121l-113.1-83.986V191.869l113.1-83.986V404.121z"/>
	</g>
</g>
<g>
	<g>
		<path d="M453.305,256.002l53.805-53.805c6.52-6.52,6.52-17.091,0-23.611c-6.519-6.52-17.091-6.52-23.611,0l-53.805,53.805    l-53.805-53.805c-6.519-6.52-17.091-6.52-23.611,0c-6.52,6.52-6.52,17.091,0,23.611l53.805,53.805l-53.805,53.805    c-6.52,6.52-6.52,17.091,0,23.611c6.519,6.52,17.091,6.521,23.611,0l53.805-53.805l53.805,53.805    c6.519,6.52,17.091,6.521,23.611,0c6.52-6.52,6.52-17.091,0-23.611L453.305,256.002z"/>
	</g>
</g>
<g>
</g>
<g>
</g>
<g>
</g>
<g>
</g>
<g>
</g>
<g>
</g>
<g>
</g>
<g>
</g>
<g>
</g>
<g>
</g>
<g>
</g>
<g>
</g>
<g>
</g>
<g>
</g>
<g>
</g>
</svg>
