<?xml version="1.0" encoding="iso-8859-1"?>
<!-- Generator: Adobe Illustrator 19.0.0, SVG Export Plug-In . SVG Version: 6.00 Build 0)  -->
<svg xmlns="http://www.w3.org/2000/svg" xmlns:xlink="http://www.w3.org/1999/xlink" version="1.1" id="Layer_1" x="0px" y="0px" viewBox="0 0 512 512" style="enable-background:new 0 0 512 512;" xml:space="preserve">
<g>
	<g>
		<path d="M471.479,95.426l-90.43-90.429C377.769,1.716,373.313,0,368.98,0H175.225c-9.425,0-17.067,7.641-17.067,17.067v105.57    H52.589c-9.425,0-17.067,7.641-17.067,17.067v355.229c0,9.425,7.641,17.067,17.067,17.067h284.185    c9.425,0,17.067-7.641,17.067-17.067v-105.57h105.569c9.425,0,17.067-7.641,17.067-17.067V107.499    C476.477,103.067,474.69,98.637,471.479,95.426z M386.049,58.272l32.155,32.155h-32.155V58.272z M319.708,477.867H69.656V156.771    c2.147,0,155.208,0,159.622,0v73.361c0,9.425,7.641,17.067,17.067,17.067h73.363C319.708,256.791,319.708,463.098,319.708,477.867    z M263.41,213.065v-32.156l32.156,32.156H263.41z M442.345,355.229h-88.504V230.137c0-4.444-1.793-8.868-4.999-12.073    l-90.43-90.43c-3.219-3.219-7.637-4.997-12.07-4.997h-54.05V34.133h159.623v73.361c0,9.425,7.641,17.067,17.067,17.067h73.363    V355.229z"/>
	</g>
</g>
<g>
	<g>
		<path d="M257.738,280.677H131.624c-9.425,0-17.067,7.641-17.067,17.067c0,9.425,7.641,17.067,17.067,17.067H257.74    c9.425,0,17.067-7.641,17.067-17.067C274.806,288.319,267.165,280.677,257.738,280.677z"/>
	</g>
</g>
<g>
	<g>
		<path d="M257.738,345.465H131.624c-9.425,0-17.067,7.641-17.067,17.067c0,9.425,7.641,17.067,17.067,17.067H257.74    c9.425,0,17.067-7.641,17.067-17.067C274.806,353.106,267.165,345.465,257.738,345.465z"/>
	</g>
</g>
<g>
	<g>
		<path d="M257.738,410.253H131.624c-9.425,0-17.067,7.641-17.067,17.067c0,9.425,7.641,17.067,17.067,17.067H257.74    c9.425,0,17.067-7.641,17.067-17.067C274.806,417.894,267.165,410.253,257.738,410.253z"/>
	</g>
</g>
<g>
</g>
<g>
</g>
<g>
</g>
<g>
</g>
<g>
</g>
<g>
</g>
<g>
</g>
<g>
</g>
<g>
</g>
<g>
</g>
<g>
</g>
<g>
</g>
<g>
</g>
<g>
</g>
<g>
</g>
</svg>
