<?xml version="1.0" encoding="iso-8859-1"?>
<!-- Generator: Adobe Illustrator 19.0.0, SVG Export Plug-In . SVG Version: 6.00 Build 0)  -->
<svg xmlns="http://www.w3.org/2000/svg" xmlns:xlink="http://www.w3.org/1999/xlink" version="1.1" id="Layer_1" x="0px" y="0px" viewBox="0 0 512 512" style="enable-background:new 0 0 512 512;" xml:space="preserve">
<g>
	<g>
		<path d="M400.696,0H111.304C89.824,0,72.348,17.476,72.348,38.957v434.087c0,21.481,17.476,38.957,38.957,38.957h289.391    c21.481,0,38.956-17.476,38.956-38.957V38.957C439.652,17.476,422.176,0,400.696,0z M406.261,473.043    c0,3.069-2.497,5.565-5.565,5.565H111.304c-3.069,0-5.565-2.497-5.565-5.565V38.957c0-3.069,2.497-5.565,5.565-5.565h289.391    c3.069,0,5.565,2.497,5.565,5.565V473.043z"/>
	</g>
</g>
<g>
	<g>
		<path d="M256,96.156c-69.727,0-126.453,56.726-126.453,126.453c0,32.226,12.455,63.115,34.114,86.34l-18.451,11.38    c-19.586,12.088-22.742,39.287-6.516,55.492l2.562,2.574c16.283,16.26,43.449,13.063,55.515-6.501l18.263-29.615    c13.115,4.5,26.836,6.783,40.964,6.783c69.727,0,126.453-56.726,126.453-126.453S325.727,96.156,256,96.156z M168.351,354.366    c-0.784,1.27-2.507,1.392-3.464,0.437l-2.562-2.574c-1.025-1.024-0.823-2.717,0.416-3.482l14.641-9.028L168.351,354.366z     M256,315.67c-7.802,0-15.431-0.939-22.827-2.803c9.09-14.74,7.226-11.717,9.601-15.568c9.189-14.898-8.074-32.165-22.977-22.974    l-26.951,16.623c-18.893-17.504-29.907-42.335-29.907-68.34c0-51.315,41.747-93.062,93.062-93.062s93.062,41.747,93.062,93.062    S307.315,315.67,256,315.67z"/>
	</g>
</g>
<g>
	<g>
		<path d="M256,183.652c-21.481,0-38.957,17.476-38.957,38.957c0,21.481,17.476,38.957,38.957,38.957    c21.481,0,38.957-17.476,38.957-38.957C294.957,201.128,277.481,183.652,256,183.652z"/>
	</g>
</g>
<g>
	<g>
		<path d="M356.174,405.148c-12.889,0-23.374,10.485-23.374,23.374s10.485,23.374,23.374,23.374    c12.889,0,23.374-10.485,23.374-23.374S369.063,405.148,356.174,405.148z"/>
	</g>
</g>
<g>
</g>
<g>
</g>
<g>
</g>
<g>
</g>
<g>
</g>
<g>
</g>
<g>
</g>
<g>
</g>
<g>
</g>
<g>
</g>
<g>
</g>
<g>
</g>
<g>
</g>
<g>
</g>
<g>
</g>
</svg>
