<?xml version="1.0" encoding="iso-8859-1"?>
<!-- Generator: Adobe Illustrator 19.0.0, SVG Export Plug-In . SVG Version: 6.00 Build 0)  -->
<svg xmlns="http://www.w3.org/2000/svg" xmlns:xlink="http://www.w3.org/1999/xlink" version="1.1" id="Layer_1" x="0px" y="0px" viewBox="0 0 511.999 511.999" style="enable-background:new 0 0 511.999 511.999;" xml:space="preserve">
<g>
	<g>
		<path d="M442.321,21.231C400.885-12.065,340.405-5.484,307.105,35.958c-19.295,24.012-25.777,55.922-17.858,85.366l-33.244,41.38    l-33.252-41.38c7.928-29.439,1.449-61.349-17.849-85.365c-33.228-41.338-93.889-47.942-135.22-14.723    c-41.433,33.283-48.036,93.761-14.729,135.203c19.03,23.697,48.595,37.248,79.52,35.821l48.889,60.834L86.998,373.026    c-33.316,41.43-26.73,101.913,14.722,135.212c7.347,5.903,18.088,4.731,23.99-2.615L256.004,343.49l130.295,162.133    c5.904,7.345,16.647,8.516,23.994,2.612c41.336-33.222,47.94-93.875,14.722-135.206l-96.378-119.935l48.884-60.833    c30.943,1.419,60.505-12.145,79.525-35.812C490.345,115.013,483.764,54.531,442.321,21.231z M81.56,135.063    c-21.479-26.726-17.243-65.738,9.5-87.22c26.661-21.428,65.796-17.173,87.235,9.499c21.344,26.561,17.291,65.738-9.517,87.223    C141.824,166.236,102.76,161.461,81.56,135.063z M111.273,469.101c-15.265-21.513-15.823-52.122,2.328-74.692l91.652-114.067    l28.858,35.906L111.273,469.101z M398.411,394.41c17.721,22.05,17.871,52.628,2.308,74.669    c-3.973-4.945-226.39-281.707-229.755-285.895c13.524-6.402,25.634-15.986,35.073-28.17    C225.409,179.122,379.376,370.723,398.411,394.41z M306.745,225.85c-16.728-20.817-10-12.443-28.848-35.902l28.069-34.938    c9.404,12.149,21.558,21.811,35.065,28.172L306.745,225.85z M430.441,135.069c-21.208,26.39-60.245,31.187-87.237,9.486    c-26.76-21.478-30.873-60.611-9.494-87.218c21.481-26.731,60.499-30.983,87.232-9.5    C447.671,69.318,451.925,108.335,430.441,135.069z"/>
	</g>
</g>
<g>
</g>
<g>
</g>
<g>
</g>
<g>
</g>
<g>
</g>
<g>
</g>
<g>
</g>
<g>
</g>
<g>
</g>
<g>
</g>
<g>
</g>
<g>
</g>
<g>
</g>
<g>
</g>
<g>
</g>
</svg>
