<?xml version="1.0" encoding="iso-8859-1"?>
<!-- Generator: Adobe Illustrator 19.0.0, SVG Export Plug-In . SVG Version: 6.00 Build 0)  -->
<svg xmlns="http://www.w3.org/2000/svg" xmlns:xlink="http://www.w3.org/1999/xlink" version="1.1" id="Layer_1" x="0px" y="0px" viewBox="0 0 512 512" style="enable-background:new 0 0 512 512;" xml:space="preserve">
<g>
	<g>
		<path d="M256,0C114.509,0,0,114.497,0,256c0,141.491,114.497,256,256,256c141.491,0,256-114.497,256-256    C512,114.509,397.503,0,256,0z M256,477.867c-122.337,0-221.867-99.529-221.867-221.867S133.663,34.133,256,34.133    S477.867,133.663,477.867,256S378.337,477.867,256,477.867z"/>
	</g>
</g>
<g>
	<g>
		<path d="M396.774,240.37l-222.323-97.533c-14.548-6.385-29.206,8.952-22.151,23.202L196.839,256l-44.539,89.961    c-7.109,14.36,7.716,29.534,22.151,23.202l222.323-97.533C410.373,265.662,410.346,246.324,396.774,240.37z M203.71,319.051    l27.468-55.48c2.362-4.772,2.362-10.373,0-15.145l-27.468-55.48l143.725,63.052L203.71,319.051z"/>
	</g>
</g>
<g>
</g>
<g>
</g>
<g>
</g>
<g>
</g>
<g>
</g>
<g>
</g>
<g>
</g>
<g>
</g>
<g>
</g>
<g>
</g>
<g>
</g>
<g>
</g>
<g>
</g>
<g>
</g>
<g>
</g>
</svg>
