<?xml version="1.0" encoding="iso-8859-1"?>
<!-- Generator: Adobe Illustrator 19.0.0, SVG Export Plug-In . SVG Version: 6.00 Build 0)  -->
<svg xmlns="http://www.w3.org/2000/svg" xmlns:xlink="http://www.w3.org/1999/xlink" version="1.1" id="Layer_1" x="0px" y="0px" viewBox="0 0 512.001 512.001" style="enable-background:new 0 0 512.001 512.001;" xml:space="preserve">
<g>
	<g>
		<path d="M504.417,190.662L290.988,51.833c-11.089-7.213-25.796,0.768-25.796,13.994v71.912    C153.116,154.66,59.315,235.62,27.592,347.13L0.707,441.602c-5.01,17.607,17.867,29.038,29.096,14.993    C97.18,372.314,144.05,293.573,265.192,277.219v66.265c0,13.23,14.71,21.205,25.796,13.994l213.428-138.829    C514.527,212.074,514.531,197.239,504.417,190.662z M298.58,312.71v-53.925c0-9.645-8.16-17.285-17.775-16.659    c-81.97,5.323-158.409,45.183-209.719,109.359l-15.558,19.463c35.792-125.777,125.944-191.786,228-201.862    c8.543-0.844,15.053-8.029,15.053-16.612V96.6l166.12,108.056L298.58,312.71z"/>
	</g>
</g>
<g>
</g>
<g>
</g>
<g>
</g>
<g>
</g>
<g>
</g>
<g>
</g>
<g>
</g>
<g>
</g>
<g>
</g>
<g>
</g>
<g>
</g>
<g>
</g>
<g>
</g>
<g>
</g>
<g>
</g>
</svg>
