<?xml version="1.0" encoding="iso-8859-1"?>
<!-- Generator: Adobe Illustrator 19.0.0, SVG Export Plug-In . SVG Version: 6.00 Build 0)  -->
<svg xmlns="http://www.w3.org/2000/svg" xmlns:xlink="http://www.w3.org/1999/xlink" version="1.1" id="Layer_1" x="0px" y="0px" viewBox="0 0 512 512" style="enable-background:new 0 0 512 512;" xml:space="preserve">
<g>
	<g>
		<path d="M453.939,166.57H331.31L305.084,65.015c-8.57-33.188-39.641-55.614-73.866-53.248    C185.27,14.899,155.75,56.46,167.381,101.5l11.578,44.832c4.099,15.872-4.298,32.403-19.533,38.455l-21.224,8.429v-7.448    c0-10.603-8.596-19.2-19.2-19.2H19.2c-10.603,0-19.2,8.596-19.2,19.2v295.434c0,10.604,8.596,19.2,19.2,19.2h99.802    c10.604,0,19.2-8.596,19.2-19.2v-7.448l56.775,22.548c6.849,2.721,14.058,4.1,21.427,4.1l208.211,0.003    c28.937,0,53.67-21.627,57.532-50.304l29.323-217.729C516.161,197.547,489.042,166.57,453.939,166.57z M99.802,462.001H38.4    V204.967h61.403C99.802,216.145,99.802,444.976,99.802,462.001z M473.415,227.247l-29.323,217.729    c-1.307,9.707-9.681,17.029-19.476,17.029l-208.211-0.003c-2.493,0-4.934-0.467-7.254-1.388l-70.95-28.179V234.534l35.397-14.058    c33.177-13.176,51.465-49.179,42.539-83.744l-11.578-44.833c-5.594-21.656,7.085-40.306,29.268-41.82    c15.795-1.078,30.125,9.244,34.075,24.54l29.944,115.953c2.189,8.476,9.836,14.399,18.589,14.399h137.502    C465.846,204.969,475.008,215.421,473.415,227.247z"/>
	</g>
</g>
<g>
</g>
<g>
</g>
<g>
</g>
<g>
</g>
<g>
</g>
<g>
</g>
<g>
</g>
<g>
</g>
<g>
</g>
<g>
</g>
<g>
</g>
<g>
</g>
<g>
</g>
<g>
</g>
<g>
</g>
</svg>
