<?xml version="1.0" encoding="iso-8859-1"?>
<!-- Generator: Adobe Illustrator 19.0.0, SVG Export Plug-In . SVG Version: 6.00 Build 0)  -->
<svg xmlns="http://www.w3.org/2000/svg" xmlns:xlink="http://www.w3.org/1999/xlink" version="1.1" id="Layer_1" x="0px" y="0px" viewBox="0 0 511.999 511.999" style="enable-background:new 0 0 511.999 511.999;" xml:space="preserve">
<g>
	<g>
		<path d="M435.696,0H126.482C89.606,0,59.606,29.994,59.606,66.862v378.276c0,36.868,30,66.862,66.876,66.862h309.216    c9.22,0,16.696-7.475,16.696-16.696c0-17.453,0-461.153,0-478.609C452.392,7.475,444.917,0,435.696,0z M419.002,478.609h-0.001    H126.482c-18.464,0-33.485-15.015-33.485-33.47V124.735c10.152,5.897,21.687,9.002,33.485,9.002h292.52V478.609z M419.002,100.346    h-292.52c-18.461,0-33.485-15.018-33.485-33.485c0-18.455,15.022-33.47,33.485-33.47h292.52V100.346z"/>
	</g>
</g>
<g>
	<g>
		<path d="M358.817,336.071l-14.603-14.604c-11.989-11.99-30.324-15.135-45.621-7.828l-15.156,7.238l-42.142-42.142l7.239-15.156    c7.306-15.299,4.162-33.632-7.825-45.62c-0.001,0-0.001,0-0.001,0l-14.604-14.605c-19.539-19.538-52.605-13.869-64.516,11.069    l-12.553,26.283c-14.181,29.692-8.077,65.273,15.19,88.539l68.703,68.704c23.274,23.276,58.857,29.367,88.539,15.191    l26.282-12.553C372.683,388.678,378.36,355.613,358.817,336.071z M333.359,370.454l-26.283,12.554    c-16.947,8.095-37.257,4.609-50.537-8.671l-68.704-68.704c-13.282-13.28-16.766-33.588-8.672-50.537l12.553-26.283    c1.999-4.183,7.511-5.113,10.775-1.849l14.603,14.604c2.002,2.001,2.528,5.063,1.308,7.619l-12.327,25.809    c-3.05,6.384-1.743,13.999,3.26,19.001l58.838,58.838c5.004,5.004,12.615,6.308,19.001,3.26l25.809-12.327    c2.56-1.22,5.619-0.695,7.62,1.307l14.604,14.605C338.479,362.952,337.542,368.456,333.359,370.454z"/>
	</g>
</g>
<g>
</g>
<g>
</g>
<g>
</g>
<g>
</g>
<g>
</g>
<g>
</g>
<g>
</g>
<g>
</g>
<g>
</g>
<g>
</g>
<g>
</g>
<g>
</g>
<g>
</g>
<g>
</g>
<g>
</g>
</svg>
