<?xml version="1.0" encoding="iso-8859-1"?>
<!-- Generator: Adobe Illustrator 19.0.0, SVG Export Plug-In . SVG Version: 6.00 Build 0)  -->
<svg xmlns="http://www.w3.org/2000/svg" xmlns:xlink="http://www.w3.org/1999/xlink" version="1.1" id="Layer_1" x="0px" y="0px" viewBox="0 0 511.999 511.999" style="enable-background:new 0 0 511.999 511.999;" xml:space="preserve">
<g>
	<g>
		<path d="M499.162,68.598c-5.696-11.482-20.991-13.962-30.023-4.923l-37.01,37.01l-20.814-20.814l37.01-37.01    c9.047-9.047,6.546-24.333-4.923-30.023c-47.43-23.513-104.467-14.143-141.929,23.32c-34.193,34.193-44.984,84.695-28.728,129.31    L165.469,272.743c-44.622-16.256-95.118-5.466-129.311,28.728c-37.463,37.462-46.834,94.5-23.321,141.929    c5.685,11.459,20.97,13.977,30.023,4.923l37.01-37.01l20.814,20.814l-37.01,37.01c-9.047,9.047-6.546,24.333,4.923,30.023    c47.448,23.522,104.478,14.13,141.929-23.321c34.193-34.192,44.984-84.693,28.728-129.311l107.274-107.275    c44.618,16.253,95.119,5.464,129.312-28.728C513.305,173.064,522.675,116.027,499.162,68.598z M449.355,184.04    c-26.086,26.084-65.792,32.615-98.806,16.246c-7.204-3.566-15.881-2.148-21.563,3.537L203.824,328.987    c-5.685,5.684-7.107,14.36-3.537,21.563c16.368,33.014,9.839,72.721-16.246,98.806c-19.3,19.299-46.057,27.893-72.041,24.43    l28.414-28.414c7.314-7.313,7.314-19.172,0-26.486l-47.3-47.3c-7.313-7.313-19.172-7.313-26.486,0l-28.414,28.414    c-3.462-25.985,5.13-52.742,24.43-72.041c26.085-26.085,65.792-32.614,98.805-16.246c7.203,3.57,15.879,2.148,21.563-3.537    L308.175,183.01c5.685-5.684,7.107-14.36,3.537-21.563c-16.366-33.011-9.839-72.718,16.246-98.805    c19.3-19.299,46.055-27.888,72.041-24.43l-28.414,28.414c-7.314,7.313-7.314,19.172,0,26.486l47.3,47.3    c7.313,7.313,19.172,7.313,26.486,0l28.414-28.414C477.248,137.984,468.654,164.741,449.355,184.04z"/>
	</g>
</g>
<g>
</g>
<g>
</g>
<g>
</g>
<g>
</g>
<g>
</g>
<g>
</g>
<g>
</g>
<g>
</g>
<g>
</g>
<g>
</g>
<g>
</g>
<g>
</g>
<g>
</g>
<g>
</g>
<g>
</g>
</svg>
