<?xml version="1.0" encoding="iso-8859-1"?>
<!-- Generator: Adobe Illustrator 19.0.0, SVG Export Plug-In . SVG Version: 6.00 Build 0)  -->
<svg xmlns="http://www.w3.org/2000/svg" xmlns:xlink="http://www.w3.org/1999/xlink" version="1.1" id="Layer_1" x="0px" y="0px" viewBox="0 0 512 512" style="enable-background:new 0 0 512 512;" xml:space="preserve">
<g>
	<g>
		<path d="M471.827,477.867H441.85c0-3.626,0-437.191,0-443.733h29.977c9.425,0,17.067-7.641,17.067-17.067S481.252,0,471.827,0    C460.447,0,52.131,0,40.172,0c-9.425,0-17.067,7.641-17.067,17.067s7.641,17.067,17.067,17.067h29.977    c0,8.959,0,440.794,0,443.733H40.172c-9.425,0-17.067,7.641-17.067,17.067S30.747,512,40.172,512c11.381,0,419.695,0,431.656,0    c9.425,0,17.067-7.641,17.067-17.067S481.253,477.867,471.827,477.867z M104.281,164.979    c20.498,35.406,48.69,64.433,81.136,85.587v10.868c-33.273,21.693-61.173,51.106-81.136,85.587V164.979z M104.281,477.867    c0-84.928,42.975-154.073,106.96-192.327c5.153-3.081,8.309-8.644,8.309-14.649v-29.785c0-6.004-3.155-11.568-8.309-14.649    c-12.182-7.283-23.604-15.737-34.116-25.195h157.747c-10.511,9.458-21.933,17.911-34.116,25.195    c-5.153,3.081-8.309,8.644-8.309,14.649v29.785c0,6.004,3.155,11.568,8.309,14.649c63.969,38.243,106.96,107.354,106.96,192.327    H104.281z M407.718,347.021c-19.962-34.482-47.863-63.894-81.136-85.587v-10.868c32.296-21.056,60.56-50.047,81.136-85.587    V347.021z M365.625,167.132H146.373c-29.359-40.307-42.092-84.744-42.092-132.998h303.436    C407.718,83.206,394.543,127.432,365.625,167.132z"/>
	</g>
</g>
<g>
</g>
<g>
</g>
<g>
</g>
<g>
</g>
<g>
</g>
<g>
</g>
<g>
</g>
<g>
</g>
<g>
</g>
<g>
</g>
<g>
</g>
<g>
</g>
<g>
</g>
<g>
</g>
<g>
</g>
</svg>
