<?xml version="1.0" encoding="iso-8859-1"?>
<!-- Generator: Adobe Illustrator 19.0.0, SVG Export Plug-In . SVG Version: 6.00 Build 0)  -->
<svg xmlns="http://www.w3.org/2000/svg" xmlns:xlink="http://www.w3.org/1999/xlink" version="1.1" id="Layer_1" x="0px" y="0px" viewBox="0 0 512 512" style="enable-background:new 0 0 512 512;" xml:space="preserve">
<g>
	<g>
		<path d="M476.677,70.777h-28.6L421.148,10.14C418.41,3.974,412.297,0,405.55,0H106.449c-6.747,0-12.86,3.974-15.598,10.14    L63.922,70.777h-28.6c-9.425,0-17.067,7.641-17.067,17.067s7.641,17.067,17.067,17.067h23.896l30.216,391.336    c0.685,8.891,8.1,15.754,17.015,15.754h299.102c8.916,0,16.331-6.863,17.016-15.754l30.216-391.336h23.896    c9.425,0,17.067-7.641,17.067-17.067S486.103,70.777,476.677,70.777z M117.543,34.133h276.912l16.274,36.643H101.27    L117.543,34.133z M389.751,477.867H122.248L93.451,104.91h325.096L389.751,477.867z"/>
	</g>
</g>
<g>
	<g>
		<path d="M255.999,162.658c-9.425,0-17.067,7.641-17.067,17.067v223.326c0,9.425,7.641,17.067,17.067,17.067    s17.067-7.641,17.067-17.067V179.725C273.066,170.299,265.425,162.658,255.999,162.658z"/>
	</g>
</g>
<g>
	<g>
		<path d="M181.877,162.658c-9.425,0-17.067,7.641-17.067,17.067v223.326c0,9.425,7.64,17.067,17.067,17.067    c9.425,0,17.067-7.641,17.067-17.067V179.725C198.943,170.299,191.302,162.658,181.877,162.658z"/>
	</g>
</g>
<g>
	<g>
		<path d="M330.122,162.658c-9.425,0-17.067,7.641-17.067,17.067v223.326c0,9.425,7.641,17.067,17.067,17.067    s17.067-7.641,17.067-17.067V179.725C347.189,170.299,339.548,162.658,330.122,162.658z"/>
	</g>
</g>
<g>
</g>
<g>
</g>
<g>
</g>
<g>
</g>
<g>
</g>
<g>
</g>
<g>
</g>
<g>
</g>
<g>
</g>
<g>
</g>
<g>
</g>
<g>
</g>
<g>
</g>
<g>
</g>
<g>
</g>
</svg>
