<?xml version="1.0" encoding="iso-8859-1"?>
<!-- Generator: Adobe Illustrator 19.0.0, SVG Export Plug-In . SVG Version: 6.00 Build 0)  -->
<svg xmlns="http://www.w3.org/2000/svg" xmlns:xlink="http://www.w3.org/1999/xlink" version="1.1" id="Layer_1" x="0px" y="0px" viewBox="0 0 512 512" style="enable-background:new 0 0 512 512;" xml:space="preserve">
<g>
	<g>
		<path d="M495.304,105.739H16.696C7.53,105.739,0,113.199,0,122.435v267.13c0,9.22,7.475,16.696,16.696,16.696h478.609    c9.22,0,16.696-7.475,16.696-16.696v-267.13C512,113.202,504.471,105.739,495.304,105.739z M424.152,139.13    c-8.869,4.404-162.796,80.854-168.152,83.514c-5.677-2.819-159.461-79.197-168.152-83.514H424.152z M478.609,372.87H33.391    V149.368l148.368,73.688l-69.841,47.957c-7.602,5.219-9.532,15.613-4.313,23.214c5.22,7.601,15.613,9.532,23.214,4.313    l85.17-58.483l32.583,16.183c4.677,2.324,10.175,2.324,14.855,0l32.582-16.183l85.169,58.482    c7.604,5.221,17.998,3.286,23.214-4.313c5.219-7.601,3.289-17.995-4.312-23.214l-69.839-47.957l148.369-73.687V372.87z"/>
	</g>
</g>
<g>
</g>
<g>
</g>
<g>
</g>
<g>
</g>
<g>
</g>
<g>
</g>
<g>
</g>
<g>
</g>
<g>
</g>
<g>
</g>
<g>
</g>
<g>
</g>
<g>
</g>
<g>
</g>
<g>
</g>
</svg>
