<?xml version="1.0" encoding="iso-8859-1"?>
<!-- Generator: Adobe Illustrator 19.0.0, SVG Export Plug-In . SVG Version: 6.00 Build 0)  -->
<svg xmlns="http://www.w3.org/2000/svg" xmlns:xlink="http://www.w3.org/1999/xlink" version="1.1" id="Layer_1" x="0px" y="0px" viewBox="0 0 512 512" style="enable-background:new 0 0 512 512;" xml:space="preserve">
<g>
	<g>
		<path d="M472.178,133.907h-54.304V35.132c0-9.425-7.641-17.067-17.067-17.067H111.193c-9.425,0-17.067,7.641-17.067,17.067v98.775    H39.822C17.864,133.907,0,151.772,0,173.73v171.702c0,21.958,17.864,39.822,39.822,39.822h54.306v91.614    c0,9.425,7.641,17.067,17.067,17.067h289.61c9.425,0,17.067-7.641,17.067-17.067v-91.614h54.306    c21.958,0,39.822-17.864,39.822-39.822V173.73C512,151.773,494.136,133.907,472.178,133.907z M128.259,52.199h255.482v81.708    H128.259V52.199z M383.738,459.801H128.262c0-3.335,0-135.503,0-139.628h255.477C383.738,324.402,383.738,456.594,383.738,459.801    z M477.867,345.433c0,3.137-2.552,5.689-5.689,5.689h-54.306v-48.014c0-9.425-7.641-17.067-17.067-17.067h-289.61    c-9.425,0-17.067,7.641-17.067,17.067v48.014H39.822c-3.137,0-5.689-2.552-5.689-5.689V173.731c0-3.137,2.552-5.689,5.689-5.689    c13.094,0,419.574,0,432.356,0c3.137,0,5.689,2.552,5.689,5.689V345.433z"/>
	</g>
</g>
<g>
	<g>
		<path d="M400.807,199.988h-43.443c-9.425,0-17.067,7.641-17.067,17.067s7.641,17.067,17.067,17.067h43.443    c9.425,0,17.067-7.641,17.067-17.067S410.234,199.988,400.807,199.988z"/>
	</g>
</g>
<g>
</g>
<g>
</g>
<g>
</g>
<g>
</g>
<g>
</g>
<g>
</g>
<g>
</g>
<g>
</g>
<g>
</g>
<g>
</g>
<g>
</g>
<g>
</g>
<g>
</g>
<g>
</g>
<g>
</g>
</svg>
