<?xml version="1.0" encoding="iso-8859-1"?>
<!-- Generator: Adobe Illustrator 19.0.0, SVG Export Plug-In . SVG Version: 6.00 Build 0)  -->
<svg xmlns="http://www.w3.org/2000/svg" xmlns:xlink="http://www.w3.org/1999/xlink" version="1.1" id="Layer_1" x="0px" y="0px" viewBox="0 0 512 512" style="enable-background:new 0 0 512 512;" xml:space="preserve">
<g>
	<g>
		<path d="M420.706,66.84h-65.658v-8.969c0-9.22-7.475-16.696-16.696-16.696h-26.935C304.235,17.379,282.108,0,255.999,0    s-48.236,17.379-55.418,41.177h-26.935c-9.22,0-16.696,7.475-16.696,16.696v8.969H91.292c-9.22,0-16.696,7.475-16.696,16.696    v411.767c0,9.22,7.475,16.696,16.696,16.696h329.415c9.22,0,16.696-7.475,16.696-16.696V83.536    C437.402,74.316,429.928,66.84,420.706,66.84z M190.342,74.568h24.48c9.22,0,16.696-7.475,16.696-16.696    c0-13.499,10.982-24.481,24.481-24.481c13.499,0,24.481,10.982,24.481,24.481c0,9.22,7.475,16.696,16.696,16.696h24.48    c0,3.67,0,23.879,0,26.172H190.342C190.342,98.629,190.342,78.226,190.342,74.568z M404.012,478.609h-0.001H107.988V100.232    h48.963v17.203c0,9.22,7.475,16.696,16.696,16.696h164.707c9.22,0,16.696-7.475,16.696-16.696v-17.203h48.963V478.609z"/>
	</g>
</g>
<g>
	<g>
		<path d="M322.148,200.976H189.851c-9.22,0-16.696,7.475-16.696,16.696c0,9.22,7.475,16.696,16.696,16.696h132.296    c9.22,0,16.696-7.475,16.696-16.696C338.843,208.451,331.368,200.976,322.148,200.976z"/>
	</g>
</g>
<g>
	<g>
		<path d="M322.148,289.674H189.851c-9.22,0-16.696,7.475-16.696,16.696c0,9.22,7.475,16.696,16.696,16.696h132.296    c9.22,0,16.696-7.475,16.696-16.696C338.843,297.149,331.368,289.674,322.148,289.674z"/>
	</g>
</g>
<g>
	<g>
		<path d="M322.148,378.372H189.851c-9.22,0-16.696,7.475-16.696,16.696s7.475,16.696,16.696,16.696h132.296    c9.22,0,16.696-7.475,16.696-16.696S331.368,378.372,322.148,378.372z"/>
	</g>
</g>
<g>
</g>
<g>
</g>
<g>
</g>
<g>
</g>
<g>
</g>
<g>
</g>
<g>
</g>
<g>
</g>
<g>
</g>
<g>
</g>
<g>
</g>
<g>
</g>
<g>
</g>
<g>
</g>
<g>
</g>
</svg>
