<?xml version="1.0" encoding="iso-8859-1"?>
<!-- Generator: Adobe Illustrator 19.0.0, SVG Export Plug-In . SVG Version: 6.00 Build 0)  -->
<svg xmlns="http://www.w3.org/2000/svg" xmlns:xlink="http://www.w3.org/1999/xlink" version="1.1" id="Layer_1" x="0px" y="0px" viewBox="0 0 512 512" style="enable-background:new 0 0 512 512;" xml:space="preserve">
<g>
	<g>
		<path d="M459.25,126.725L337.412,4.887C334.202,1.675,329.85,0,325.604,0H64.555C55.335,0,47.86,7.475,47.86,16.696v478.609    c0,9.22,7.475,16.696,16.696,16.696h382.889c9.221,0,16.696-7.475,16.696-16.696V138.538    C464.14,134.242,462.427,129.902,459.25,126.725z M342.303,57.006l64.827,64.829h-64.827V57.006z M430.749,478.608H81.251V33.392    h227.66V138.53c0,9.221,7.475,16.696,16.696,16.696h105.142V478.608z"/>
	</g>
</g>
<g>
	<g>
		<path d="M385.274,417.313L278.918,310.959c22.304-33.324,18.764-78.94-10.643-108.347c-33.446-33.446-87.868-33.446-121.314,0    s-33.446,87.868,0,121.314c29.365,29.364,74.952,32.994,108.347,10.643l106.355,106.355c6.52,6.52,17.091,6.52,23.611,0    C391.794,434.405,391.794,423.833,385.274,417.313z M244.664,300.316c-20.427,20.427-53.664,20.426-74.091,0    c-20.427-20.428-20.427-53.665,0-74.091c20.427-20.426,53.664-20.427,74.091,0C265.091,246.652,265.091,279.889,244.664,300.316z"/>
	</g>
</g>
<g>
</g>
<g>
</g>
<g>
</g>
<g>
</g>
<g>
</g>
<g>
</g>
<g>
</g>
<g>
</g>
<g>
</g>
<g>
</g>
<g>
</g>
<g>
</g>
<g>
</g>
<g>
</g>
<g>
</g>
</svg>
