<?xml version="1.0" encoding="iso-8859-1"?>
<!-- Generator: Adobe Illustrator 19.0.0, SVG Export Plug-In . SVG Version: 6.00 Build 0)  -->
<svg xmlns="http://www.w3.org/2000/svg" xmlns:xlink="http://www.w3.org/1999/xlink" version="1.1" id="Layer_1" x="0px" y="0px" viewBox="0 0 512 512" style="enable-background:new 0 0 512 512;" xml:space="preserve">
<g>
	<g>
		<path d="M215.507,0H18.732C8.387,0,0,8.387,0,18.732v196.775c0,10.345,8.387,18.732,18.732,18.732h196.775    c10.345,0,18.732-8.387,18.732-18.732V18.732C234.239,8.387,225.852,0,215.507,0z M196.775,196.775H37.463V37.463h159.312V196.775    z"/>
	</g>
</g>
<g>
	<g>
		<path d="M493.268,0H296.493c-10.345,0-18.732,8.387-18.732,18.732v196.775c0,10.345,8.387,18.732,18.732,18.732h196.775    c10.345,0,18.732-8.387,18.732-18.732V18.732C512,8.387,503.613,0,493.268,0z M474.537,196.775H315.225V37.463h159.312V196.775z"/>
	</g>
</g>
<g>
	<g>
		<path d="M215.507,277.761H18.732C8.387,277.761,0,286.148,0,296.493v196.775C0,503.613,8.387,512,18.732,512h196.775    c10.345,0,18.732-8.387,18.732-18.732V296.493C234.239,286.148,225.852,277.761,215.507,277.761z M196.775,474.537H37.463V315.225    h159.312V474.537z"/>
	</g>
</g>
<g>
	<g>
		<path d="M493.268,277.761H296.493c-10.345,0-18.732,8.387-18.732,18.732v196.775c0,10.345,8.387,18.732,18.732,18.732h196.775    c10.345,0,18.732-8.387,18.732-18.732V296.493C512,286.148,503.613,277.761,493.268,277.761z M474.537,474.537H315.225V315.225    h159.312V474.537z"/>
	</g>
</g>
<g>
	<g>
		<path d="M150.694,98.388h-14.843V83.543c0-10.345-8.387-18.732-18.732-18.732s-18.732,8.387-18.732,18.732v14.843H83.543    c-10.345,0-18.732,8.387-18.732,18.732c0,10.346,8.387,18.733,18.732,18.733h14.844v14.843c0,10.345,8.387,18.732,18.732,18.732    s18.732-8.387,18.732-18.732v-14.843h14.843c10.345,0,18.732-8.387,18.732-18.732S161.039,98.388,150.694,98.388z"/>
	</g>
</g>
<g>
	<g>
		<path d="M150.694,376.149H83.543c-10.345,0-18.732,8.387-18.732,18.732c0,10.345,8.387,18.732,18.732,18.732h67.151    c10.345,0,18.732-8.387,18.732-18.732C169.426,384.536,161.039,376.149,150.694,376.149z"/>
	</g>
</g>
<g>
	<g>
		<path d="M428.457,376.149h-67.151c-10.345,0-18.732,8.387-18.732,18.732c0,10.345,8.386,18.732,18.732,18.732h67.151    c10.345,0,18.732-8.387,18.732-18.732C447.188,384.536,438.802,376.149,428.457,376.149z"/>
	</g>
</g>
<g>
	<g>
		<path d="M421.371,117.119l10.496-10.496c7.315-7.315,7.315-19.175,0-26.49c-7.314-7.315-19.175-7.315-26.49,0l-10.496,10.496    l-10.496-10.496c-7.314-7.315-19.175-7.315-26.49,0s-7.315,19.175,0,26.49l10.496,10.496l-10.496,10.496    c-7.315,7.315-7.315,19.175,0,26.49c7.314,7.315,19.175,7.317,26.49,0l10.496-10.496l10.496,10.496    c7.314,7.315,19.175,7.317,26.49,0c7.315-7.315,7.315-19.175,0-26.49L421.371,117.119z"/>
	</g>
</g>
<g>
	<g>
		<circle cx="394.877" cy="346.711" r="14.985"/>
	</g>
</g>
<g>
	<g>
		<circle cx="394.877" cy="443.042" r="14.985"/>
	</g>
</g>
<g>
</g>
<g>
</g>
<g>
</g>
<g>
</g>
<g>
</g>
<g>
</g>
<g>
</g>
<g>
</g>
<g>
</g>
<g>
</g>
<g>
</g>
<g>
</g>
<g>
</g>
<g>
</g>
<g>
</g>
</svg>
