<?xml version="1.0" encoding="iso-8859-1"?>
<!-- Generator: Adobe Illustrator 19.0.0, SVG Export Plug-In . SVG Version: 6.00 Build 0)  -->
<svg xmlns="http://www.w3.org/2000/svg" xmlns:xlink="http://www.w3.org/1999/xlink" version="1.1" id="Layer_1" x="0px" y="0px" viewBox="0 0 512 512" style="enable-background:new 0 0 512 512;" xml:space="preserve">
<g>
	<g>
		<path d="M505.435,234.777L267.871,4.805c-6.617-6.407-17.124-6.407-23.741,0L6.563,234.777    c-10.991,10.639-3.438,29.328,11.87,29.328h59.605v230.828c0,9.425,7.641,17.067,17.067,17.067c10.367,0,310.956,0,321.787,0    c9.425,0,17.067-7.641,17.067-17.067V264.107h59.605C508.86,264.107,516.438,245.427,505.435,234.777z M294.589,477.867H217.41    v-124.45h77.179V477.867z M399.827,477.867h-71.104V336.35c0-9.425-7.641-17.067-17.067-17.067H200.344    c-9.425,0-17.067,7.641-17.067,17.067v141.517h-71.104v-213.76h287.654V477.867z M60.602,229.974L255.999,40.82l195.397,189.152    C437.852,229.974,77.005,229.974,60.602,229.974z"/>
	</g>
</g>
<g>
</g>
<g>
</g>
<g>
</g>
<g>
</g>
<g>
</g>
<g>
</g>
<g>
</g>
<g>
</g>
<g>
</g>
<g>
</g>
<g>
</g>
<g>
</g>
<g>
</g>
<g>
</g>
<g>
</g>
</svg>
