<?xml version="1.0" encoding="iso-8859-1"?>
<!-- Generator: Adobe Illustrator 19.0.0, SVG Export Plug-In . SVG Version: 6.00 Build 0)  -->
<svg xmlns="http://www.w3.org/2000/svg" xmlns:xlink="http://www.w3.org/1999/xlink" version="1.1" id="Layer_1" x="0px" y="0px" viewBox="0 0 512 512" style="enable-background:new 0 0 512 512;" xml:space="preserve">
<g>
	<g>
		<path d="M511.186,428.187l-40.263-124.86c-1.306-4.046-4.105-7.443-7.827-9.495l-82.13-45.299    c9.556-14.804,14.689-32.037,14.689-50.164v-43.523c0-51.199-41.653-92.852-92.851-92.852c-17.037,0-33.004,4.633-46.744,12.675    c-14.147-8.319-30.13-12.677-46.865-12.677c-51.2,0-92.854,41.655-92.854,92.855v43.521c0,18.124,5.134,35.357,14.694,50.167    L48.903,293.83c-3.723,2.053-6.521,5.449-7.827,9.495L0.816,428.189c-3.475,10.778,4.582,21.819,15.89,21.819    c13.107,0,452.991-0.002,478.59-0.002C506.641,450.006,514.648,438.927,511.186,428.187z M243.342,154.846    c0-32.857,26.742-59.462,59.462-59.462c32.788,0,59.461,26.674,59.461,59.462v43.523c0,33.128-26.85,59.461-59.461,59.461    c-32.263,0-59.462-25.994-59.462-59.461V154.846z M209.196,95.382c6.794,0,13.396,1.117,19.624,3.292    c-12.696,16.649-18.87,36.512-18.87,56.173v43.521c0,18.59,5.439,35.879,14.669,50.179c-15.645,8.629-12.308,6.788-16.778,9.253    c-32.313-0.749-58.109-27.009-58.109-59.432v-43.521h-0.001C149.732,122.058,176.408,95.382,209.196,95.382z M39.63,416.618    l31.196-96.746l83.912-46.276c3.301,2.395,7.617,5.101,11.522,7.139l-23.746,13.097c-3.73,2.057-6.524,5.459-7.828,9.497    l-36.532,113.29H39.63z M133.24,416.616l31.194-96.742c69.426-38.292,49.117-27.092,83.917-46.282    c32.137,23.423,76.57,23.531,108.909-0.001l83.916,46.283l31.195,96.742H133.24z"/>
	</g>
</g>
<g>
</g>
<g>
</g>
<g>
</g>
<g>
</g>
<g>
</g>
<g>
</g>
<g>
</g>
<g>
</g>
<g>
</g>
<g>
</g>
<g>
</g>
<g>
</g>
<g>
</g>
<g>
</g>
<g>
</g>
</svg>
