<?xml version="1.0" encoding="iso-8859-1"?>
<!-- Generator: Adobe Illustrator 19.0.0, SVG Export Plug-In . SVG Version: 6.00 Build 0)  -->
<svg xmlns="http://www.w3.org/2000/svg" xmlns:xlink="http://www.w3.org/1999/xlink" version="1.1" id="Layer_1" x="0px" y="0px" viewBox="0 0 512 512" style="enable-background:new 0 0 512 512;" xml:space="preserve">
<g>
	<g>
		<path d="M495.304,61.217H16.696C7.475,61.217,0,68.693,0,77.913v356.174c0,9.22,7.475,16.696,16.696,16.696h478.609    c9.22,0,16.696-7.475,16.696-16.696V77.913C512,68.693,504.525,61.217,495.304,61.217z M239.304,417.391H33.391v-66.424h205.913    V417.391z M478.609,417.391H272.696v-66.424h205.913V417.391z M478.609,317.576H258.249c-0.738-0.099-1.485-0.169-2.249-0.169    c-0.765,0-1.512,0.069-2.249,0.169H33.391V94.609h445.217V317.576z"/>
	</g>
</g>
<g>
	<g>
		<path d="M311.716,219.457h-8.885l3.471-26.73h5.415c9.22,0,16.696-7.475,16.696-16.696s-7.475-16.696-16.696-16.696h-1.078    l0.884-6.808c1.188-9.144-5.264-17.519-14.406-18.707c-9.157-1.195-17.519,5.264-18.707,14.406l-1.443,11.108h-26.449l0.884-6.808    c1.188-9.144-5.262-17.519-14.406-18.707c-9.139-1.19-17.519,5.262-18.707,14.406l-1.443,11.108h-16.56    c-9.22,0-16.696,7.475-16.696,16.696s7.475,16.696,16.696,16.696h12.223l-3.47,26.73h-8.752v0.002    c-9.22,0-16.696,7.475-16.696,16.696s7.475,16.696,16.696,16.696h4.417l-0.884,6.809c-1.188,9.144,5.262,17.519,14.406,18.707    c0.73,0.095,1.455,0.14,2.172,0.14c8.263,0,15.443-6.133,16.535-14.547l1.443-11.108h26.449l-0.884,6.808    c-1.188,9.144,5.264,17.519,14.406,18.707c0.73,0.095,1.455,0.14,2.17,0.14c8.264,0,15.443-6.133,16.535-14.547l1.443-11.108    h13.222c9.22,0,16.696-7.475,16.696-16.696S320.936,219.457,311.716,219.457z M269.158,219.457H242.71l3.47-26.73h26.448    L269.158,219.457z"/>
	</g>
</g>
<g>
</g>
<g>
</g>
<g>
</g>
<g>
</g>
<g>
</g>
<g>
</g>
<g>
</g>
<g>
</g>
<g>
</g>
<g>
</g>
<g>
</g>
<g>
</g>
<g>
</g>
<g>
</g>
<g>
</g>
</svg>
