<?xml version="1.0" encoding="iso-8859-1"?>
<!-- Generator: Adobe Illustrator 19.0.0, SVG Export Plug-In . SVG Version: 6.00 Build 0)  -->
<svg xmlns="http://www.w3.org/2000/svg" xmlns:xlink="http://www.w3.org/1999/xlink" version="1.1" id="Layer_1" x="0px" y="0px" viewBox="0 0 512 512" style="enable-background:new 0 0 512 512;" xml:space="preserve">
<g>
	<g>
		<path d="M495.304,61.217H16.696C7.475,61.217,0,68.693,0,77.913v356.174c0,9.22,7.475,16.696,16.696,16.696h478.609    c9.22,0,16.696-7.475,16.696-16.696V77.913C512,68.693,504.525,61.217,495.304,61.217z M478.609,417.391H33.391V194.425h445.217    V417.391z M478.609,161.034H33.391V94.609h445.217V161.034z"/>
	</g>
</g>
<g>
	<g>
		<path d="M443.568,103.247c-12.275,0-22.261,9.986-22.261,22.261c0,12.275,9.986,22.261,22.261,22.261s22.261-9.986,22.261-22.261    C465.829,113.233,455.843,103.247,443.568,103.247z"/>
	</g>
</g>
<g>
	<g>
		<path d="M382.926,103.247c-12.275,0-22.261,9.986-22.261,22.261c0,12.275,9.986,22.261,22.261,22.261s22.261-9.986,22.261-22.261    C405.187,113.233,395.201,103.247,382.926,103.247z"/>
	</g>
</g>
<g>
	<g>
		<path d="M322.284,103.247c-12.275,0-22.261,9.986-22.261,22.261c0,12.275,9.986,22.261,22.261,22.261s22.261-9.986,22.261-22.261    C344.545,113.233,334.559,103.247,322.284,103.247z"/>
	</g>
</g>
<g>
	<g>
		<path d="M426.025,226.549H284.364c-9.22,0-16.696,7.475-16.696,16.696s7.475,16.696,16.696,16.696h141.66    c9.22,0,16.696-7.475,16.696-16.696S435.246,226.549,426.025,226.549z"/>
	</g>
</g>
<g>
	<g>
		<path d="M426.025,289.212H284.364c-9.22,0-16.696,7.475-16.696,16.696c0,9.22,7.475,16.696,16.696,16.696h141.66    c9.22,0,16.696-7.475,16.696-16.696C442.72,296.687,435.246,289.212,426.025,289.212z"/>
	</g>
</g>
<g>
	<g>
		<path d="M426.025,351.876H284.364c-9.22,0-16.696,7.475-16.696,16.696c0,9.22,7.475,16.696,16.696,16.696h141.66    c9.22,0,16.696-7.475,16.696-16.696C442.72,359.352,435.246,351.876,426.025,351.876z"/>
	</g>
</g>
<g>
	<g>
		<path d="M206.296,221.214H85.975c-9.22,0-16.696,7.475-16.696,16.696v135.997c0,9.22,7.475,16.696,16.696,16.696h120.321    c9.22,0,16.696-7.475,16.696-16.696V237.91C222.992,228.689,215.516,221.214,206.296,221.214z M189.6,357.211h-86.93V254.605    h86.93V357.211z"/>
	</g>
</g>
<g>
</g>
<g>
</g>
<g>
</g>
<g>
</g>
<g>
</g>
<g>
</g>
<g>
</g>
<g>
</g>
<g>
</g>
<g>
</g>
<g>
</g>
<g>
</g>
<g>
</g>
<g>
</g>
<g>
</g>
</svg>
