<?xml version="1.0" encoding="iso-8859-1"?>
<!-- Generator: Adobe Illustrator 19.0.0, SVG Export Plug-In . SVG Version: 6.00 Build 0)  -->
<svg xmlns="http://www.w3.org/2000/svg" xmlns:xlink="http://www.w3.org/1999/xlink" version="1.1" id="Layer_1" x="0px" y="0px" viewBox="0 0 512 512" style="enable-background:new 0 0 512 512;" xml:space="preserve">
<g>
	<g>
		<path d="M507.863,490.465l-49.4-153.196c-1.289-3.994-4.051-7.346-7.725-9.371L346.08,270.172    c2.568-3.666,4.917-7.494,7.03-11.467c18.667-7.297,35.387-19.261,48.373-34.969h9.326c24.044,0,43.604-19.562,43.604-43.605    c0-22.343-17.208-43.605-45.538-43.605C400.236,59.817,334.978,0,256.001,0S111.765,59.817,103.124,136.524    c-28.089,0-45.538,21.051-45.538,43.605c0,24.044,19.561,43.605,43.605,43.605h17.428c9.1,0,16.478-7.378,16.478-16.478v-53.399    c0-66.666,54.238-120.903,120.904-120.903s120.904,54.237,120.904,120.904v47.89c-3.371,4.206-7.111,8.05-11.151,11.506    c0.226-4.196,0.166-0.768,0.166-59.398c0-60.609-49.31-109.919-109.919-109.919s-109.919,49.31-109.919,109.919v53.4    c0,23.382,7.344,45.078,19.839,62.914L61.263,327.896c-3.673,2.027-6.436,5.378-7.725,9.371L4.139,490.465    C0.709,501.103,8.661,512,19.821,512h472.359C503.378,512,511.28,501.065,507.863,490.465z M409.859,169.479    c7.617,0,11.6,5.268,11.6,10.651c0,5.371-3.955,10.65-11.6,10.65V169.479z M102.142,190.781c-7.616-0.001-11.6-5.27-11.6-10.651    c0-5.371,3.955-10.65,11.6-10.65V190.781z M239.519,479.046H42.447L82.899,353.6l106.608-58.8    c14.936,11.376,32.215,18.46,50.012,21.141V479.046z M179.038,207.257v-53.399h-0.001c0-42.438,34.526-76.964,76.964-76.964    s76.964,34.526,76.964,76.964v53.4c0,8.567-1.428,16.803-4.024,24.507c-6.184,1.409-12.559,2.151-19.023,2.151h-31.949    c-9.1,0-16.478,7.378-16.478,16.478c0,9.1,7.378,16.478,16.478,16.478h26.647c-13.424,10.968-30.374,17.35-48.613,17.35    C213.561,284.221,179.038,249.687,179.038,207.257z M272.474,479.044V315.941c18.191-2.748,35.363-9.979,50.021-21.143    l106.608,58.801l40.45,125.444H272.474z"/>
	</g>
</g>
<g>
</g>
<g>
</g>
<g>
</g>
<g>
</g>
<g>
</g>
<g>
</g>
<g>
</g>
<g>
</g>
<g>
</g>
<g>
</g>
<g>
</g>
<g>
</g>
<g>
</g>
<g>
</g>
<g>
</g>
</svg>
