<svg enable-background="new 0 0 34 58" height="512" viewBox="0 0 34 58" width="512" xmlns="http://www.w3.org/2000/svg"><path d="m31.998 0h-29.996c-1.106 0-2.002.896-2.002 2.002v47.998h34v-47.998c0-1.106-.896-2.002-2.002-2.002z" fill="#2f4156"/><path d="m20 5h-6c-.552 0-1-.448-1-1s.448-1 1-1h6c.552 0 1 .448 1 1s-.448 1-1 1z" fill="#fff"/><path d="m31.544 58h-29.088c-1.357 0-2.456-1.099-2.456-2.456v-9.544h34v9.544c0 1.357-1.099 2.456-2.456 2.456z" fill="#eaeff0"/><circle cx="17" cy="52" fill="#b8bec3" r="3"/><path d="m17 28-6-3v-8l6 3z" fill="#ed8a19"/><path d="m23 17-6 3-6-3 6-3z" fill="#ebba16"/><path d="m17 28 6-3v-8l-6 3z" fill="#d37313"/><path d="m23 39-6-3v-8l6 3z" fill="#3fefef"/><path d="m29 28-6 3-6-3 6-3z" fill="#12a2a8"/><path d="m23 39 6-3v-8l-6 3z" fill="#1dd1d9"/><path d="m11 39-6-3v-8l6 3z" fill="#fc3e81"/><path d="m17 28-6 3-6-3 6-3z" fill="#fd82ac"/><path d="m11 39 6-3v-8l-6 3z" fill="#f01054"/></svg>