<svg id="color" enable-background="new 0 0 24 24" height="512" viewBox="0 0 24 24" width="512" xmlns="http://www.w3.org/2000/svg"><path d="m18.5 8h-15c-1.933 0-3.5-1.567-3.5-3.5 0-1.933 1.567-3.5 3.5-3.5h15c1.933 0 3.5 1.567 3.5 3.5 0 1.933-1.567 3.5-3.5 3.5z" fill="#cfd8dc"/><path d="m18.5 15h-15c-1.933 0-3.5-1.567-3.5-3.5 0-1.933 1.567-3.5 3.5-3.5h15c1.933 0 3.5 1.567 3.5 3.5 0 1.933-1.567 3.5-3.5 3.5z" fill="#90a4ae"/><path d="m18.5 22h-15c-1.933 0-3.5-1.567-3.5-3.5 0-1.933 1.567-3.5 3.5-3.5h15c1.933 0 3.5 1.567 3.5 3.5 0 1.933-1.567 3.5-3.5 3.5z" fill="#cfd8dc"/><path d="m11 1h-7.5c-1.933 0-3.5 1.567-3.5 3.5s1.567 3.5 3.5 3.5h7.5z" fill="#b4bcc0"/><path d="m11 8h-7.5c-1.933 0-3.5 1.567-3.5 3.5s1.567 3.5 3.5 3.5h7.5z" fill="#7d8f97"/><path d="m11 15h-7.5c-1.933 0-3.5 1.567-3.5 3.5s1.567 3.5 3.5 3.5h7.5z" fill="#b4bcc0"/><g fill="#fafafa"><circle cx="3.5" cy="4.5" r="1"/><circle cx="8.5" cy="4.5" r="1"/><circle cx="3.5" cy="11.5" r="1"/><circle cx="8.5" cy="11.5" r="1"/><circle cx="3.5" cy="18.5" r="1"/><circle cx="8.5" cy="18.5" r="1"/></g><path d="m4.5 4.5h-2c0 .553.448 1 1 1s1-.447 1-1z" fill="#dadada"/><path d="m9.5 4.5h-2c0 .553.448 1 1 1s1-.447 1-1z" fill="#dadada"/><path d="m4.5 11.5h-2c0 .553.448 1 1 1s1-.447 1-1z" fill="#dadada"/><path d="m9.5 11.5h-2c0 .553.448 1 1 1s1-.447 1-1z" fill="#dadada"/><path d="m4.5 18.5h-2c0 .553.448 1 1 1s1-.447 1-1z" fill="#dadada"/><path d="m9.5 18.5h-2c0 .553.448 1 1 1s1-.447 1-1z" fill="#dadada"/><path d="m22.703 19.47c.02-.155.047-.309.047-.47s-.027-.314-.047-.47l.9-.682c.201-.152.257-.43.131-.648l-.809-1.4c-.126-.219-.395-.309-.627-.211l-1.037.438c-.253-.192-.522-.363-.819-.487l-.138-1.102c-.031-.251-.243-.438-.495-.438h-1.617c-.252 0-.465.188-.496.438l-.138 1.102c-.297.124-.566.295-.819.487l-1.037-.438c-.232-.098-.501-.008-.627.211l-.809 1.4c-.126.219-.07.496.131.648l.9.682c-.02.155-.047.309-.047.47s.027.313.047.47l-.9.682c-.201.151-.257.43-.131.648l.809 1.4c.126.219.395.309.627.211l1.037-.438c.253.192.522.363.819.487l.138 1.102c.031.25.243.438.495.438h1.617c.252 0 .465-.188.496-.438l.138-1.102c.297-.124.566-.295.819-.487l1.037.438c.232.098.501.008.627-.211l.809-1.4c.126-.219.07-.497-.131-.648zm-3.703 1.53c-1.104 0-2-.895-2-2 0-1.104.896-2 2-2 1.105 0 2 .896 2 2s-.896 2-2 2z" fill="#00bcd4"/><path d="m21 19c0 1.105-.895 2-2 2-1.104 0-2-.895-2-2 0-1.104.896-2 2-2s2 .896 2 2z" fill="#fff"/><path d="m19 14h-.809c-.252 0-.465.188-.496.438l-.138 1.102c-.297.124-.566.295-.819.487l-1.037-.438c-.063-.027-.129-.039-.194-.039-.174 0-.341.091-.433.25l-.809 1.4c-.126.219-.07.496.131.648l.9.682c-.02.155-.047.309-.047.47s.027.313.047.47l-.9.682c-.201.151-.257.43-.131.648l.809 1.4c.092.159.259.25.433.25.065 0 .131-.013.194-.039l1.037-.438c.253.192.522.363.819.487l.138 1.102c.032.25.244.438.496.438h.809v-3c-1.104 0-2-.895-2-2 0-1.104.896-2 2-2z" fill="#00a4b9"/></svg>