<svg height="512pt" viewBox="0 -17 512.001 512" width="512pt" xmlns="http://www.w3.org/2000/svg"><path d="m488.183594 478.914062h-464.367188c-13.152344 0-23.816406-10.660156-23.816406-23.816406v-428.742187c0-14.554688 11.800781-26.355469 26.355469-26.355469h458.917969c14.757812 0 26.726562 11.96875 26.726562 26.730469v428.367187c0 13.15625-10.664062 23.816406-23.816406 23.816406zm0 0" fill="#f4f4f4"/><path d="m485.273438 0h-12.039063c1.5 3.292969 2.339844 6.949219 2.339844 10.800781v457.316407c0 3.851562-.839844 7.507812-2.339844 10.796874h14.949219c13.15625 0 23.816406-10.660156 23.816406-23.816406v-428.367187c0-14.761719-11.96875-26.730469-26.726562-26.730469zm0 0" fill="#e8e8e8"/><path d="m0 92.164062h512v-67.628906c0-13.550781-10.984375-24.535156-24.535156-24.535156h-462.929688c-13.550781 0-24.535156 10.988281-24.535156 24.535156zm0 0" fill="#fba826"/><path d="m487.464844 0h-14.230469c1.5 3.292969 2.339844 6.949219 2.339844 10.800781v81.363281h36.425781v-67.628906c0-13.546875-10.984375-24.535156-24.535156-24.535156zm0 0" fill="#e09721"/><path d="m79.640625 46.082031c0 10.046875-8.140625 18.1875-18.1875 18.1875-10.042969 0-18.183594-8.140625-18.183594-18.1875 0-10.042969 8.140625-18.183593 18.183594-18.183593 10.046875 0 18.1875 8.140624 18.1875 18.183593zm0 0" fill="#fa5d72"/><path d="m141.207031 46.082031c0 10.046875-8.144531 18.1875-18.1875 18.1875-10.046875 0-18.1875-8.140625-18.1875-18.1875 0-10.042969 8.140625-18.183593 18.1875-18.183593 10.042969 0 18.1875 8.140624 18.1875 18.183593zm0 0" fill="#4c7eb0"/><path d="m202.769531 46.082031c0 10.046875-8.144531 18.1875-18.1875 18.1875s-18.1875-8.140625-18.1875-18.1875c0-10.042969 8.144531-18.183593 18.1875-18.183593s18.1875 8.140624 18.1875 18.183593zm0 0" fill="#279463"/><g fill="#495663"><path d="m180.796875 185.582031c-4.257813 0-7.710937-3.445312-7.726563-7.703125-.011718-4.265625 3.4375-7.738281 7.703126-7.75l159.480468-.503906h.023438c4.257812 0 7.714844 3.445312 7.726562 7.703125.015625 4.265625-3.433594 7.738281-7.699218 7.75l-159.484376.503906c-.007812 0-.015624 0-.023437 0zm0 0"/><path d="m245.699219 313.882812h-98.597657c-16.289062 0-29.542968-13.253906-29.542968-29.546874v-54.148438c0-4.269531 3.460937-7.726562 7.726562-7.726562s7.726563 3.460937 7.726563 7.726562v54.148438c0 7.773437 6.320312 14.09375 14.089843 14.09375h98.597657c4.265625 0 7.726562 3.457031 7.726562 7.726562 0 4.265625-3.460937 7.726562-7.726562 7.726562zm0 0"/><path d="m274.351562 404.148438h-107.574218c-4.269532 0-7.726563-3.457032-7.726563-7.726563 0-4.265625 3.457031-7.722656 7.726563-7.722656h107.574218c7.449219 0 13.503907-6.058594 13.503907-13.503907v-17.855468c0-4.265625 3.460937-7.722656 7.726562-7.722656s7.726563 3.457031 7.726563 7.722656v17.855468c0 15.964844-12.988282 28.953126-28.957032 28.953126zm0 0"/></g><path d="m328.980469 356.679688h-68.507813c-8.96875 0-16.242187-7.273438-16.242187-16.246094v-68.503906c0-8.972657 7.273437-16.246094 16.242187-16.246094h68.507813c8.96875 0 16.242187 7.273437 16.242187 16.246094v68.503906c0 8.972656-7.273437 16.246094-16.242187 16.246094zm0 0" fill="#a7c3de"/><path d="m328.980469 255.683594h-17.699219c3.339844 3.238281 5.425781 7.769531 5.425781 12.789062v75.414063c0 5.023437-2.085937 9.554687-5.429687 12.792969h17.699218c8.972657 0 16.246094-7.273438 16.246094-16.246094v-68.503906c0-8.972657-7.273437-16.246094-16.242187-16.246094zm0 0" fill="#93acc4"/><path d="m262.109375 306.179688c0 9.875-8.003906 17.878906-17.878906 17.878906s-17.882813-8.003906-17.882813-17.878906 8.007813-17.878907 17.882813-17.878907 17.878906 8.003907 17.878906 17.878907zm0 0" fill="#5994ce"/><path d="m313.394531 357.339844c0 9.875-8.003906 17.878906-17.878906 17.878906s-17.878906-8.003906-17.878906-17.878906 8.003906-17.878906 17.878906-17.878906 17.878906 8.003906 17.878906 17.878906zm0 0" fill="#5994ce"/><path d="m429.976562 227.875h-68.507812c-8.972656 0-16.242188-7.273438-16.242188-16.242188v-68.507812c0-8.96875 7.269532-16.242188 16.242188-16.242188h68.507812c8.96875 0 16.242188 7.273438 16.242188 16.242188v68.507812c0 8.96875-7.273438 16.242188-16.242188 16.242188zm0 0" fill="#a7c3de"/><path d="m429.976562 126.878906h-21.003906c2.757813 3.199219 4.4375 7.351563 4.4375 11.90625v77.1875c0 4.554688-1.679687 8.707032-4.4375 11.902344h21.003906c8.96875 0 16.242188-7.273438 16.242188-16.246094v-68.503906c0-8.972656-7.273438-16.246094-16.242188-16.246094zm0 0" fill="#93acc4"/><path d="m363.105469 177.378906c0 9.875-8.007813 17.878906-17.882813 17.878906s-17.878906-8.003906-17.878906-17.878906 8.003906-17.878906 17.878906-17.878906 17.882813 8.003906 17.882813 17.878906zm0 0" fill="#5994ce"/><path d="m159.46875 228.378906h-68.503906c-8.972656 0-16.246094-7.273437-16.246094-16.246094v-68.503906c0-8.972656 7.273438-16.246094 16.246094-16.246094h68.503906c8.972656 0 16.246094 7.273438 16.246094 16.246094v68.503906c0 8.972657-7.273438 16.246094-16.246094 16.246094zm0 0" fill="#a7c3de"/><path d="m159.46875 127.382812h-22.683594c3.386719 3.238282 5.507813 7.792969 5.507813 12.851563v75.292969c0 5.058594-2.117188 9.613281-5.507813 12.851562h22.683594c8.972656 0 16.246094-7.273437 16.246094-16.246094v-68.503906c0-8.972656-7.273438-16.246094-16.246094-16.246094zm0 0" fill="#93acc4"/><path d="m193.597656 177.882812c0 9.875-8.007812 17.878907-17.882812 17.878907s-17.878906-8.003907-17.878906-17.878907 8.003906-17.882812 17.878906-17.882812 17.882812 8.007812 17.882812 17.882812zm0 0" fill="#5994ce"/><path d="m150.53125 444.832031h-68.507812c-8.96875 0-16.242188-7.273437-16.242188-16.242187v-68.507813c0-8.96875 7.273438-16.242187 16.242188-16.242187h68.507812c8.972656 0 16.242188 7.273437 16.242188 16.242187v68.507813c.003906 8.96875-7.269532 16.242187-16.242188 16.242187zm0 0" fill="#a7c3de"/><path d="m150.53125 343.839844h-20.351562c1.503906 2.761718 2.355468 5.925781 2.355468 9.292968v82.40625c0 3.367188-.851562 6.535157-2.355468 9.296876h20.351562c8.972656 0 16.246094-7.273438 16.246094-16.246094v-68.503906c0-8.972657-7.273438-16.246094-16.246094-16.246094zm0 0" fill="#93acc4"/><path d="m184.65625 394.335938c0 9.875-8.003906 17.878906-17.878906 17.878906s-17.882813-8.003906-17.882813-17.878906 8.007813-17.878907 17.882813-17.878907 17.878906 8.003907 17.878906 17.878907zm0 0" fill="#5994ce"/><path d="m143.097656 228.378906c0 9.875-8.003906 17.878906-17.878906 17.878906s-17.878906-8.003906-17.878906-17.878906 8.003906-17.878906 17.878906-17.878906 17.878906 8.003906 17.878906 17.878906zm0 0" fill="#5994ce"/><path d="m270.078125 53.808594h188.179687c4.269532 0 7.726563-3.457032 7.726563-7.726563 0-4.265625-3.460937-7.722656-7.726563-7.722656h-188.179687c-4.265625 0-7.726563 3.457031-7.726563 7.722656 0 4.269531 3.460938 7.726563 7.726563 7.726563zm0 0" fill="#495663"/></svg>